<?xml version="1.0" encoding="utf-8"?>
<!-- Generator: Adobe Illustrator 22.0.0, SVG Export Plug-In . SVG Version: 6.00 Build 0)  -->
<svg version="1.1" id="Layer_1" xmlns="http://www.w3.org/2000/svg" xmlns:xlink="http://www.w3.org/1999/xlink" x="0px" y="0px"
	 viewBox="0 0 300 600" style="enable-background:new 0 0 300 600;" xml:space="preserve">
<style type="text/css">
	.st0{display:none;}
	.st1{display:inline;}
	.st2{display:inline;opacity:0.34;clip-path:url(#SVGID_2_);fill:#FFFFFF;}
	.st3{fill:none;stroke:#FFAD00;stroke-width:3;stroke-miterlimit:10;}
	.st4{fill:#303030;}
	.st5{fill:#FFAD00;}
	.st6{fill:#FFFFFF;}
	.st7{display:inline;fill:#FFFFFF;stroke:#303030;stroke-width:0.25;stroke-miterlimit:10;}
</style>
<g class="st0">
	<defs>
		<rect id="SVGID_1_" width="300" height="600"/>
	</defs>
	<clipPath id="SVGID_2_" class="st1">
		<use xlink:href="#SVGID_1_"  style="overflow:visible;"/>
	</clipPath>
	<g style="display:inline;clip-path:url(#SVGID_2_);">
		
			<image style="overflow:visible;" width="4000" height="2666" xlink:href="../Downloads/New-york-city-cityscape/O9VVY00.jpg"  transform="matrix(0.2251 0 0 0.2251 -282.1125 0)">
		</image>
	</g>
	<rect x="-282.1" class="st2" width="900.2" height="600"/>
</g>
<rect x="46" y="300" class="st3" width="214" height="206.3"/>
<g>
	<path class="st4" d="M140.4,357h7.4v8.2c0,4.3-2.6,6.5-7.9,6.5s-7.9-2.2-7.9-6.5v-13.5c0-4.3,2.6-6.5,7.9-6.5s7.9,2.2,7.9,6.5v2.5
		h-5v-2.8c0-1.7-0.9-2.6-2.7-2.6s-2.7,0.9-2.7,2.6v14c0,1.7,0.9,2.5,2.7,2.5s2.7-0.8,2.7-2.5v-4.8h-2.4V357z"/>
	<path class="st4" d="M151.2,345.5h5.3v26h-5.3V345.5z"/>
	<path class="st4" d="M177.5,371.4h-5.3l-0.9-4.7h-6.5l-0.9,4.7H159l5.4-26h7.8L177.5,371.4z M165.4,363.2h5.1l-2.6-13.1
		L165.4,363.2z M174.6,339.9l-5.2,4.3h-3.7l3.5-4.3H174.6z"/>
	<path class="st4" d="M130.6,397.1v18.8h-4.8v-26h6.7l5.4,15.5V390h4.7v26h-5.5L130.6,397.1z"/>
	<path class="st4" d="M151.7,415.9h-5.3v-26h5.3v11.1h6V390h5.4v26h-5.4v-11.1h-6V415.9z"/>
	<path class="st4" d="M184.1,415.9h-5.3l-0.9-4.7h-6.5l-0.9,4.7h-4.9l5.4-26h7.8L184.1,415.9z M174,384.4l3.5,4.3h-4l-5.2-4.3H174z
		 M172,407.7h5.1l-2.6-13.1L172,407.7z"/>
	<path class="st4" d="M79.7,434.4h16.4v3.7h-5.5v22.2h-5.3v-22.2h-5.5V434.4z"/>
	<path class="st4" d="M101.8,437.7c1.8,0,3.2-0.3,4.1-1c0.6-0.4,1.2-1.2,1.7-2.3h3.5v26h-5.3v-19.8h-4.1V437.7z"/>
	<path class="st4" d="M120.8,437.7c1.8,0,3.2-0.3,4.1-1c0.6-0.4,1.2-1.2,1.7-2.3h3.5v26h-5.3v-19.8h-4.1V437.7z"/>
	<path class="st4" d="M148.2,434.4h4.6l-13.3,26h-4.6L148.2,434.4z"/>
	<path class="st4" d="M162.7,437.8c-1.8,0-2.7,0.9-2.7,2.6v2.8h-5v-2.5c0-4.3,2.6-6.5,7.9-6.5s7.9,2.2,7.9,6.5
		c0,1.9-0.6,3.7-1.8,5.5c-0.5,0.7-1.1,1.4-1.8,2.2c-0.5,0.6-1.2,1.2-2,1.9l-2,1.7c-0.7,0.6-1.3,1.1-1.7,1.6c-1,1.2-1.4,2.2-1.2,3.2
		h10v3.7h-15.3v-3.2c0-1.7,0.5-3.3,1.6-4.7c0.4-0.6,1-1.2,1.7-1.8c0.4-0.4,1.1-0.9,1.9-1.7l1-0.8c0.4-0.3,0.7-0.6,0.9-0.8
		c0.7-0.6,1.3-1.2,1.7-1.8c1.1-1.4,1.6-3,1.6-4.6C165.4,438.8,164.5,437.8,162.7,437.8z"/>
	<path class="st4" d="M173.6,440.7c0-4.3,2.7-6.5,8-6.5c5.4,0,8,2.2,8,6.5v13.5c0,4.3-2.7,6.5-8,6.5c-5.4,0-8-2.2-8-6.5V440.7z
		 M178.9,454.4c0,1.7,0.9,2.6,2.7,2.6s2.7-0.9,2.7-2.6v-14c0-1.7-0.9-2.6-2.7-2.6s-2.7,0.9-2.7,2.6V454.4z"/>
	<path class="st4" d="M196.4,437.7c1.8,0,3.2-0.3,4.1-1c0.6-0.4,1.2-1.2,1.7-2.3h3.5v26h-5.3v-19.8h-4.1V437.7z"/>
	<path class="st4" d="M228,454.2c0,4.3-2.8,6.5-8.3,6.5c-5.5,0-8.3-2.2-8.3-6.5v-2c0-2.7,1.1-4.5,3.3-5.4c-2.2-0.9-3.3-2.6-3.3-5.2
		v-0.8c0-4.3,2.8-6.5,8.3-6.5c5.5,0,8.3,2.2,8.3,6.5v0.8c0,2.5-1.1,4.3-3.3,5.2c2.2,1,3.3,2.8,3.3,5.4V454.2z M216.8,442.3
		c0,1.8,1,2.7,3,2.7s3-0.9,3-2.7v-1.4c0-2-1-3-3-3s-3,1-3,3V442.3z M216.8,454c0,2,1,2.9,3,2.9c2,0,3-1,3-2.9v-2.4c0-2-1-2.9-3-2.9
		s-3,1-3,2.9V454z"/>
</g>
<g class="st0">
	<g id="LOGO_1_" class="st1">
		<g>
			<path id="N_1_" class="st4" d="M82.9,96.6V52.9h8.9l4,20.9V52.9h8.3v43.7h-8.4l-4.3-21.9v21.9H82.9z"/>
			<path id="H_1_" class="st4" d="M107.5,96.6V52.9h8.6v15.6h4.1V52.9h8.6v43.7h-8.6V76.8h-4.1v19.9H107.5z"/>
			<path id="A_1_" class="st4" d="M132.1,96.6l4.4-43.7h15.6l4.4,43.7h-8.7l-0.6-7.1h-5.6l-0.5,7.1H132.1z M142.2,82.6h4.2l-2-22.2
				H144L142.2,82.6z"/>
			<path id="X_1_" class="st4" d="M172.1,96.6l4.6-23.2l-3.7-20.6h8.4l2.3,15.1l2-15.1h8.5l-3.7,20.6l4.6,23.2h-8.7l-2.7-17.1
				l-2.8,17.1H172.1z"/>
			<path id="E_1_" class="st4" d="M197.3,96.6V52.9h17.2v8.5h-8.5v8.5h8.1v8.2h-8.1v10h9v8.5H197.3z"/>
			<path class="st4" d="M148,49.9l-8-1.6v-5.9l8,3.7V49.9z"/>
		</g>
		<g>
			<g>
				<polygon class="st5" points="215.3,99.5 71.7,99.5 78.4,111.6 71.7,123.8 215.3,123.8 222.1,111.8 				"/>
			</g>
			<g>
				<polygon class="st6" points="209.9,111.7 209.9,111.7 209.9,111.7 209.9,111.7 203.3,123.8 201.7,123.8 208.4,111.7 201.7,99.5 
					203.3,99.5 				"/>
			</g>
			<g>
				<polygon class="st6" points="212.1,99.5 210.5,99.5 217.2,111.7 210.5,123.8 212.1,123.8 218.8,111.7 218.8,111.7 218.8,111.7 
					218.8,111.7 				"/>
			</g>
			<g>
				<path class="st6" d="M124.3,111.7"/>
				<polygon class="st6" points="124.3,111.7 117.6,99.5 116,99.5 122.7,111.7 116,123.8 117.6,123.8 				"/>
			</g>
			<g>
				<polygon class="st6" points="110.4,111.7 110.4,111.7 110.4,111.7 103.7,123.8 102.1,123.8 108.8,111.7 102.1,99.5 103.7,99.5 
									"/>
			</g>
			<g>
				<polygon class="st6" points="102,111.7 102,111.7 102,111.7 102,111.7 95.3,123.8 93.7,123.8 100.4,111.7 93.7,99.5 95.3,99.5 
									"/>
			</g>
			<g>
				<polygon class="st6" points="93.9,111.7 93.9,111.7 93.9,111.7 87.2,123.8 85.6,123.8 92.3,111.7 85.6,99.5 87.2,99.5 				"/>
			</g>
			<g>
				<path class="st4" d="M137,118.2v-10.4h2.1v4.2l1-4.2h2.1l-1.2,4.8l1.4,5.7h-2.2l-1.1-5.1v5.1H137z"/>
				<path class="st4" d="M142.3,107.2l1.4-2.4h2.4l1.4,2.4h-2.1l-0.5-1.7l-0.5,1.7H142.3z M142.7,118.2v-10.4h4.2v2h-2.1v2h2v2h-2
					v2.4h2.2v2H142.7z"/>
				<path class="st4" d="M147.7,118.2v-10.4h2.1l1,5v-5h2v10.4h-2l-1-5.2v5.2H147.7z"/>
				<path class="st4" d="M153.8,118.2v-10.4h2.1v3.7h1v-3.7h2.1v10.4h-2.1v-4.7h-1v4.7H153.8z"/>
				<path class="st4" d="M163.6,118.2v-8.4h-1.2v-2h4.6v2h-1.2v8.4H163.6z"/>
				<path class="st4" d="M167.4,118.2v-10.4h2v10.4H167.4z"/>
				<path class="st4" d="M170.3,118.2v-10.4h2.1l1,5v-5h2v10.4h-2l-1-5.2v5.2H170.3z"/>
				<path class="st4" d="M180,118.2v-8.4h-1.2v-2h4.6v2h-1.2v8.4H180z"/>
				<path class="st4" d="M190.3,106.9L190.3,106.9c0,0.7-0.1,1.1-0.4,1.4c-0.2,0.3-0.6,0.5-1,0.6v6.5c0,1-0.2,1.7-0.6,2.2
					c-0.4,0.5-1.1,0.7-1.9,0.7c-0.9,0-1.5-0.2-1.9-0.7s-0.6-1.2-0.6-2.2v-7.6h2v7.6c0,0.3,0,0.6,0.1,0.8c0.1,0.2,0.2,0.3,0.4,0.3
					c0.2,0,0.3-0.1,0.4-0.3c0.1-0.2,0.1-0.4,0.1-0.8v-7.6h1.1c0.5,0,0.7-0.2,0.7-0.7v-0.1L190.3,106.9z M185,107.1v-1.2l2.8-1v1.7
					L185,107.1z"/>
				<path class="st4" d="M191.5,117.6c-0.5-0.5-0.7-1.1-0.7-2v-4.8c0-1,0.2-1.8,0.6-2.3c0.4-0.5,1.1-0.8,1.9-0.8
					c0.8,0,1.4,0.2,1.9,0.6c0.5,0.4,0.7,1,0.7,1.8v1.8h-2.1v-1.5c0-0.3,0-0.5-0.1-0.6c-0.1-0.1-0.2-0.2-0.4-0.2
					c-0.2,0-0.3,0.1-0.4,0.2c-0.1,0.1-0.1,0.3-0.1,0.6v5.2c0,0.3,0,0.5,0.1,0.6c0.1,0.1,0.2,0.2,0.4,0.2c0.3,0,0.5-0.3,0.5-0.8v-1.9
					h2.1v2c0,1.7-0.9,2.6-2.6,2.6C192.5,118.3,191.9,118.1,191.5,117.6z"/>
			</g>
		</g>
		<g>
			<polygon class="st5" points="170.4,80.9 170.4,69.3 164.5,73.8 158.7,69.3 158.7,80.9 164.5,85.3 			"/>
			<g>
				<polygon class="st6" points="164.5,82.6 164.5,82.6 164.5,82.6 164.5,82.6 164.5,82.6 170.4,78.1 170.4,77 164.5,81.5 158.7,77 
					158.7,78.1 				"/>
			</g>
			<g>
				<polygon class="st6" points="164.5,79.9 164.5,79.9 164.5,79.9 164.5,79.9 164.5,79.9 170.4,75.4 170.4,74.4 164.5,78.9 
					158.7,74.4 158.7,75.4 				"/>
			</g>
		</g>
	</g>
	<path class="st7" d="M93.9,111.7"/>
</g>
</svg>
