<svg id="Layer_1" data-name="Layer 1" xmlns="http://www.w3.org/2000/svg" viewBox="0 0 300 600"><defs><style>.cls-1,.cls-3,.cls-6{fill:#fff;}.cls-1,.cls-4{stroke:#fff;}.cls-1{stroke-linejoin:round;stroke-width:1.32px;}.cls-2{fill:#eb8023;}.cls-4{fill:none;stroke-miterlimit:10;stroke-width:0.31px;}.cls-5{font-size:10.3px;fill:#fbe470;font-family:UTM-Helve, UTM Helve;}.cls-6{font-size:15.65px;font-family:UTM-HelvetIns, UTM HelvetIns;}</style></defs><title>gia</title><g id="_Group_" data-name="&lt;Group&gt;"><g id="_Group_2" data-name="&lt;Group&gt;"><path id="_Compound_Path_" data-name="&lt;Compound Path&gt;" class="cls-1" d="M153.17,386.19a10,10,0,0,1-1.14,4.63,18.41,18.41,0,0,1-2.88,4.08,21.18,21.18,0,0,1-3.93,3.29,23.85,23.85,0,0,1-4.27,2.25l-1.78-2.66a23.53,23.53,0,0,0,3.46-3.17,4.31,4.31,0,0,0,1.17-2.78c0-1.48-1.19-3.08-3.55-4.81a6.32,6.32,0,0,1,.57-2.73,6,6,0,0,1,1.55-2,7.32,7.32,0,0,1,2.25-1.27,7.93,7.93,0,0,1,2.6-.44,6.5,6.5,0,0,1,4.24,1.39A5.15,5.15,0,0,1,153.17,386.19Z"/><g id="_Group_3" data-name="&lt;Group&gt;"><path id="_Compound_Path_2" data-name="&lt;Compound Path&gt;" class="cls-1" d="M110.17,341.82a35.88,35.88,0,0,0,12.4-4.08,28.89,28.89,0,0,0,8.87-7.27H148.3l-15,70h-23.8l10.91-51.24h-11.9Z"/><path id="_Compound_Path_3" data-name="&lt;Compound Path&gt;" class="cls-1" d="M157.83,389.64a94.67,94.67,0,0,0,14.76-6.11,56.82,56.82,0,0,0,12.79-8.93,41.13,41.13,0,0,0,9-12.17,36.27,36.27,0,0,0,3.36-16,21,21,0,0,0-.88-6.83,3.17,3.17,0,0,0-3.09-2.43,5,5,0,0,0-3.69,1.88A19.56,19.56,0,0,0,187,343.8a52.21,52.21,0,0,0-2.53,6.39c-.77,2.36-1.42,4.63-1.93,6.84H162.57l3.63-16.53a50.48,50.48,0,0,1,13-8.21,38.79,38.79,0,0,1,15.42-2.92,39.53,39.53,0,0,1,10,1.21,23.35,23.35,0,0,1,8.16,3.8,19,19,0,0,1,5.51,6.5,19.92,19.92,0,0,1,2,9.31,24.38,24.38,0,0,1-1.38,8.05,27.63,27.63,0,0,1-4.85,8.21,57.47,57.47,0,0,1-9.37,8.81,138.63,138.63,0,0,1-14.93,9.86h24.58l-2.21,15.32H155.4Z"/></g></g><g id="_Group_4" data-name="&lt;Group&gt;"><path id="_Compound_Path_4" data-name="&lt;Compound Path&gt;" class="cls-2" d="M155.66,385.28a10,10,0,0,1-1.14,4.62,18,18,0,0,1-2.88,4.08,20.85,20.85,0,0,1-3.93,3.3,23.85,23.85,0,0,1-4.27,2.25l-1.77-2.66a23.41,23.41,0,0,0,3.45-3.17,4.35,4.35,0,0,0,1.17-2.79c0-1.47-1.18-3.08-3.55-4.81a6.27,6.27,0,0,1,.57-2.72,5.91,5.91,0,0,1,1.56-2,6.94,6.94,0,0,1,2.24-1.26,7.73,7.73,0,0,1,2.6-.45A6.49,6.49,0,0,1,154,381,5.13,5.13,0,0,1,155.66,385.28Z"/><g id="_Group_5" data-name="&lt;Group&gt;"><path id="_Compound_Path_5" data-name="&lt;Compound Path&gt;" class="cls-2" d="M112.67,340.9a35.89,35.89,0,0,0,12.39-4.07,29,29,0,0,0,8.87-7.27h16.86l-15,70H112l10.9-51.24H111Z"/><path id="_Compound_Path_6" data-name="&lt;Compound Path&gt;" class="cls-2" d="M160.32,388.73a96.22,96.22,0,0,0,14.77-6.12,56.94,56.94,0,0,0,12.78-8.92,40.7,40.7,0,0,0,9-12.18,36.24,36.24,0,0,0,3.36-16,20.78,20.78,0,0,0-.88-6.83,3.17,3.17,0,0,0-3.09-2.42,5,5,0,0,0-3.69,1.87,19.32,19.32,0,0,0-3.08,4.74,52.18,52.18,0,0,0-2.54,6.39q-1.16,3.53-1.93,6.83H165.06l3.64-16.53a50.53,50.53,0,0,1,13-8.21,39,39,0,0,1,15.43-2.92,39.64,39.64,0,0,1,10,1.22,23,23,0,0,1,8.15,3.8,18.75,18.75,0,0,1,5.51,6.5,19.89,19.89,0,0,1,2,9.31,24.28,24.28,0,0,1-1.38,8,27.3,27.3,0,0,1-4.85,8.21,57.81,57.81,0,0,1-9.36,8.82,141.18,141.18,0,0,1-14.93,9.86h24.57l-2.21,15.32H157.9Z"/></g></g><g id="_Group_6" data-name="&lt;Group&gt;"><path id="_Compound_Path_7" data-name="&lt;Compound Path&gt;" class="cls-3" d="M147.9,363.55v-1.88h12.74v1.88h-5.33v13.79h-2.09V363.55Z"/><path id="_Compound_Path_8" data-name="&lt;Compound Path&gt;" class="cls-3" d="M170.15,365.9h2.14c-.67,1.88-1.33,3.73-2,5.57s-1.36,3.72-2.1,5.66a18.08,18.08,0,0,1-2,4.17,3.34,3.34,0,0,1-2.48.71l-.29,0-.5-.15v-1.75l.5.14a2.29,2.29,0,0,0,.64.08,1.22,1.22,0,0,0,1-.41,14,14,0,0,0,1-2.25l-4.23-11.75H164l3,9.3ZM168,364.79h-1.28a3.09,3.09,0,0,1,.16-1.15,2.32,2.32,0,0,1,.8-.83,1.23,1.23,0,0,0,.63-1,.9.9,0,0,0-.28-.75,1,1,0,0,0-.65-.23.92.92,0,0,0-.82.33,1.35,1.35,0,0,0-.23.8l-1.41,0a2.17,2.17,0,0,1,.77-1.79,2.5,2.5,0,0,1,1.6-.52,3.11,3.11,0,0,1,1.46.33,1.84,1.84,0,0,1,1,1.77,1.65,1.65,0,0,1-.27,1,3.73,3.73,0,0,1-.9.85,1.54,1.54,0,0,0-.48.47A1.46,1.46,0,0,0,168,364.79Z"/></g><g id="_Group_7" data-name="&lt;Group&gt;"><path id="_Compound_Path_9" data-name="&lt;Compound Path&gt;" class="cls-3" d="M110.84,410.66v-.77a2.93,2.93,0,0,1,.68-2.12,2.8,2.8,0,0,1,2.13-.7,2.85,2.85,0,0,1,2,.64,2.53,2.53,0,0,1,.69,2,3.46,3.46,0,0,1-.58,2,5.31,5.31,0,0,1-.46.55c-.22.24-.49.51-.83.83a6.76,6.76,0,0,0-1.32,1.55l-.13.27-.09.28h3.34V417h-5.62v-.61a5.12,5.12,0,0,1,.9-3.05l1.67-1.74a2.77,2.77,0,0,0,.91-1.91,1.23,1.23,0,0,0-.15-.74.59.59,0,0,0-.46-.18.49.49,0,0,0-.48.23,1.52,1.52,0,0,0-.12.69v1Z"/><path id="_Compound_Path_10" data-name="&lt;Compound Path&gt;" class="cls-3" d="M120.18,417v-9.92h2.45a4.93,4.93,0,0,1,2.7.53,3,3,0,0,1,.83,2.49c0,.34,0,.57,0,.7s-.05.32-.09.57a2.05,2.05,0,0,1-.33.75,2.14,2.14,0,0,1-2,.95h-1.29V417Zm2.29-8.16v2.46H123a.76.76,0,0,0,.68-.26,2.16,2.16,0,0,0,.16-1c0-.55-.09-.9-.29-1.05a1.45,1.45,0,0,0-.86-.16Z"/><path id="_Compound_Path_11" data-name="&lt;Compound Path&gt;" class="cls-3" d="M127.08,417v-9.92h2.29v3.72h1.31v-3.72H133V417h-2.29v-4.22h-1.31V417Z"/><path id="_Compound_Path_12" data-name="&lt;Compound Path&gt;" class="cls-3" d="M134,409.77a2.81,2.81,0,0,1,.83-2.17,3,3,0,0,1,2.12-.7,3.12,3.12,0,0,1,2.13.72,2.72,2.72,0,0,1,.82,2.15v4.51a2.8,2.8,0,0,1-.8,2.09,3.36,3.36,0,0,1-4.29,0,2.75,2.75,0,0,1-.81-2.1Zm3.65-5.34.54,1.69H137l-1.35-1.69Zm-1.37,10.05a1.25,1.25,0,0,0,.16.7.56.56,0,0,0,.51.21.57.57,0,0,0,.57-.35,2,2,0,0,0,.08-.56v-4.91a1.76,1.76,0,0,0-.07-.57.57.57,0,0,0-.58-.34.59.59,0,0,0-.58.33,1.72,1.72,0,0,0-.09.58Z"/><path id="_Compound_Path_13" data-name="&lt;Compound Path&gt;" class="cls-3" d="M140.88,417v-9.92h2.5l1.83,5.85,0-5.85h2.21V417H145l-1.84-6.13,0,6.13Z"/><path id="_Compound_Path_14" data-name="&lt;Compound Path&gt;" class="cls-3" d="M148.46,414.28v-4.5a2.77,2.77,0,0,1,.83-2.16,3.05,3.05,0,0,1,2.12-.71,3.55,3.55,0,0,1,2.05.51,2.18,2.18,0,0,1,.89,1.92v1.11h-2.17v-1q0-.78-.72-.78a.66.66,0,0,0-.58.33,1.25,1.25,0,0,0-.13.57v4.9a1.35,1.35,0,0,0,.15.7.58.58,0,0,0,.51.21.65.65,0,0,0,.73-.74v-1.28h-.81v-1.84h3V417h-2v-.8a2,2,0,0,1-1.79,1,1.84,1.84,0,0,1-1.66-.87A3.85,3.85,0,0,1,148.46,414.28Z"/><path id="_Compound_Path_15" data-name="&lt;Compound Path&gt;" class="cls-3" d="M158.44,417v-9.92h2.5l1.84,5.85,0-5.85H165V417h-2.48l-1.85-6.13,0,6.13Z"/><path id="_Compound_Path_16" data-name="&lt;Compound Path&gt;" class="cls-3" d="M166,414.28v-4.5a2.74,2.74,0,0,1,.83-2.16,3,3,0,0,1,2.11-.71,3.55,3.55,0,0,1,2.05.51,2.16,2.16,0,0,1,.89,1.92v1.11h-2.17v-1q0-.78-.72-.78a.66.66,0,0,0-.58.33,1.25,1.25,0,0,0-.13.57v4.9a1.35,1.35,0,0,0,.15.7.58.58,0,0,0,.51.21.65.65,0,0,0,.73-.74v-1.28h-.81v-1.84h3V417h-2v-.8a2,2,0,0,1-1.79,1,1.85,1.85,0,0,1-1.66-.87A3.86,3.86,0,0,1,166,414.28Z"/><path id="_Compound_Path_17" data-name="&lt;Compound Path&gt;" class="cls-3" d="M172.93,407.06h2.28v7.25a2,2,0,0,0,.1.76c.06.16.25.24.56.24a.63.63,0,0,0,.5-.19,1.42,1.42,0,0,0,.16-.81v-7.25h2.29v7.22a2.8,2.8,0,0,1-.79,2.09,3.37,3.37,0,0,1-4.3,0,2.74,2.74,0,0,1-.8-2.1Zm2.53-.52a1.42,1.42,0,0,1,.25-.74l.47-.6a.94.94,0,0,0,.26-.61.88.88,0,0,0-.06-.35.28.28,0,0,0-.27-.14.3.3,0,0,0-.26.16,1.09,1.09,0,0,0-.08.39V405h-.92v-.41a1.12,1.12,0,0,1,.35-.84,1.25,1.25,0,0,1,.94-.34,1.62,1.62,0,0,1,1,.27,1.11,1.11,0,0,1,.33.88,1.3,1.3,0,0,1-.31.83l-.59.64a1.53,1.53,0,0,0-.27.52Z"/><path id="_Compound_Path_18" data-name="&lt;Compound Path&gt;" class="cls-3" d="M181.89,417.15l2.71-10.24h1.76l-2.71,10.24Z"/><path id="_Compound_Path_19" data-name="&lt;Compound Path&gt;" class="cls-3" d="M189.39,410.66v-.77a2.93,2.93,0,0,1,.67-2.12,2.8,2.8,0,0,1,2.13-.7,2.85,2.85,0,0,1,2,.64,2.53,2.53,0,0,1,.69,2,3.46,3.46,0,0,1-.58,2,4.28,4.28,0,0,1-.46.55c-.22.24-.49.51-.83.83a7,7,0,0,0-1.32,1.55l-.12.27-.1.28h3.34V417h-5.61v-.61a5.11,5.11,0,0,1,.89-3.05l1.68-1.74a2.82,2.82,0,0,0,.91-1.91,1.22,1.22,0,0,0-.16-.74.59.59,0,0,0-.46-.18.49.49,0,0,0-.48.23,1.52,1.52,0,0,0-.12.69v1Z"/><path id="_Compound_Path_20" data-name="&lt;Compound Path&gt;" class="cls-3" d="M197,417l-1.7-9.92h2.36l.8,7.06.76-7.06h2.22l.7,7.06.84-7.06h2.3L203.55,417H201l-.67-6.11-.78,6.11Z"/><path id="_Compound_Path_21" data-name="&lt;Compound Path&gt;" class="cls-3" d="M206,414.28v-4.5a2.74,2.74,0,0,1,.83-2.16,3,3,0,0,1,2.11-.71,3.09,3.09,0,0,1,2.14.74,2.73,2.73,0,0,1,.8,2.13v.91h-2.28v-1.11a1.73,1.73,0,0,0-.08-.57.67.67,0,0,0-1.15,0,1.72,1.72,0,0,0-.09.58v4.9a1.35,1.35,0,0,0,.15.7.58.58,0,0,0,.51.21.57.57,0,0,0,.57-.35,1.69,1.69,0,0,0,.09-.56V413h2.28v1.25a2.77,2.77,0,0,1-.79,2.09,3.36,3.36,0,0,1-4.29,0A2.74,2.74,0,0,1,206,414.28Z"/></g><g id="_Group_8" data-name="&lt;Group&gt;"><path id="_Compound_Path_22" data-name="&lt;Compound Path&gt;" class="cls-3" d="M100.86,327.87H99.78a2,2,0,0,0-1-1.42,2.75,2.75,0,0,0-1.35-.32,2.47,2.47,0,0,0-1.93.82,3.62,3.62,0,0,0-.8,2.49,4.26,4.26,0,0,0,.6,2.45,2.44,2.44,0,0,0,2.16,1,2.22,2.22,0,0,0,1.32-.41,2.9,2.9,0,0,0,1.06-1.86H101a3.82,3.82,0,0,1-1.2,2.43,3.51,3.51,0,0,1-2.43.85,3.46,3.46,0,0,1-2.58-1,4.71,4.71,0,0,1-1.17-3.43,4.59,4.59,0,0,1,1-3.12,3.59,3.59,0,0,1,2.84-1.2,3.51,3.51,0,0,1,2.44.84A2.89,2.89,0,0,1,100.86,327.87Z"/><path id="_Compound_Path_23" data-name="&lt;Compound Path&gt;" class="cls-3" d="M107.61,329.56v4.11h-1v-3.95a1.71,1.71,0,0,0-.23-1,1.15,1.15,0,0,0-1-.37,1.6,1.6,0,0,0-1.15.43,2.1,2.1,0,0,0-.53,1.58v3.31h-1v-8.3h1v3.05a3,3,0,0,1,.63-.62,1.93,1.93,0,0,1,1.15-.35,2.34,2.34,0,0,1,1.42.39A2,2,0,0,1,107.61,329.56Z"/><path id="_Compound_Path_24" data-name="&lt;Compound Path&gt;" class="cls-3" d="M110.33,327h-.68a1.6,1.6,0,0,1,.09-.61,1.11,1.11,0,0,1,.42-.44.64.64,0,0,0,.33-.52.48.48,0,0,0-.15-.4.55.55,0,0,0-.35-.12.51.51,0,0,0-.43.17.75.75,0,0,0-.12.43h-.74a1.12,1.12,0,0,1,.41-1,1.27,1.27,0,0,1,.84-.28,1.59,1.59,0,0,1,.77.18,1,1,0,0,1,.56.94.89.89,0,0,1-.14.5,2.22,2.22,0,0,1-.49.46.72.72,0,0,0-.25.24A.77.77,0,0,0,110.33,327Zm.18.59v6.06h-1v-6.06Z"/><path id="_Compound_Path_25" data-name="&lt;Compound Path&gt;" class="cls-3" d="M117.84,328.46h-1v3.94a.38.38,0,0,0,.22.4.75.75,0,0,0,.38.07h.37v.8l-.76.09a1.19,1.19,0,0,1-1-.37,1.52,1.52,0,0,1-.23-.94v-4H115v-.85h.84v-1.69h1v1.69h1Z"/><path id="_Compound_Path_26" data-name="&lt;Compound Path&gt;" class="cls-3" d="M123.92,328a.46.46,0,0,0,.18-.11c0-.05.06-.08.08-.09a.72.72,0,0,0,.19-.3,1.54,1.54,0,0,0,0-.4h-.64v-.71h1.1v1a1,1,0,0,1-.34.68,2.12,2.12,0,0,1-.61.38v5.21h-1v-.88l0,0a2.19,2.19,0,0,1-.77.82,2.25,2.25,0,0,1-1.15.27,2.08,2.08,0,0,1-1.31-.4A1.75,1.75,0,0,1,119,332v-4.35h1v4a1.36,1.36,0,0,0,.34,1,1.14,1.14,0,0,0,.84.29,1.46,1.46,0,0,0,1.31-.68,2.34,2.34,0,0,0,.36-1.33v-3.34h1Zm-2.72-1.2-1.52-1.62H121l1,1.62Z"/></g><line id="_Path_" data-name="&lt;Path&gt;" class="cls-4" x1="110.37" y1="418.9" x2="215.97" y2="418.9"/></g><text class="cls-5" transform="translate(61 466.19)">NGUYỄN VĂN LINH - PHẠM THẾ HIỂN</text><text class="cls-6" transform="translate(65.36 450.05)">CĂN HỘ HAI MẶT TIỀN ĐƯỜNG</text></svg>