<svg id="Layer_1" data-name="Layer 1" xmlns="http://www.w3.org/2000/svg" xmlns:xlink="http://www.w3.org/1999/xlink" viewBox="0 0 300 600"><defs><style>.cls-1{fill:url(#linear-gradient);}.cls-2{fill:url(#linear-gradient-2);}.cls-3{fill:url(#linear-gradient-3);}.cls-4{fill:url(#linear-gradient-4);}.cls-5{fill:url(#linear-gradient-5);}.cls-6{fill:url(#linear-gradient-6);}.cls-7{fill:url(#linear-gradient-7);}.cls-8{fill:url(#linear-gradient-8);}.cls-9{fill:url(#linear-gradient-9);}.cls-10{fill:url(#linear-gradient-10);}.cls-11{fill:url(#linear-gradient-11);}.cls-12{fill:url(#linear-gradient-12);}.cls-13{fill:url(#linear-gradient-13);}.cls-14{fill:url(#linear-gradient-14);}.cls-15{fill:url(#linear-gradient-15);}.cls-16{fill:url(#linear-gradient-16);}.cls-17{fill:url(#linear-gradient-17);}.cls-18{fill:url(#linear-gradient-18);}.cls-19{fill:url(#linear-gradient-19);}.cls-20{fill:url(#linear-gradient-20);}.cls-21{fill:url(#linear-gradient-21);}.cls-22{fill:url(#linear-gradient-22);}.cls-23{fill:url(#linear-gradient-23);}.cls-24{fill:url(#linear-gradient-24);}.cls-25{fill:url(#linear-gradient-25);}</style><linearGradient id="linear-gradient" x1="197.97" y1="289.54" x2="43.83" y2="370.21" gradientUnits="userSpaceOnUse"><stop offset="0" stop-color="#edc87e"/><stop offset="0.33" stop-color="#e2bb75"/><stop offset="0.46" stop-color="#f2eac3"/><stop offset="0.58" stop-color="#e2bb75"/><stop offset="1" stop-color="#e2bb75"/></linearGradient><linearGradient id="linear-gradient-2" x1="200.15" y1="293.69" x2="46" y2="374.36" xlink:href="#linear-gradient"/><linearGradient id="linear-gradient-3" x1="202.47" y1="298.13" x2="48.32" y2="378.8" xlink:href="#linear-gradient"/><linearGradient id="linear-gradient-4" x1="204.17" y1="301.38" x2="50.02" y2="382.05" xlink:href="#linear-gradient"/><linearGradient id="linear-gradient-5" x1="207.4" y1="307.56" x2="53.26" y2="388.23" xlink:href="#linear-gradient"/><linearGradient id="linear-gradient-6" x1="209.43" y1="311.43" x2="55.28" y2="392.1" xlink:href="#linear-gradient"/><linearGradient id="linear-gradient-7" x1="211.57" y1="315.52" x2="57.42" y2="396.19" xlink:href="#linear-gradient"/><linearGradient id="linear-gradient-8" x1="213.71" y1="319.61" x2="59.56" y2="400.28" xlink:href="#linear-gradient"/><linearGradient id="linear-gradient-9" x1="216.45" y1="324.85" x2="62.31" y2="405.52" xlink:href="#linear-gradient"/><linearGradient id="linear-gradient-10" x1="218.96" y1="329.64" x2="64.81" y2="410.31" xlink:href="#linear-gradient"/><linearGradient id="linear-gradient-11" x1="220.93" y1="333.4" x2="66.78" y2="414.07" xlink:href="#linear-gradient"/><linearGradient id="linear-gradient-12" x1="224.73" y1="340.67" x2="70.59" y2="421.34" xlink:href="#linear-gradient"/><linearGradient id="linear-gradient-13" x1="226.85" y1="344.71" x2="72.7" y2="425.38" xlink:href="#linear-gradient"/><linearGradient id="linear-gradient-14" x1="228.82" y1="348.49" x2="74.67" y2="429.15" xlink:href="#linear-gradient"/><linearGradient id="linear-gradient-15" x1="230.55" y1="351.8" x2="76.41" y2="432.47" xlink:href="#linear-gradient"/><linearGradient id="linear-gradient-16" x1="232.4" y1="355.33" x2="78.26" y2="436" xlink:href="#linear-gradient"/><linearGradient id="linear-gradient-17" x1="234.29" y1="358.94" x2="80.15" y2="439.61" xlink:href="#linear-gradient"/><linearGradient id="linear-gradient-18" x1="165.86" y1="279.06" x2="85.87" y2="333.87" xlink:href="#linear-gradient"/><linearGradient id="linear-gradient-19" x1="167.74" y1="281.8" x2="87.75" y2="336.61" xlink:href="#linear-gradient"/><linearGradient id="linear-gradient-20" x1="176.82" y1="295.04" x2="96.82" y2="349.85" xlink:href="#linear-gradient"/><linearGradient id="linear-gradient-21" x1="182.11" y1="302.76" x2="102.12" y2="357.57" xlink:href="#linear-gradient"/><linearGradient id="linear-gradient-22" x1="188.99" y1="312.8" x2="109" y2="367.62" xlink:href="#linear-gradient"/><linearGradient id="linear-gradient-23" x1="195.01" y1="321.59" x2="115.02" y2="376.4" xlink:href="#linear-gradient"/><linearGradient id="linear-gradient-24" x1="202.4" y1="332.37" x2="122.41" y2="387.18" xlink:href="#linear-gradient"/><linearGradient id="linear-gradient-25" x1="207.54" y1="339.87" x2="127.55" y2="394.68" xlink:href="#linear-gradient"/></defs><title>leconbo</title><path class="cls-1" d="M69.61,355v8.31H66.87V355H64.76v-2.4h6.95V355Z"/><path class="cls-2" d="M79,363.34v-4.28h-3.5v4.28H72.8V352.63h2.74v4H79v-4h2.74v10.71Z"/><path class="cls-3" d="M90.62,363.34l-.52-1.54H86.38l-.56,1.54H82.87l4.3-10.71h2.16l4.26,10.71Zm-3.53-11.23-.68-1.42,3.47-1.86.77,1.71ZM88.27,356h0l-1.1,3.67h2.25Z"/><path class="cls-4" d="M102.47,357.77a3.27,3.27,0,0,1-.85,1.29,3.47,3.47,0,0,1-1.46.76,6.77,6.77,0,0,1-1.66.17H97.31v3.35H94.69V352.63h3.5c.34,0,.63,0,.86,0a7,7,0,0,1,.87.1,3.23,3.23,0,0,1,1.57.66,3.54,3.54,0,0,1,1.26,2.84A4.18,4.18,0,0,1,102.47,357.77Zm-2.91-2.53a2.82,2.82,0,0,0-1.24-.21h-1v2.55h1.11a2.35,2.35,0,0,0,1.19-.24,1.28,1.28,0,0,0,0-2.1Z"/><path class="cls-5" d="M112,363.34h-3.74V352.63h3.55a9.5,9.5,0,0,1,1.38.08,6.21,6.21,0,0,1,1.25.29,4.35,4.35,0,0,1,2.09,1.63,5.52,5.52,0,0,1,1,3.33Q117.47,363.35,112,363.34Zm2.17-7.46a2.4,2.4,0,0,0-2-.85h-1.19v5.91h1.18a2.41,2.41,0,0,0,2-.82,3.27,3.27,0,0,0,.62-2.12A3.3,3.3,0,0,0,114.12,355.88Z"/><path class="cls-6" d="M119.09,363.34V352.63h2.74v10.71Z"/><path class="cls-7" d="M130.67,363.34l-.52-1.54h-3.72l-.57,1.54h-2.94l4.3-10.71h2.16l4.26,10.71ZM128.32,356h0l-1.1,3.67h2.25Z"/><path class="cls-8" d="M143.52,363.34l.08-8,0,0-2.29,8h-1.81l-2.29-8,0,0,.08,8h-2.52V352.63h3.52l2.13,7.05h0l2.1-7.05H146v10.71Z"/><path class="cls-9" d="M157.15,362a5.82,5.82,0,0,1-8,0,5.13,5.13,0,0,1-1.68-3.87,6.46,6.46,0,0,1,.41-2.29,5.08,5.08,0,0,1,.7-1.2,5.39,5.39,0,0,1,4.53-2.2,5.48,5.48,0,0,1,4,1.6,5.57,5.57,0,0,1,0,7.93Zm-1.87-6.17a2.83,2.83,0,0,0-4.23,0,3.14,3.14,0,0,0-.81,2.19,3.24,3.24,0,0,0,.81,2.23,2.75,2.75,0,0,0,2.15,1,2.64,2.64,0,0,0,2.08-1,3.18,3.18,0,0,0,.79-2.18A3.26,3.26,0,0,0,155.28,355.79Z"/><path class="cls-10" d="M166.94,363.34l-4.07-6.51h0l.08,6.5h-2.62V352.63h2.36l4.14,6.73,0,0-.12-6.71h2.62v10.71Z"/><path class="cls-11" d="M174.87,363.34h-3.75V352.63h3.55a9.33,9.33,0,0,1,1.38.08,6.31,6.31,0,0,1,1.26.29,4.4,4.4,0,0,1,2.09,1.63,5.52,5.52,0,0,1,1,3.33Q180.39,363.35,174.87,363.34Zm2.16-7.46a2.37,2.37,0,0,0-2-.85h-1.18v5.91H175a2.43,2.43,0,0,0,2-.82,3.26,3.26,0,0,0,.61-2.12A3.3,3.3,0,0,0,177,355.88Z"/><path class="cls-12" d="M197.1,359.34a5.39,5.39,0,0,1-2,3.05,5.46,5.46,0,0,1-3.44,1.16,5.52,5.52,0,0,1-4-1.61,5.58,5.58,0,0,1,0-7.92,5.5,5.5,0,0,1,4-1.59,5.33,5.33,0,0,1,4.72,2.52,4.61,4.61,0,0,1,.73,1.75h-2.87a2.61,2.61,0,0,0-2.59-1.87,2.69,2.69,0,0,0-2.09.94,3.25,3.25,0,0,0-.78,2.19,3.3,3.3,0,0,0,.78,2.21,2.66,2.66,0,0,0,2.1,1,2.72,2.72,0,0,0,2.58-1.81Z"/><path class="cls-13" d="M198.51,363.34V352.63h6V355h-3.33v1.67h3.23v2.4h-3.23v1.84h3.33v2.4Z"/><path class="cls-14" d="M212.81,363.34l-4.08-6.51h0l.07,6.5h-2.62V352.63h2.36l4.14,6.73,0,0-.12-6.71h2.62v10.71Z"/><path class="cls-15" d="M221.16,355v8.31h-2.74V355h-2.11v-2.4h6.95V355Z"/><path class="cls-16" d="M224.35,363.34V352.63h6V355H227v1.67h3.23v2.4H227v1.84h3.33v2.4Z"/><path class="cls-17" d="M237.12,363.34l-2.48-3.45h0v3.45H232V352.63h3.39c.36,0,.64,0,.86,0a5.29,5.29,0,0,1,.86.09,3.4,3.4,0,0,1,1.58.66,3.54,3.54,0,0,1,1.32,2.92,3.49,3.49,0,0,1-.7,2.2,3,3,0,0,1-2,1.18l2.9,3.64Zm-.27-8a2.09,2.09,0,0,0-1.24-.33h-1v3h1q1.8,0,1.8-1.53A1.3,1.3,0,0,0,236.85,355.36Z"/><path class="cls-18" d="M78.62,344.2V327H83v13.37h5.1v3.86Z"/><path class="cls-19" d="M95.64,325.46l-1.07-1.34-1.07,1.34H89.73l3.62-3.87h2.53l3.49,3.87Zm-5.8,18.74V327h9.57v3.86H94.06v2.69h5.19v3.86H94.06v3h5.35v3.86Zm10.52-24a5,5,0,0,1-2.64.86,5.46,5.46,0,0,1-.91-.09l-1.92-.42a5.44,5.44,0,0,0-.89-.09,2.62,2.62,0,0,0-.86.14l-.82.3-1.4-2.06a7.29,7.29,0,0,1,1.23-.56,4.13,4.13,0,0,1,1.34-.24,5.59,5.59,0,0,1,.94.09l.47.09.94.21.47.1a5.59,5.59,0,0,0,.94.09,4.49,4.49,0,0,0,1.71-.4Z"/><path class="cls-20" d="M126.4,337.76a8.69,8.69,0,0,1-3.17,4.91,9.22,9.22,0,0,1-12-.73,9,9,0,0,1,0-12.73,8.8,8.8,0,0,1,6.4-2.56,8.56,8.56,0,0,1,7.58,4.05,7.25,7.25,0,0,1,1.17,2.82h-4.62a4.17,4.17,0,0,0-4.16-3,4.25,4.25,0,0,0-3.35,1.51,5.18,5.18,0,0,0-1.26,3.51,5.31,5.31,0,0,0,1.26,3.56,4.23,4.23,0,0,0,3.38,1.57,4.33,4.33,0,0,0,4.13-2.91Z"/><path class="cls-21" d="M143.44,342a9,9,0,0,1-6.46,2.55,8.86,8.86,0,0,1-6.35-2.51,8.2,8.2,0,0,1-2.71-6.22,10.23,10.23,0,0,1,.67-3.68,7.9,7.9,0,0,1,1.13-1.93,8.66,8.66,0,0,1,7.29-3.54,8.88,8.88,0,0,1,6.43,2.57,9,9,0,0,1,0,12.76Zm-5.34-16.52L137,324.12,136,325.46h-3.77l3.62-3.87h2.51l3.51,3.87Zm2.33,6.6a4.57,4.57,0,0,0-6.81,0,5,5,0,0,0-1.3,3.52,5.19,5.19,0,0,0,1.31,3.59,4.37,4.37,0,0,0,3.44,1.54,4.27,4.27,0,0,0,3.36-1.55,5.54,5.54,0,0,0,0-7.06Z"/><path class="cls-22" d="M159.18,344.2l-6.55-10.48-.06,0,.12,10.45h-4.21V327h3.79l6.66,10.83,0,0L158.79,327H163V344.2Z"/><path class="cls-23" d="M183.74,335.31a9,9,0,0,1-2.62,6.61,9.43,9.43,0,0,1-13.06,0,8.66,8.66,0,0,1-2.67-6.43,8.41,8.41,0,0,1,2.72-6.38,9.15,9.15,0,0,1,6.5-2.49,9.25,9.25,0,0,1,5.31,1.67,7.94,7.94,0,0,1,3.31,4.42h-4.94a4.08,4.08,0,0,0-3.79-2.22,4.41,4.41,0,0,0-3.41,1.47,5,5,0,0,0-1.3,3.53,5.37,5.37,0,0,0,1.26,3.64,4.38,4.38,0,0,0,3.47,1.53,4.76,4.76,0,0,0,2.57-.67,3.51,3.51,0,0,0,1.54-2.1H173.5V334.4h10.22c0,.14,0,.29,0,.46Z"/><path class="cls-24" d="M204.3,342.71a5.61,5.61,0,0,1-2.65,1.31,7.83,7.83,0,0,1-1.4.16l-.77,0H193.2V327h5.31c.66,0,1.17,0,1.52,0a8.05,8.05,0,0,1,1.45.2,4.73,4.73,0,0,1,2.54,1.45,4.07,4.07,0,0,1,1,2.84,3.7,3.7,0,0,1-2,3.47,3.87,3.87,0,0,1,2.84,4A4.62,4.62,0,0,1,204.3,342.71Zm-4-11.63a2.39,2.39,0,0,0-1.2-.25h-1.7v2.69h1.68c1.16,0,1.75-.46,1.75-1.38A1.14,1.14,0,0,0,200.31,331.08Zm.72,6.39a3,3,0,0,0-1.41-.27h-2.21v3.14h2.19A2.64,2.64,0,0,0,201,340a1.47,1.47,0,0,0,.63-1.31A1.31,1.31,0,0,0,201,337.47Z"/><path class="cls-25" d="M223,342a9.39,9.39,0,0,1-12.82,0,8.23,8.23,0,0,1-2.7-6.22,10,10,0,0,1,.67-3.68,7.59,7.59,0,0,1,1.13-1.93,8.63,8.63,0,0,1,7.28-3.54,8.9,8.9,0,0,1,6.44,2.57A9,9,0,0,1,223,342Zm-5.35-16.52-1.06-1.34-1.07,1.34h-3.78l3.63-3.87h2.51l3.5,3.87Zm2.33,6.6a4.31,4.31,0,0,0-3.39-1.54,4.4,4.4,0,0,0-3.42,1.5,5.08,5.08,0,0,0-1.29,3.52,5.14,5.14,0,0,0,1.31,3.59,4.37,4.37,0,0,0,3.44,1.54,4.25,4.25,0,0,0,3.35-1.55,5.51,5.51,0,0,0,0-7.06Zm.64-8.56-1.09-2.28,5.58-3,1.24,2.75Z"/></svg>