<svg id="Layer_1" data-name="Layer 1" xmlns="http://www.w3.org/2000/svg" viewBox="0 0 128.95 153.84"><defs><style>.cls-1{font-size:15.07px;fill:#fff;font-family:Roboto-BoldCondensed, Roboto;font-weight:700;}.cls-2{fill:#eb8023;stroke:#fff;stroke-linejoin:round;stroke-width:0.52px;}</style></defs><title>logo</title><text class="cls-1" transform="translate(26.45 14.84)">CHỦ ĐẦU TƯ</text><g id="_Group_" data-name="&lt;Group&gt;"><g id="_Group_2" data-name="&lt;Group&gt;"><g id="_Group_3" data-name="&lt;Group&gt;"><g id="_Group_4" data-name="&lt;Group&gt;"><polygon id="_Path_" data-name="&lt;Path&gt;" class="cls-2" points="93.62 120.83 93.62 110.78 95.85 110.67 95.85 46 31.59 46 31.59 108.9 80.57 108.9 80.57 79.03 63.05 63.31 46.88 80.93 46.88 94.78 57.54 94.78 57.54 106.92 34.75 106.92 34.75 76.21 62.22 46.28 92.69 73.63 92.69 121.04 19.48 121.04 19.48 33.88 107.97 33.88 107.97 120.7 93.62 120.83"/></g><polyline id="_Path_2" data-name="&lt;Path&gt;" class="cls-2" points="0.26 131.99 0.26 152.38 4.76 152.38 4.76 138.25 18.98 152.48 23.85 152.48 23.85 131.99 19.09 131.99 19.09 146.27 5.56 131.99 0.89 131.99"/><polygon id="_Path_3" data-name="&lt;Path&gt;" class="cls-2" points="24.66 131.99 29.54 131.99 29.54 140.1 43.99 140.1 43.99 132.39 48.73 132.39 48.73 152.48 44.08 152.48 44.08 144.52 29.39 144.52 29.39 152.48 24.66 152.48 24.66 131.99"/><polygon id="_Path_4" data-name="&lt;Path&gt;" class="cls-2" points="66.77 132.21 71.58 132.21 71.58 140.65 66.77 132.21"/><path id="_Compound_Path_" data-name="&lt;Compound Path&gt;" class="cls-2" d="M158.66,441.4h-5.39l-11,20.49h5.14l2.16-3.86,12.69-.1,2.41,4h5.12Zm-6.67,12,4.06-7.15,3.89,7.15Z" transform="translate(-92.74 -309.41)"/><polygon id="_Path_5" data-name="&lt;Path&gt;" class="cls-2" points="80.52 152.48 80.52 132.21 86.13 132.21 92.56 141.13 98.98 132.21 104.6 132.21 104.6 152.48 99.71 152.48 99.71 138.16 92.56 148.44 85.26 138.25 85.26 152.48 80.52 152.48"/><g id="_Group_5" data-name="&lt;Group&gt;"><g id="_Group_6" data-name="&lt;Group&gt;"><path id="_Path_6" data-name="&lt;Path&gt;" class="cls-2" d="M219.43,445.72a11.58,11.58,0,0,0-3.44-3.56Z" transform="translate(-92.74 -309.41)"/><path id="_Compound_Path_2" data-name="&lt;Compound Path&gt;" class="cls-2" d="M220,446.81l-4.54.36v-5.3a11.22,11.22,0,0,0-5.69-1.58,11.36,11.36,0,1,0,11.35,11.36A11.24,11.24,0,0,0,220,446.81Zm-10.23,11.66a6.82,6.82,0,1,1,6.83-6.82A6.83,6.83,0,0,1,209.78,458.47Z" transform="translate(-92.74 -309.41)"/></g><path id="_Path_7" data-name="&lt;Path&gt;" class="cls-2" d="M221.44,443.66a2.76,2.76,0,1,1-2.76-2.76A2.74,2.74,0,0,1,221.44,443.66Z" transform="translate(-92.74 -309.41)"/></g></g></g></g></svg>