<svg id="Layer_1" data-name="Layer 1" xmlns="http://www.w3.org/2000/svg" xmlns:xlink="http://www.w3.org/1999/xlink" viewBox="0 0 300 600"><defs><style>.cls-1{fill:url(#linear-gradient);}.cls-2{fill:url(#linear-gradient-2);}.cls-3{fill:url(#linear-gradient-3);}.cls-4{fill:url(#linear-gradient-4);}.cls-5{fill:url(#linear-gradient-5);}.cls-6{fill:url(#linear-gradient-6);}.cls-7{fill:url(#linear-gradient-7);}.cls-8{fill:url(#linear-gradient-8);}.cls-9{fill:url(#linear-gradient-9);}.cls-10{fill:url(#linear-gradient-10);}.cls-11{fill:url(#linear-gradient-11);}.cls-12{fill:url(#linear-gradient-12);}.cls-13{fill:url(#linear-gradient-13);}.cls-14{fill:url(#linear-gradient-14);}.cls-15{fill:url(#linear-gradient-15);}.cls-16{fill:url(#linear-gradient-16);}.cls-17{fill:url(#linear-gradient-17);}.cls-18{fill:url(#linear-gradient-18);}.cls-19{fill:url(#linear-gradient-19);}.cls-20{fill:url(#linear-gradient-20);}.cls-21{fill:url(#linear-gradient-21);}.cls-22{fill:url(#linear-gradient-22);}.cls-23{fill:url(#linear-gradient-23);}.cls-24{fill:url(#linear-gradient-24);}.cls-25{fill:url(#linear-gradient-25);}.cls-26{fill:url(#linear-gradient-26);}.cls-27{fill:url(#linear-gradient-27);}.cls-28{fill:url(#linear-gradient-28);}.cls-29{fill:url(#linear-gradient-29);}.cls-30{fill:url(#linear-gradient-30);}.cls-31{fill:url(#linear-gradient-31);}.cls-32{fill:url(#linear-gradient-32);}.cls-33{fill:url(#linear-gradient-33);}.cls-34{fill:url(#linear-gradient-34);}.cls-35{fill:url(#linear-gradient-35);}.cls-36{fill:url(#linear-gradient-36);}.cls-37{fill:url(#linear-gradient-37);}.cls-38{fill:url(#linear-gradient-38);}.cls-39{fill:url(#linear-gradient-39);}.cls-40{fill:url(#linear-gradient-40);}.cls-41{fill:url(#linear-gradient-41);}.cls-42{fill:url(#linear-gradient-42);}.cls-43{fill:url(#linear-gradient-43);}.cls-44{fill:url(#linear-gradient-44);}.cls-45{fill:url(#linear-gradient-45);}.cls-46{fill:url(#linear-gradient-46);}.cls-47{fill:url(#linear-gradient-47);}.cls-48{fill:url(#linear-gradient-48);}.cls-49{fill:url(#linear-gradient-49);}.cls-50{fill:url(#linear-gradient-50);}.cls-51{fill:url(#linear-gradient-51);}.cls-52{fill:url(#linear-gradient-52);}.cls-53{fill:url(#linear-gradient-53);}.cls-54{fill:url(#linear-gradient-54);}.cls-55{fill:url(#linear-gradient-55);}.cls-56{fill:url(#linear-gradient-56);}.cls-57{fill:url(#linear-gradient-57);}.cls-58{fill:url(#linear-gradient-58);}.cls-59{fill:url(#linear-gradient-59);}.cls-60{fill:url(#linear-gradient-60);}.cls-61{fill:url(#linear-gradient-61);}.cls-62{fill:url(#linear-gradient-62);}.cls-63{fill:url(#linear-gradient-63);}.cls-64{fill:url(#linear-gradient-64);}.cls-65{fill:url(#linear-gradient-65);}.cls-66{fill:url(#linear-gradient-66);}.cls-67{fill:url(#linear-gradient-67);}.cls-68{fill:none;stroke:#fff;stroke-miterlimit:10;}</style><linearGradient id="linear-gradient" x1="391.1" y1="262.91" x2="110.34" y2="493.98" gradientUnits="userSpaceOnUse"><stop offset="0" stop-color="#edc87e"/><stop offset="0.33" stop-color="#e2bb75"/><stop offset="0.46" stop-color="#f2eac3"/><stop offset="0.58" stop-color="#e2bb75"/><stop offset="1" stop-color="#e2bb75"/></linearGradient><linearGradient id="linear-gradient-2" x1="393.11" y1="265.36" x2="112.35" y2="496.43" xlink:href="#linear-gradient"/><linearGradient id="linear-gradient-3" x1="395.42" y1="268.15" x2="114.66" y2="499.22" xlink:href="#linear-gradient"/><linearGradient id="linear-gradient-4" x1="397.31" y1="270.45" x2="116.55" y2="501.52" xlink:href="#linear-gradient"/><linearGradient id="linear-gradient-5" x1="399.36" y1="272.95" x2="118.6" y2="504.02" xlink:href="#linear-gradient"/><linearGradient id="linear-gradient-6" x1="402.37" y1="276.6" x2="121.61" y2="507.67" xlink:href="#linear-gradient"/><linearGradient id="linear-gradient-7" x1="404.34" y1="278.99" x2="123.58" y2="510.06" xlink:href="#linear-gradient"/><linearGradient id="linear-gradient-8" x1="406.63" y1="281.78" x2="125.87" y2="512.85" xlink:href="#linear-gradient"/><linearGradient id="linear-gradient-9" x1="408.86" y1="284.49" x2="128.1" y2="515.56" xlink:href="#linear-gradient"/><linearGradient id="linear-gradient-10" x1="473.92" y1="198.55" x2="-81.28" y2="655.48" xlink:href="#linear-gradient"/><linearGradient id="linear-gradient-11" x1="478.53" y1="204.15" x2="-76.67" y2="661.09" xlink:href="#linear-gradient"/><linearGradient id="linear-gradient-12" x1="483.54" y1="210.23" x2="-71.67" y2="667.17" xlink:href="#linear-gradient"/><linearGradient id="linear-gradient-13" x1="487.47" y1="215.01" x2="-67.74" y2="671.94" xlink:href="#linear-gradient"/><linearGradient id="linear-gradient-14" x1="493.28" y1="222.06" x2="-61.93" y2="679" xlink:href="#linear-gradient"/><linearGradient id="linear-gradient-15" x1="498.05" y1="227.87" x2="-57.15" y2="684.81" xlink:href="#linear-gradient"/><linearGradient id="linear-gradient-16" x1="394.21" y1="311.97" x2="3.16" y2="633.8" xlink:href="#linear-gradient"/><linearGradient id="linear-gradient-17" x1="371.18" y1="306.93" x2="90.42" y2="538" xlink:href="#linear-gradient"/><linearGradient id="linear-gradient-18" x1="373.19" y1="309.38" x2="92.43" y2="540.45" xlink:href="#linear-gradient"/><linearGradient id="linear-gradient-19" x1="375.5" y1="312.18" x2="94.74" y2="543.24" xlink:href="#linear-gradient"/><linearGradient id="linear-gradient-20" x1="377.38" y1="314.47" x2="96.62" y2="545.54" xlink:href="#linear-gradient"/><linearGradient id="linear-gradient-21" x1="379.44" y1="316.97" x2="98.68" y2="548.04" xlink:href="#linear-gradient"/><linearGradient id="linear-gradient-22" x1="382.45" y1="320.63" x2="101.69" y2="551.69" xlink:href="#linear-gradient"/><linearGradient id="linear-gradient-23" x1="384.41" y1="323.01" x2="103.65" y2="554.08" xlink:href="#linear-gradient"/><linearGradient id="linear-gradient-24" x1="386.71" y1="325.8" x2="105.95" y2="556.87" xlink:href="#linear-gradient"/><linearGradient id="linear-gradient-25" x1="388.94" y1="328.51" x2="108.18" y2="559.58" xlink:href="#linear-gradient"/><linearGradient id="linear-gradient-26" x1="486.3" y1="244.6" x2="-18.74" y2="660.26" xlink:href="#linear-gradient"/><linearGradient id="linear-gradient-27" x1="488.89" y1="247.75" x2="-16.16" y2="663.4" xlink:href="#linear-gradient"/><linearGradient id="linear-gradient-28" x1="492.27" y1="251.86" x2="-12.77" y2="667.51" xlink:href="#linear-gradient"/><linearGradient id="linear-gradient-29" x1="495.3" y1="255.54" x2="-9.74" y2="671.19" xlink:href="#linear-gradient"/><linearGradient id="linear-gradient-30" x1="500.07" y1="261.33" x2="-4.98" y2="676.99" xlink:href="#linear-gradient"/><linearGradient id="linear-gradient-31" x1="503.85" y1="265.93" x2="-1.19" y2="681.58" xlink:href="#linear-gradient"/><linearGradient id="linear-gradient-32" x1="505.99" y1="268.53" x2="0.95" y2="684.18" xlink:href="#linear-gradient"/><linearGradient id="linear-gradient-33" x1="509.69" y1="273.02" x2="4.65" y2="688.68" xlink:href="#linear-gradient"/><linearGradient id="linear-gradient-34" x1="457.72" y1="277.67" x2="-109.82" y2="744.76" xlink:href="#linear-gradient"/><linearGradient id="linear-gradient-35" x1="462.44" y1="283.4" x2="-105.11" y2="750.49" xlink:href="#linear-gradient"/><linearGradient id="linear-gradient-36" x1="466.41" y1="288.22" x2="-101.14" y2="755.31" xlink:href="#linear-gradient"/><linearGradient id="linear-gradient-37" x1="471.04" y1="293.86" x2="-96.5" y2="760.95" xlink:href="#linear-gradient"/><linearGradient id="linear-gradient-38" x1="475.54" y1="299.32" x2="-92" y2="766.41" xlink:href="#linear-gradient"/><linearGradient id="linear-gradient-39" x1="481.52" y1="306.59" x2="-86.02" y2="773.68" xlink:href="#linear-gradient"/><linearGradient id="linear-gradient-40" x1="485.1" y1="310.93" x2="-82.45" y2="778.02" xlink:href="#linear-gradient"/><linearGradient id="linear-gradient-41" x1="490.06" y1="316.97" x2="-77.48" y2="784.06" xlink:href="#linear-gradient"/><linearGradient id="linear-gradient-42" x1="494.58" y1="322.45" x2="-72.96" y2="789.55" xlink:href="#linear-gradient"/><linearGradient id="linear-gradient-43" x1="440.36" y1="156.65" x2="46.19" y2="481.06" xlink:href="#linear-gradient"/><linearGradient id="linear-gradient-44" x1="443.84" y1="160.87" x2="49.66" y2="485.28" xlink:href="#linear-gradient"/><linearGradient id="linear-gradient-45" x1="446.3" y1="163.87" x2="52.13" y2="488.28" xlink:href="#linear-gradient"/><linearGradient id="linear-gradient-46" x1="447.27" y1="165.04" x2="53.09" y2="489.45" xlink:href="#linear-gradient"/><linearGradient id="linear-gradient-47" x1="451.11" y1="169.71" x2="56.93" y2="494.11" xlink:href="#linear-gradient"/><linearGradient id="linear-gradient-48" x1="455.09" y1="174.55" x2="60.92" y2="498.96" xlink:href="#linear-gradient"/><linearGradient id="linear-gradient-49" x1="459.28" y1="179.64" x2="65.11" y2="504.05" xlink:href="#linear-gradient"/><linearGradient id="linear-gradient-50" x1="461.66" y1="182.53" x2="67.49" y2="506.94" xlink:href="#linear-gradient"/><linearGradient id="linear-gradient-51" x1="465.93" y1="187.72" x2="71.76" y2="512.13" xlink:href="#linear-gradient"/><linearGradient id="linear-gradient-52" x1="471.14" y1="194.05" x2="76.97" y2="518.46" xlink:href="#linear-gradient"/><linearGradient id="linear-gradient-53" x1="473.69" y1="197.15" x2="79.52" y2="521.56" xlink:href="#linear-gradient"/><linearGradient id="linear-gradient-54" x1="477" y1="201.17" x2="82.83" y2="525.57" xlink:href="#linear-gradient"/><linearGradient id="linear-gradient-55" x1="348.15" y1="270.34" x2="67.39" y2="501.41" xlink:href="#linear-gradient"/><linearGradient id="linear-gradient-56" x1="351.25" y1="274.1" x2="70.49" y2="505.17" xlink:href="#linear-gradient"/><linearGradient id="linear-gradient-57" x1="352.31" y1="275.39" x2="71.55" y2="506.45" xlink:href="#linear-gradient"/><linearGradient id="linear-gradient-58" x1="356.24" y1="280.17" x2="75.48" y2="511.24" xlink:href="#linear-gradient"/><linearGradient id="linear-gradient-59" x1="358.83" y1="283.32" x2="78.07" y2="514.38" xlink:href="#linear-gradient"/><linearGradient id="linear-gradient-60" x1="361.27" y1="286.28" x2="80.51" y2="517.34" xlink:href="#linear-gradient"/><linearGradient id="linear-gradient-61" x1="280.52" y1="320.36" x2="36.37" y2="521.3" xlink:href="#linear-gradient"/><linearGradient id="linear-gradient-62" x1="282.54" y1="322.8" x2="38.38" y2="523.75" xlink:href="#linear-gradient"/><linearGradient id="linear-gradient-63" x1="284.76" y1="325.5" x2="40.6" y2="526.45" xlink:href="#linear-gradient"/><linearGradient id="linear-gradient-64" x1="286.91" y1="328.12" x2="42.75" y2="529.06" xlink:href="#linear-gradient"/><linearGradient id="linear-gradient-65" x1="289.77" y1="331.59" x2="45.62" y2="532.54" xlink:href="#linear-gradient"/><linearGradient id="linear-gradient-66" x1="291.77" y1="334.01" x2="47.61" y2="534.96" xlink:href="#linear-gradient"/><linearGradient id="linear-gradient-67" x1="293.89" y1="336.6" x2="49.74" y2="537.54" xlink:href="#linear-gradient"/></defs><title>nhieuphanqua</title><path class="cls-1" d="M220.14,403.49h-.41v2.32h-1.12v-5.55h1.12v2.26H220l1.52-2.26h1.38L221,402.84l2.07,3h-1.42Z"/><path class="cls-2" d="M228.08,405.81H227V403.5H224.7v2.31h-1.11v-5.55h1.11v2.38H227v-2.38h1.12Z"/><path class="cls-3" d="M232.06,404.61h-1.8l-.37,1.2h-1.16l1.87-5.55h1.14l1.86,5.55h-1.16Zm-1.52-.87h1.25l-.61-2h0Zm.83-5.05h1.24v0l-1.05,1h-.95Z"/><path class="cls-4" d="M238.26,404v0a1.73,1.73,0,0,1-.54,1.39,2.18,2.18,0,0,1-1.53.51,2.14,2.14,0,0,1-1.62-.65,2.28,2.28,0,0,1-.61-1.66v-1.1a2.35,2.35,0,0,1,.6-1.66,2,2,0,0,1,1.57-.64,2.34,2.34,0,0,1,1.58.49,1.69,1.69,0,0,1,.56,1.4v0h-1.08a.92.92,0,0,0-1.05-1.06.91.91,0,0,0-.78.41,1.73,1.73,0,0,0-.28,1v1.1a1.79,1.79,0,0,0,.29,1.05,1,1,0,0,0,.83.4.94.94,0,0,0,.74-.26,1.1,1.1,0,0,0,.25-.8Z"/><path class="cls-5" d="M243.55,405.81h-1.12V403.5h-2.26v2.31h-1.11v-5.55h1.11v2.38h2.26v-2.38h1.12Z"/><path class="cls-6" d="M251,405.81h-1.11V403.5h-2.26v2.31h-1.12v-5.55h1.12v2.38h2.26v-2.38H251Z"/><path class="cls-7" d="M255,404.61h-1.8l-.37,1.2h-1.16l1.87-5.55h1.14l1.86,5.55h-1.16Zm-.38-4.9h-.95l-1-1v0h1.24Zm-1.14,4h1.25l-.61-2h0Z"/><path class="cls-8" d="M261.54,405.81h-1.11l-2.24-3.75h0v3.74h-1.11v-5.55h1.11l2.24,3.74h0v-3.73h1.11Z"/><path class="cls-9" d="M266.82,405.05a2.21,2.21,0,0,1-.77.59,3.19,3.19,0,0,1-1.33.25,2.19,2.19,0,0,1-2.29-2.28v-1.16a2.26,2.26,0,0,1,.62-1.64,2.16,2.16,0,0,1,1.6-.63,2.28,2.28,0,0,1,1.56.48,1.56,1.56,0,0,1,.52,1.28v0h-1a.9.9,0,0,0-.26-.69,1,1,0,0,0-.74-.25,1,1,0,0,0-.83.4,1.62,1.62,0,0,0-.31,1v1.17a1.62,1.62,0,0,0,.32,1,1.06,1.06,0,0,0,.86.39,1.86,1.86,0,0,0,.63-.08.9.9,0,0,0,.35-.2v-1.08h-1.06v-.76h2.18Z"/><path class="cls-10" d="M201.75,423.52h-3.14v9.28h-2.2v-9.28h-3.09v-1.7h8.43Z"/><path class="cls-11" d="M211.83,432.8h-2.2v-4.57h-4.47v4.57H203v-11h2.21v4.72h4.47v-4.72h2.2Z"/><path class="cls-12" d="M219.7,430.43h-3.55l-.74,2.37h-2.3l3.7-11h2.25l3.69,11h-2.3Zm-3-1.73h2.48L218,424.84h0Z"/><path class="cls-13" d="M229.48,429.91h.05l2.81-8.09h2.88v11H233v-7.5H233l-2.71,7.51h-1.49l-2.72-7.52h0v7.51H223.8v-11h2.89Z"/><path class="cls-14" d="M241.08,432.8v-11h3.83a4.51,4.51,0,0,1,3.32,1.29,4.41,4.41,0,0,1,1.31,3.29v1.82a4.43,4.43,0,0,1-1.31,3.3,4.55,4.55,0,0,1-3.32,1.28Zm2.21-9.28v7.59h1.62a2.14,2.14,0,0,0,1.75-.81,3.15,3.15,0,0,0,.67-2.08v-1.83a3.12,3.12,0,0,0-.67-2.07,2.13,2.13,0,0,0-1.75-.8Z"/><path class="cls-15" d="M260,421.82v1.36h0a1.26,1.26,0,0,0,.9-.78,4.54,4.54,0,0,0,.27-1.73h1.62a4.75,4.75,0,0,1-.69,2.74,3,3,0,0,1-2.14,1.22V429a3.62,3.62,0,0,1-1.23,2.91,4.78,4.78,0,0,1-3.19,1,4.73,4.73,0,0,1-3.17-1,3.65,3.65,0,0,1-1.22-2.91v-7.18h2.21V429a2.24,2.24,0,0,0,.59,1.68,2.15,2.15,0,0,0,1.59.58,2.18,2.18,0,0,0,1.61-.58,2.21,2.21,0,0,0,.6-1.68v-7.18Zm-3.07,13.71h-2.47v-1.82h2.47Z"/><path class="cls-16" d="M227.36,446.7a4.46,4.46,0,0,1-.52-.88,2.05,2.05,0,0,1-.17-.8,2,2,0,0,1,.56-1.49,2.15,2.15,0,0,1,1.55-.53,1.85,1.85,0,0,1,1.37.52,1.73,1.73,0,0,1,.53,1.27,1.88,1.88,0,0,1-.23.95,2.55,2.55,0,0,1-.66.75l-.55.39,1.44,1.67a2.65,2.65,0,0,0,.29-.69,2.49,2.49,0,0,0,.11-.78h1.24a4.65,4.65,0,0,1-.19,1.38,3.12,3.12,0,0,1-.59,1.11l1.07,1.24v0h-1.72l-.41-.47a3.94,3.94,0,0,1-.93.44,3.75,3.75,0,0,1-1,.14,2.73,2.73,0,0,1-1.85-.6,2.06,2.06,0,0,1-.68-1.59,1.78,1.78,0,0,1,.34-1.1A4.89,4.89,0,0,1,227.36,446.7Zm1.24,3.06a2.2,2.2,0,0,0,.56-.07,2.52,2.52,0,0,0,.54-.21l-1.57-1.82,0,0a1.46,1.46,0,0,0-.43.5,1.07,1.07,0,0,0-.12.48,1.09,1.09,0,0,0,.29.78A1,1,0,0,0,228.6,449.76Zm-.55-4.76a1.14,1.14,0,0,0,.11.46,2.69,2.69,0,0,0,.33.51l.4-.26a1.08,1.08,0,0,0,.4-.4.92.92,0,0,0,.1-.44.71.71,0,0,0-.17-.47.61.61,0,0,0-.49-.21.58.58,0,0,0-.49.24A.89.89,0,0,0,228.05,445Z"/><path class="cls-17" d="M181.57,462.86h-.41v2.32H180v-5.55h1.12v2.26h.31l1.52-2.26h1.38l-1.92,2.58,2.07,3H183.1Z"/><path class="cls-18" d="M189.51,465.18h-1.12v-2.31h-2.26v2.31H185v-5.55h1.11V462h2.26v-2.38h1.12Z"/><path class="cls-19" d="M193.49,464h-1.8l-.37,1.2h-1.17l1.88-5.55h1.14l1.86,5.55h-1.16Zm-1.53-.87h1.26l-.61-2h0Zm.84-5.05H194v0l-1,1h-1Z"/><path class="cls-20" d="M199.68,463.34v0a1.73,1.73,0,0,1-.54,1.39,2.18,2.18,0,0,1-1.54.51,2.13,2.13,0,0,1-1.61-.65,2.28,2.28,0,0,1-.61-1.66v-1.1a2.35,2.35,0,0,1,.6-1.66,2,2,0,0,1,1.57-.64,2.34,2.34,0,0,1,1.58.49,1.69,1.69,0,0,1,.56,1.4v0h-1.08a1.11,1.11,0,0,0-.26-.8,1.07,1.07,0,0,0-.79-.26.91.91,0,0,0-.78.4,1.77,1.77,0,0,0-.28,1V463a1.79,1.79,0,0,0,.29,1.05,1,1,0,0,0,.82.4,1,1,0,0,0,.75-.26,1.14,1.14,0,0,0,.25-.8Z"/><path class="cls-21" d="M205,465.18h-1.12v-2.31H201.6v2.31h-1.11v-5.55h1.11V462h2.26v-2.38H205Z"/><path class="cls-22" d="M212.43,465.18h-1.12v-2.31h-2.26v2.31h-1.11v-5.55h1.11V462h2.26v-2.38h1.12Z"/><path class="cls-23" d="M216.41,464h-1.8l-.37,1.2h-1.16l1.87-5.55h1.14l1.86,5.55h-1.16Zm-.38-4.9h-1l-1-1v0h1.23Zm-1.14,4h1.25l-.61-2h0Z"/><path class="cls-24" d="M223,465.18h-1.11l-2.24-3.75h0v3.74h-1.11v-5.55h1.11l2.24,3.73h0v-3.73H223Z"/><path class="cls-25" d="M228.25,464.42a2.21,2.21,0,0,1-.77.59,3.19,3.19,0,0,1-1.33.25,2.27,2.27,0,0,1-1.65-.64,2.23,2.23,0,0,1-.64-1.64v-1.16a2.26,2.26,0,0,1,.62-1.64,2.16,2.16,0,0,1,1.6-.63,2.28,2.28,0,0,1,1.56.48,1.59,1.59,0,0,1,.52,1.28v0h-1a.9.9,0,0,0-.26-.69,1.13,1.13,0,0,0-1.57.15,1.56,1.56,0,0,0-.31,1V463a1.62,1.62,0,0,0,.32,1,1.05,1.05,0,0,0,.86.39,1.86,1.86,0,0,0,.63-.08.9.9,0,0,0,.35-.2V463h-1.07v-.76h2.19Z"/><path class="cls-26" d="M204.9,482.76a3.81,3.81,0,0,1-1.39,1.06,5.51,5.51,0,0,1-2.39.45,4,4,0,0,1-3-1.14,4,4,0,0,1-1.16-2.95v-2.09a4.07,4.07,0,0,1,1.12-2.95A3.87,3.87,0,0,1,201,474a4.07,4.07,0,0,1,2.8.87,2.84,2.84,0,0,1,.94,2.31v0h-1.89a1.64,1.64,0,0,0-.46-1.24,1.88,1.88,0,0,0-1.34-.44,1.81,1.81,0,0,0-1.48.71,2.89,2.89,0,0,0-.56,1.83v2.1a2.8,2.8,0,0,0,.58,1.84,1.86,1.86,0,0,0,1.54.72,3.47,3.47,0,0,0,1.13-.15,1.63,1.63,0,0,0,.64-.36v-1.94H201v-1.38h3.93Z"/><path class="cls-27" d="M208.74,484.13h-2v-10h2Z"/><path class="cls-28" d="M216.05,482h-3.24l-.67,2.16h-2.09l3.37-10h2.05l3.35,10h-2.09Zm-2.74-1.56h2.25l-1.1-3.52h0Z"/><path class="cls-29" d="M227.78,480a4.2,4.2,0,0,1-1.15,3.05,4.05,4.05,0,0,1-3,1.19,4,4,0,0,1-3-1.2,4.24,4.24,0,0,1-1.15-3v-1.79a4.23,4.23,0,0,1,1.15-3,4,4,0,0,1,3-1.2,4,4,0,0,1,3,1.2,4.2,4.2,0,0,1,1.16,3Zm-2-1.81a3.08,3.08,0,0,0-.58-1.91,1.94,1.94,0,0,0-1.62-.75,1.88,1.88,0,0,0-1.58.75,3.13,3.13,0,0,0-.56,1.91V480A3.13,3.13,0,0,0,222,482a2.07,2.07,0,0,0,3.19,0,3.07,3.07,0,0,0,.58-1.94Z"/><path class="cls-30" d="M232.87,484.13v-10h3.48a4.12,4.12,0,0,1,3,1.17,4,4,0,0,1,1.18,3V480a4,4,0,0,1-1.18,3,4.16,4.16,0,0,1-3,1.16Zm2-8.44v6.9h1.48a1.93,1.93,0,0,0,1.59-.74,2.88,2.88,0,0,0,.6-1.88V478.3a2.88,2.88,0,0,0-.6-1.88,2,2,0,0,0-1.59-.73Z"/><path class="cls-31" d="M244.42,486.49h-2.24v-1.65h2.24Zm-.12-2.36h-2v-10h2Z"/><path class="cls-32" d="M253.77,480.82v0a3.16,3.16,0,0,1-1,2.51,4,4,0,0,1-2.77.9,3.83,3.83,0,0,1-2.9-1.15,4.18,4.18,0,0,1-1.1-3v-2a4.26,4.26,0,0,1,1.07-3,3.69,3.69,0,0,1,2.83-1.16,4.21,4.21,0,0,1,2.85.89,3.06,3.06,0,0,1,1,2.51v0h-1.95a1.66,1.66,0,0,0-1.89-1.9,1.59,1.59,0,0,0-1.4.73,3.16,3.16,0,0,0-.51,1.87v2a3.14,3.14,0,0,0,.53,1.88,2,2,0,0,0,2.82.26,2,2,0,0,0,.45-1.45Z"/><path class="cls-33" d="M263.28,484.13h-2V480h-4.06v4.15h-2v-10h2v4.3h4.06v-4.3h2Z"/><path class="cls-34" d="M189.62,499.31h-3.21v9.48h-2.25v-9.48H181v-1.74h8.62Z"/><path class="cls-35" d="M199.92,508.79h-2.25v-4.66H193.1v4.66h-2.25V497.57h2.25v4.83h4.57v-4.83h2.25Z"/><path class="cls-36" d="M208,506.37h-3.64l-.75,2.42h-2.35L205,497.57h2.31l3.77,11.22h-2.36Zm-.77-9.91h-1.93l-2.1-2,0,0h2.5Zm-2.31,8.15h2.53l-1.24-3.95h0Z"/><path class="cls-37" d="M221.24,508.79H219l-4.53-7.56h0v7.56h-2.26V497.57h2.26l4.52,7.56H219v-7.55h2.25Z"/><path class="cls-38" d="M232.37,508.79h-2.25v-4.66h-4.57v4.66H223.3V497.57h2.25v4.83h4.57v-4.83h2.25Z"/><path class="cls-39" d="M246.78,505.08l0,0a3.56,3.56,0,0,1-1.1,2.82,4.45,4.45,0,0,1-3.11,1,4.29,4.29,0,0,1-3.25-1.29,4.67,4.67,0,0,1-1.25-3.36v-2.23a4.77,4.77,0,0,1,1.21-3.35,4.15,4.15,0,0,1,3.18-1.31,4.77,4.77,0,0,1,3.2,1,3.43,3.43,0,0,1,1.13,2.82v0h-2.19a2.26,2.26,0,0,0-.52-1.61,2.2,2.2,0,0,0-1.61-.52,1.83,1.83,0,0,0-1.58.81,3.57,3.57,0,0,0-.56,2.1v2.24a3.54,3.54,0,0,0,.59,2.11,1.94,1.94,0,0,0,1.66.82,2,2,0,0,0,1.51-.53,2.29,2.29,0,0,0,.5-1.62Z"/><path class="cls-40" d="M257.49,504.19a4.71,4.71,0,0,1-1.31,3.42,4.5,4.5,0,0,1-3.39,1.34,4.44,4.44,0,0,1-3.37-1.34,4.72,4.72,0,0,1-1.3-3.42v-2a4.76,4.76,0,0,1,1.29-3.41,4.44,4.44,0,0,1,3.37-1.35,4.54,4.54,0,0,1,3.4,1.35,4.73,4.73,0,0,1,1.31,3.41Zm-1.82-8v.17h-1.78l-1.08-1-1.07,1H250v-.2l2.17-1.85h1.3Zm-.43,6a3.42,3.42,0,0,0-.65-2.15,2.17,2.17,0,0,0-1.81-.84A2.1,2.1,0,0,0,251,500a3.48,3.48,0,0,0-.64,2.15v2a3.55,3.55,0,0,0,.64,2.18,2.34,2.34,0,0,0,3.59,0,3.43,3.43,0,0,0,.65-2.18Z"/><path class="cls-41" d="M268.33,508.79h-2.25l-4.52-7.56h-.05v7.56h-2.25V497.57h2.25l4.53,7.56h0v-7.55h2.25Z"/><path class="cls-42" d="M279,507.26a4.29,4.29,0,0,1-1.56,1.19,6.15,6.15,0,0,1-2.69.5,4.53,4.53,0,0,1-3.33-1.28,4.45,4.45,0,0,1-1.29-3.32V502a4.56,4.56,0,0,1,1.26-3.32,4.32,4.32,0,0,1,3.23-1.28,4.59,4.59,0,0,1,3.15,1,3.17,3.17,0,0,1,1.05,2.6v0h-2.12a1.83,1.83,0,0,0-.52-1.39,2.07,2.07,0,0,0-1.5-.49,2,2,0,0,0-1.67.79,3.22,3.22,0,0,0-.63,2.06v2.35a3.23,3.23,0,0,0,.65,2.08,2.12,2.12,0,0,0,1.73.8,4.22,4.22,0,0,0,1.27-.16,2,2,0,0,0,.72-.41v-2.18h-2.16v-1.55H279Z"/><path class="cls-43" d="M187.22,372.29h-2l-3.16-5.45,0,0v5.43h-2v-8.66h2l3.17,5.44h0v-5.43h2Z"/><path class="cls-44" d="M195.82,372.29h-2v-3.48h-3.2v3.48h-2v-8.66h2v3.63h3.2v-3.63h2Z"/><path class="cls-45" d="M199.32,372.29h-2v-8.66h2Z"/><path class="cls-46" d="M201.63,361.94h-1.37L199,360.3h1.77Zm4.26,6.65h-3v2.15h3.65v1.55h-5.66v-8.66h5.67v1.55h-3.66V367h3Zm.39-5.68v0h-1.75l-.86-.81-.87.81h-1.74v0l1.79-1.49h1.66Z"/><path class="cls-47" d="M214.72,363.63v5.62a2.88,2.88,0,0,1-1,2.32,4.4,4.4,0,0,1-5.17,0,2.88,2.88,0,0,1-1-2.32v-5.62h2v5.62a1.61,1.61,0,0,0,.41,1.21,1.58,1.58,0,0,0,1.15.41,1.54,1.54,0,0,0,1.14-.41,1.64,1.64,0,0,0,.41-1.21v-5.62Z"/><path class="cls-48" d="M221.09,369.32v3h-2v-8.66h3.31a3.61,3.61,0,0,1,2.44.79,2.81,2.81,0,0,1,0,4.12,3.61,3.61,0,0,1-2.44.78Zm0-1.54h1.3a1.33,1.33,0,0,0,1-.36,1.29,1.29,0,0,0,.34-.93,1.31,1.31,0,0,0-.34-.94,1.28,1.28,0,0,0-1-.37h-1.3Z"/><path class="cls-49" d="M234.06,372.29h-2v-3.48h-3.2v3.48h-2v-8.66h2v3.63h3.2v-3.63h2Z"/><path class="cls-50" d="M236.72,361.94h-1.37l-1.3-1.64h1.77Zm3.36,8.67h-2.57l-.5,1.68h-2.12l2.82-8.66h2.16l2.83,8.66h-2.11Zm1.29-7.7v0h-1.75l-.86-.81-.86.81h-1.75v0l1.79-1.49h1.66Zm-3.4,6.15h1.65l-.81-2.68h0Z"/><path class="cls-51" d="M250.54,372.29h-2l-3.17-5.45,0,0v5.43h-2v-8.66h2l3.17,5.44h0v-5.43h2Z"/><path class="cls-52" d="M262.15,368.74a3.91,3.91,0,0,1-.18,1.2,3.7,3.7,0,0,1-.49,1l1.3,1.32-1.29,1L260.24,372a3.91,3.91,0,0,1-.83.3,4.59,4.59,0,0,1-.93.09,3.51,3.51,0,0,1-3.69-3.67v-1.56a3.53,3.53,0,0,1,3.68-3.67,3.54,3.54,0,0,1,3.68,3.67Zm-2-1.57a2.51,2.51,0,0,0-.43-1.52,1.45,1.45,0,0,0-1.24-.59,1.42,1.42,0,0,0-1.24.59,2.49,2.49,0,0,0-.44,1.52v1.57a2.55,2.55,0,0,0,.44,1.54,1.47,1.47,0,0,0,1.25.59,1.45,1.45,0,0,0,1.23-.59,2.55,2.55,0,0,0,.43-1.54Z"/><path class="cls-53" d="M270.65,363.63v5.62a2.88,2.88,0,0,1-1,2.32,3.77,3.77,0,0,1-2.57.84,3.85,3.85,0,0,1-2.6-.84,2.88,2.88,0,0,1-1-2.32v-5.62h2v5.62a1.44,1.44,0,0,0,1.57,1.62,1.58,1.58,0,0,0,1.14-.41,1.64,1.64,0,0,0,.4-1.21v-5.62Z"/><path class="cls-54" d="M276.38,370.61H273.8l-.5,1.68h-2.11l2.82-8.66h2.16l2.83,8.66h-2.12Zm-.32-7.83h-1.77l-1.68-1.54v0h2.2Zm-1.79,6.28h1.65l-.81-2.68h0Z"/><path class="cls-55" d="M209.26,385.86h0l1.39-4.32h1.89v6.17h-1.43v-4h0l-1.36,4h-1l-1.33-3.92h0v3.92H206v-6.17h1.88Z"/><path class="cls-56" d="M216.86,386.51H215l-.35,1.2h-1.51l2-6.17h1.54l2,6.17h-1.51Zm-1.5-1.1h1.17l-.58-1.92h0Z"/><path class="cls-57" d="M220.61,384.24h0l1.23-2.7h1.55l-2.09,4v2.17h-1.43v-2.23l-2.06-3.94h1.55Z"/><path class="cls-58" d="M229.3,385.86h0l1.4-4.32h1.89v6.17h-1.43v-4h0l-1.36,4h-1l-1.33-3.92h0v3.92H226v-6.17h1.88Z"/><path class="cls-59" d="M236.89,386.51h-1.83l-.36,1.2h-1.5l2-6.17h1.54l2,6.17h-1.51Zm.51-6.32v0a.88.88,0,0,1-.4.78,2.3,2.3,0,0,1-2.27,0,.85.85,0,0,1-.39-.78v0h1a.36.36,0,0,0,.12.28.57.57,0,0,0,.38.11.56.56,0,0,0,.37-.11.36.36,0,0,0,.12-.28Zm-2,5.22h1.17l-.57-1.92h0Zm.66-6.19h1l0,0-.75.75h-.79Z"/><path class="cls-60" d="M244.34,387.71h-1.42l-2.26-3.88h0v3.87H239.2v-6.17h1.43l2.26,3.88h0v-3.87h1.42Z"/><path class="cls-61" d="M179,405.44v-5.37h2a2.22,2.22,0,0,1,1.59.62,2.12,2.12,0,0,1,.63,1.58v1a2.12,2.12,0,0,1-.63,1.58,2.22,2.22,0,0,1-1.59.62Zm1.24-4.41v3.45H181a.85.85,0,0,0,.7-.35,1.41,1.41,0,0,0,.28-.89v-1a1.38,1.38,0,0,0-.28-.88.85.85,0,0,0-.7-.35Z"/><path class="cls-62" d="M186.66,404.39h-1.6l-.31,1.05h-1.31l1.75-5.37h1.34l1.75,5.37H187Zm-.2-4.84h-1.1l-1-1v0h1.36Zm-1.11,3.89h1l-.5-1.67h0Z"/><path class="cls-63" d="M193.14,405.44h-1.25l-2-3.38h0v3.37h-1.25v-5.37h1.25l2,3.37h0v-3.37h1.25Z"/><path class="cls-64" d="M198.46,405.44h-1.24v-2.16h-2v2.16H194v-5.37h1.24v2.25h2v-2.25h1.24Z"/><path class="cls-65" d="M205.31,403.63v0a1.75,1.75,0,0,1-.52,1.39,2.22,2.22,0,0,1-3.71-1.73v-1.12a2.21,2.21,0,0,1,.58-1.58,2,2,0,0,1,1.54-.61,2.32,2.32,0,0,1,1.57.47,1.66,1.66,0,0,1,.55,1.38v0h-1.21a1,1,0,0,0-.21-.7.91.91,0,0,0-.69-.22.75.75,0,0,0-.65.34,1.6,1.6,0,0,0-.22.9v1.12a1.56,1.56,0,0,0,.24.91.85.85,0,0,0,.71.34.8.8,0,0,0,.62-.22,1.1,1.1,0,0,0,.19-.71Z"/><path class="cls-66" d="M210.48,405.44h-1.24v-2.16h-2v2.16H206v-5.37h1.24v2.25h2v-2.25h1.24Z"/><path class="cls-67" d="M215.79,403.24a2.23,2.23,0,0,1-.63,1.63,2.29,2.29,0,0,1-3.93-1.63v-1a2.23,2.23,0,0,1,.63-1.63,2.29,2.29,0,0,1,3.93,1.63Zm-1.24-1a1.56,1.56,0,0,0-.27-.94,1,1,0,0,0-1.54,0,1.54,1.54,0,0,0-.27.94v1a1.57,1.57,0,0,0,.27.95.92.92,0,0,0,.78.37.9.9,0,0,0,.76-.37,1.57,1.57,0,0,0,.27-.95Z"/><rect class="cls-68" x="171.5" y="326.5" width="117" height="214" rx="8.67" ry="8.67"/></svg>