<svg id="Layer_1" data-name="Layer 1" xmlns="http://www.w3.org/2000/svg" xmlns:xlink="http://www.w3.org/1999/xlink" viewBox="0 0 300 600"><defs><style>.cls-1{fill:#fff;}.cls-2{fill:url(#linear-gradient);}.cls-3{fill:url(#linear-gradient-2);}.cls-4{fill:url(#linear-gradient-3);}.cls-5{fill:url(#linear-gradient-4);}.cls-6{fill:url(#linear-gradient-5);}.cls-7{fill:url(#linear-gradient-6);}.cls-8{fill:url(#linear-gradient-7);}.cls-9{fill:url(#linear-gradient-8);}.cls-10{fill:url(#linear-gradient-9);}.cls-11{fill:url(#linear-gradient-10);}.cls-12{fill:url(#linear-gradient-11);}.cls-13{fill:url(#linear-gradient-12);}.cls-14{fill:url(#linear-gradient-13);}.cls-15{fill:url(#linear-gradient-14);}.cls-16{fill:url(#linear-gradient-15);}.cls-17{fill:url(#linear-gradient-16);}.cls-18{fill:url(#linear-gradient-17);}.cls-19{fill:url(#linear-gradient-18);}.cls-20{fill:url(#linear-gradient-19);}.cls-21{fill:url(#linear-gradient-20);}.cls-22{fill:url(#linear-gradient-21);}.cls-23{fill:url(#linear-gradient-22);}.cls-24{fill:url(#linear-gradient-23);}.cls-25{fill:url(#linear-gradient-24);}.cls-26{fill:url(#linear-gradient-25);}.cls-27{fill:url(#linear-gradient-26);}.cls-28{fill:url(#linear-gradient-27);}.cls-29{fill:url(#linear-gradient-28);}.cls-30{fill:url(#linear-gradient-29);}.cls-31{fill:url(#linear-gradient-30);}.cls-32{fill:url(#linear-gradient-31);}.cls-33{fill:url(#linear-gradient-32);}.cls-34{fill:url(#linear-gradient-33);}.cls-35{fill:url(#linear-gradient-34);}.cls-36{fill:url(#linear-gradient-35);}.cls-37{fill:url(#linear-gradient-36);}.cls-38{fill:url(#linear-gradient-37);}.cls-39,.cls-40{fill:none;stroke-miterlimit:10;}.cls-39{stroke:url(#linear-gradient-38);}.cls-40{stroke:url(#linear-gradient-39);}</style><linearGradient id="linear-gradient" x1="227.46" y1="308.06" x2="46.01" y2="499.63" gradientUnits="userSpaceOnUse"><stop offset="0" stop-color="#edc87e"/><stop offset="0.33" stop-color="#e2bb75"/><stop offset="0.46" stop-color="#f2eac3"/><stop offset="0.58" stop-color="#e2bb75"/><stop offset="1" stop-color="#e2bb75"/></linearGradient><linearGradient id="linear-gradient-2" x1="231.11" y1="311.52" x2="49.66" y2="503.09" xlink:href="#linear-gradient"/><linearGradient id="linear-gradient-3" x1="234.38" y1="314.61" x2="52.93" y2="506.18" xlink:href="#linear-gradient"/><linearGradient id="linear-gradient-4" x1="238.02" y1="318.06" x2="56.57" y2="509.63" xlink:href="#linear-gradient"/><linearGradient id="linear-gradient-5" x1="242.3" y1="322.11" x2="60.85" y2="513.69" xlink:href="#linear-gradient"/><linearGradient id="linear-gradient-6" x1="245.69" y1="325.32" x2="64.24" y2="516.9" xlink:href="#linear-gradient"/><linearGradient id="linear-gradient-7" x1="249.91" y1="329.32" x2="68.46" y2="520.89" xlink:href="#linear-gradient"/><linearGradient id="linear-gradient-8" x1="254.57" y1="333.74" x2="73.12" y2="525.31" xlink:href="#linear-gradient"/><linearGradient id="linear-gradient-9" x1="260.6" y1="339.44" x2="79.15" y2="531.02" xlink:href="#linear-gradient"/><linearGradient id="linear-gradient-10" x1="265.25" y1="343.85" x2="83.81" y2="535.43" xlink:href="#linear-gradient"/><linearGradient id="linear-gradient-11" x1="267.22" y1="345.72" x2="85.77" y2="537.29" xlink:href="#linear-gradient"/><linearGradient id="linear-gradient-12" x1="272.2" y1="350.43" x2="90.75" y2="542" xlink:href="#linear-gradient"/><linearGradient id="linear-gradient-13" x1="277.56" y1="355.51" x2="96.12" y2="547.09" xlink:href="#linear-gradient"/><linearGradient id="linear-gradient-14" x1="279.74" y1="357.57" x2="98.29" y2="549.14" xlink:href="#linear-gradient"/><linearGradient id="linear-gradient-15" x1="283.07" y1="360.72" x2="101.62" y2="552.3" xlink:href="#linear-gradient"/><linearGradient id="linear-gradient-16" x1="221.3" y1="302.22" x2="39.85" y2="493.79" xlink:href="#linear-gradient"/><linearGradient id="linear-gradient-17" x1="225.37" y1="306.08" x2="43.92" y2="497.65" xlink:href="#linear-gradient"/><linearGradient id="linear-gradient-18" x1="229.95" y1="310.41" x2="48.5" y2="501.99" xlink:href="#linear-gradient"/><linearGradient id="linear-gradient-19" x1="235.22" y1="315.4" x2="53.76" y2="506.98" xlink:href="#linear-gradient"/><linearGradient id="linear-gradient-20" x1="239.12" y1="319.1" x2="57.67" y2="510.67" xlink:href="#linear-gradient"/><linearGradient id="linear-gradient-21" x1="242.6" y1="322.4" x2="61.15" y2="513.97" xlink:href="#linear-gradient"/><linearGradient id="linear-gradient-22" x1="245.27" y1="324.92" x2="63.82" y2="516.5" xlink:href="#linear-gradient"/><linearGradient id="linear-gradient-23" x1="248.85" y1="328.31" x2="67.4" y2="519.89" xlink:href="#linear-gradient"/><linearGradient id="linear-gradient-24" x1="253.41" y1="332.63" x2="71.96" y2="524.21" xlink:href="#linear-gradient"/><linearGradient id="linear-gradient-25" x1="256.9" y1="335.94" x2="75.45" y2="527.52" xlink:href="#linear-gradient"/><linearGradient id="linear-gradient-26" x1="260.48" y1="339.33" x2="79.03" y2="530.91" xlink:href="#linear-gradient"/><linearGradient id="linear-gradient-27" x1="263.63" y1="342.31" x2="82.18" y2="533.89" xlink:href="#linear-gradient"/><linearGradient id="linear-gradient-28" x1="267.41" y1="345.9" x2="85.97" y2="537.47" xlink:href="#linear-gradient"/><linearGradient id="linear-gradient-29" x1="271.38" y1="349.66" x2="89.94" y2="541.23" xlink:href="#linear-gradient"/><linearGradient id="linear-gradient-30" x1="274.91" y1="353" x2="93.46" y2="544.57" xlink:href="#linear-gradient"/><linearGradient id="linear-gradient-31" x1="278.56" y1="356.46" x2="97.11" y2="548.03" xlink:href="#linear-gradient"/><linearGradient id="linear-gradient-32" x1="281.94" y1="359.66" x2="100.49" y2="551.23" xlink:href="#linear-gradient"/><linearGradient id="linear-gradient-33" x1="288.56" y1="365.93" x2="107.12" y2="557.51" xlink:href="#linear-gradient"/><linearGradient id="linear-gradient-34" x1="292.7" y1="369.85" x2="111.25" y2="561.42" xlink:href="#linear-gradient"/><linearGradient id="linear-gradient-35" x1="296.07" y1="373.04" x2="114.62" y2="564.62" xlink:href="#linear-gradient"/><linearGradient id="linear-gradient-36" x1="299.8" y1="376.57" x2="118.35" y2="568.14" xlink:href="#linear-gradient"/><linearGradient id="linear-gradient-37" x1="304.37" y1="380.9" x2="122.92" y2="572.47" xlink:href="#linear-gradient"/><linearGradient id="linear-gradient-38" x1="65.87" y1="307.58" x2="239.29" y2="307.58" gradientUnits="userSpaceOnUse"><stop offset="0" stop-color="#e2bb75" stop-opacity="0"/><stop offset="0.46" stop-color="#f2eac3"/><stop offset="1" stop-color="#e2bb75" stop-opacity="0"/></linearGradient><linearGradient id="linear-gradient-39" x1="65.87" y1="481" x2="239.29" y2="481" xlink:href="#linear-gradient-38"/></defs><title>thoigian</title><path class="cls-1" d="M118.79,392a5.85,5.85,0,0,1-1.38,4.12,5.24,5.24,0,0,1-7.34,0,5.81,5.81,0,0,1-1.39-4.12v-4.12a5.89,5.89,0,0,1,1.38-4.13,5.21,5.21,0,0,1,7.34,0,5.85,5.85,0,0,1,1.39,4.13Zm-3-4.43a3.93,3.93,0,0,0-.54-2.23,1.78,1.78,0,0,0-1.53-.79,1.74,1.74,0,0,0-1.52.79,3.93,3.93,0,0,0-.54,2.23v4.71a4,4,0,0,0,.54,2.26,1.77,1.77,0,0,0,1.54.78,1.75,1.75,0,0,0,1.52-.78,4,4,0,0,0,.53-2.26Z"/><path class="cls-1" d="M131,384.74a19.42,19.42,0,0,0-3.45,5.34,15.12,15.12,0,0,0-.91,5.45v1.85h-3v-1.85a13.87,13.87,0,0,1,1.14-5.69,20.75,20.75,0,0,1,3.34-5.1H120.5v-2.31H131Z"/><path class="cls-1" d="M136.31,388.38h-3v-2.62h3Zm0,9h-3v-2.63h3Z"/><path class="cls-1" d="M143.75,388.59a2.09,2.09,0,0,0,1.59-.56,2.21,2.21,0,0,0,.52-1.56,1.92,1.92,0,0,0-.55-1.39,2,2,0,0,0-1.52-.56,2,2,0,0,0-1.38.51,1.64,1.64,0,0,0-.56,1.28H139l0-.06a3.39,3.39,0,0,1,1.35-2.9,5.41,5.41,0,0,1,3.5-1.14,5.73,5.73,0,0,1,3.69,1.1,3.77,3.77,0,0,1,1.36,3.13,3.21,3.21,0,0,1-.59,1.89,4,4,0,0,1-1.61,1.35,3.7,3.7,0,0,1,1.8,1.34,3.62,3.62,0,0,1,.64,2.17,3.93,3.93,0,0,1-1.48,3.23,6.54,6.54,0,0,1-7.38.06,3.49,3.49,0,0,1-1.48-3.11l0-.06h2.92a1.86,1.86,0,0,0,.59,1.41,2.09,2.09,0,0,0,1.52.57,2.34,2.34,0,0,0,1.67-.6,2.05,2.05,0,0,0,.63-1.53,2.34,2.34,0,0,0-.59-1.75,2.44,2.44,0,0,0-1.75-.57H142.1v-2.25Z"/><path class="cls-1" d="M161,392a5.85,5.85,0,0,1-1.38,4.12,4.74,4.74,0,0,1-3.66,1.5,4.79,4.79,0,0,1-3.69-1.5,5.85,5.85,0,0,1-1.38-4.12v-4.12a5.89,5.89,0,0,1,1.38-4.13,5.21,5.21,0,0,1,7.34,0,5.89,5.89,0,0,1,1.39,4.13Zm-3-4.43a3.85,3.85,0,0,0-.55-2.23,1.87,1.87,0,0,0-3,0,3.93,3.93,0,0,0-.54,2.23v4.71a3.91,3.91,0,0,0,.55,2.26,1.76,1.76,0,0,0,1.54.78,1.73,1.73,0,0,0,1.51-.78,4,4,0,0,0,.54-2.26Z"/><path class="cls-1" d="M171.1,394.15h-4.84l-1,3.23h-3.13l5-14.95h3.07l5,14.95h-3.13ZM167,391.8h3.38l-1.65-5.26h-.06Z"/><path class="cls-1" d="M184.42,393.45h.06l3.84-11h3.91v14.95h-3V387.17h-.06l-3.69,10.22h-2l-3.69-10.24h-.07v10.23h-3V382.43h3.93Z"/><path class="cls-1" d="M87.78,412.77l0,0a3.14,3.14,0,0,1-1,2.5,3.94,3.94,0,0,1-2.75.9,3.81,3.81,0,0,1-2.9-1.15,4.15,4.15,0,0,1-1.1-3v-2a4.24,4.24,0,0,1,1.07-3A3.65,3.65,0,0,1,84,406a4.16,4.16,0,0,1,2.85.89,3.07,3.07,0,0,1,1,2.5v0h-2a1.94,1.94,0,0,0-.46-1.42A1.9,1.9,0,0,0,84,407.5a1.62,1.62,0,0,0-1.4.72,3.23,3.23,0,0,0-.5,1.87v2a3.11,3.11,0,0,0,.53,1.87,1.72,1.72,0,0,0,1.48.73,1.75,1.75,0,0,0,1.33-.47,2,2,0,0,0,.44-1.44Z"/><path class="cls-1" d="M97.28,416.07h-2v-4.14H91.22v4.14h-2v-10h2v4.29h4.06V406.1h2Z"/><path class="cls-1" d="M107,406.1v6.52a3.28,3.28,0,0,1-1.11,2.64,4.33,4.33,0,0,1-2.9.95,4.25,4.25,0,0,1-2.87-.95A3.28,3.28,0,0,1,99,412.62V406.1h2v6.52a2,2,0,0,0,.53,1.53,2,2,0,0,0,1.44.53,1.86,1.86,0,0,0,2-2.06V406.1Zm-4.74-.89-.11-.94a1.88,1.88,0,0,0,.72-.12.28.28,0,0,0,.19-.31v0a.3.3,0,0,0-.22-.34,1.94,1.94,0,0,0-.72-.11l.05-.91a4.19,4.19,0,0,1,1.94.36,1.07,1.07,0,0,1,.67,1,.87.87,0,0,1-.29.69,1.46,1.46,0,0,1-.74.31v.44Z"/><path class="cls-1" d="M120.29,416.07h-2l-4-6.72h0v6.72h-2v-10h2l4,6.72h0V406.1h2Z"/><path class="cls-1" d="M130.18,416.07h-2v-4.14h-4.05v4.14h-2v-10h2v4.29h4.05V406.1h2Z"/><path class="cls-1" d="M137.34,413.92h-3.23l-.68,2.15h-2.08l3.36-10h2l3.35,10H138Zm.9-8.91v.16h-1.59l-1-.91-.95.91h-1.55V405l1.93-1.64h1.16Zm-3.64,7.34h2.25l-1.1-3.51h0Zm2.24,6.14H134.6v-1.65h2.24Z"/><path class="cls-1" d="M147.4,407.64h-2.85v8.43h-2v-8.43h-2.8V406.1h7.65Z"/><path class="cls-1" d="M148.66,416l-1.08,2.15h-1.34l.48-2.21v-1.56h1.94Z"/><path class="cls-1" d="M158.36,416.07h-2v-8.23h-2.06v-1.53l4.05-.35Z"/><path class="cls-1" d="M166.4,416.07h-2v-8.23h-2.06v-1.53l4.05-.35Z"/><path class="cls-1" d="M172,416.07h-2v-1.75h2Z"/><path class="cls-1" d="M178.53,416.07h-2v-8.23h-2.06v-1.53l4.06-.35Z"/><path class="cls-1" d="M186.57,416.07h-2v-8.23h-2.06v-1.53l4-.35Z"/><path class="cls-1" d="M192.15,416.07h-2v-1.75h2Z"/><path class="cls-1" d="M200.73,416.07H194v-1.31l3.09-3.49a7.39,7.39,0,0,0,1-1.38,2.22,2.22,0,0,0,.29-1,1.44,1.44,0,0,0-.31-1,1.11,1.11,0,0,0-.92-.37,1.21,1.21,0,0,0-1,.47,2,2,0,0,0-.35,1.2h-1.95v0a3,3,0,0,1,.88-2.25,3.28,3.28,0,0,1,2.44-.92,3.38,3.38,0,0,1,2.38.78,2.72,2.72,0,0,1,.85,2.11,3,3,0,0,1-.47,1.63,18.62,18.62,0,0,1-1.64,2l-1.65,2,0,0h4.07Z"/><path class="cls-1" d="M208.68,412.46a3.91,3.91,0,0,1-.92,2.75,3.5,3.5,0,0,1-4.9,0,3.86,3.86,0,0,1-.93-2.75v-2.74a4,4,0,0,1,.92-2.76,3.5,3.5,0,0,1,4.9,0,3.92,3.92,0,0,1,.93,2.76Zm-2-2.95a2.59,2.59,0,0,0-.36-1.48,1.16,1.16,0,0,0-1-.53,1.13,1.13,0,0,0-1,.53,2.59,2.59,0,0,0-.36,1.48v3.14a2.62,2.62,0,0,0,.36,1.5,1.25,1.25,0,0,0,2,0,2.7,2.7,0,0,0,.35-1.5Z"/><path class="cls-1" d="M214.77,416.07h-2v-8.23h-2.06v-1.53l4.05-.35Z"/><path class="cls-1" d="M224.6,408.69a2.27,2.27,0,0,1-.39,1.31,2.49,2.49,0,0,1-1.05.89,3.17,3.17,0,0,1,1.29,1,2.31,2.31,0,0,1,.48,1.44,2.6,2.6,0,0,1-1,2.15,3.83,3.83,0,0,1-2.46.77,4.11,4.11,0,0,1-2.57-.77,2.55,2.55,0,0,1-1-2.15,2.27,2.27,0,0,1,.5-1.44,3.28,3.28,0,0,1,1.34-1,2.57,2.57,0,0,1-1.1-.89,2.21,2.21,0,0,1-.4-1.31,2.4,2.4,0,0,1,.89-2,3.63,3.63,0,0,1,2.34-.71,3.35,3.35,0,0,1,2.23.71A2.45,2.45,0,0,1,224.6,408.69Zm-1.67,4.5a1.49,1.49,0,0,0-.41-1.09,1.4,1.4,0,0,0-1-.43,1.58,1.58,0,0,0-1.12.43,1.44,1.44,0,0,0-.44,1.09,1.36,1.36,0,0,0,.44,1.08,1.6,1.6,0,0,0,1.13.41,1.39,1.39,0,0,0,1-.41A1.44,1.44,0,0,0,222.93,413.19Zm-.33-4.41a1.4,1.4,0,0,0-.3-.94,1,1,0,0,0-.8-.34,1.18,1.18,0,0,0-.9.34,1.29,1.29,0,0,0-.34.94,1.4,1.4,0,0,0,.35,1,1.15,1.15,0,0,0,.9.37,1,1,0,0,0,.79-.37A1.49,1.49,0,0,0,222.6,408.78Z"/><path class="cls-2" d="M105.1,438.46h-2.34v8.46h-1.93v-8.46H98.55V437h6.55Z"/><path class="cls-3" d="M108.86,441.18l-.66,0a.84.84,0,0,0-.53.17,1,1,0,0,0-.33.48v5.11h-1.93v-7.41h1.8l.08,1.05a2.23,2.23,0,0,1,.54-.87,1.08,1.08,0,0,1,.77-.31.86.86,0,0,1,.23,0l.23.06Z"/><path class="cls-4" d="M113.63,445.86a2.45,2.45,0,0,1-.74.89,1.71,1.71,0,0,1-1,.31,1.8,1.8,0,0,1-1.57-.8,4.22,4.22,0,0,1-.58-2.48v-4.27h1.93v4.29a3.29,3.29,0,0,0,.2,1.37.65.65,0,0,0,.61.38,1.22,1.22,0,0,0,.59-.13,1.17,1.17,0,0,0,.43-.37v-5.54h1.94v7.41h-1.58Z"/><path class="cls-5" d="M118.44,439.51l.08,1a2.62,2.62,0,0,1,.77-.87,1.8,1.8,0,0,1,1-.3,1.73,1.73,0,0,1,1.48.73,3.93,3.93,0,0,1,.54,2.31v4.5H120.4v-4.5a2.43,2.43,0,0,0-.21-1.18.65.65,0,0,0-.61-.35,1.15,1.15,0,0,0-.58.16,1.32,1.32,0,0,0-.43.42v5.45h-1.93v-7.41Z"/><path class="cls-6" d="M123.32,443.26a5.42,5.42,0,0,1,.65-2.82,2,2,0,0,1,1.84-1.06,1.6,1.6,0,0,1,.9.25,2.26,2.26,0,0,1,.67.73l.14-.85h1.67v7.37a2.94,2.94,0,0,1-.84,2.24,3.31,3.31,0,0,1-2.35.79,4,4,0,0,1-1-.15,5.06,5.06,0,0,1-1-.41l.32-1.47a3.7,3.7,0,0,0,.82.33,3.29,3.29,0,0,0,.91.11,1.2,1.2,0,0,0,1-.35,1.62,1.62,0,0,0,.31-1.1v-.55a1.75,1.75,0,0,1-.64.55,1.64,1.64,0,0,1-.81.19,2,2,0,0,1-1.83-1,4.85,4.85,0,0,1-.65-2.66Zm1.93.14a4.16,4.16,0,0,0,.24,1.58.83.83,0,0,0,.81.57,1.15,1.15,0,0,0,.57-.14,1,1,0,0,0,.38-.39v-3.51a1.15,1.15,0,0,0-.39-.45.94.94,0,0,0-.55-.17.86.86,0,0,0-.81.65,4.81,4.81,0,0,0-.25,1.72Z"/><path class="cls-7" d="M139.69,438.46h-2.34v8.46h-1.94v-8.46h-2.28V437h6.56Z"/><path class="cls-8" d="M143.44,446.92a2.37,2.37,0,0,1-.18-.53,4.08,4.08,0,0,1-.11-.59,2.55,2.55,0,0,1-.65.91,1.43,1.43,0,0,1-1,.35,2,2,0,0,1-1.56-.59,2.31,2.31,0,0,1-.54-1.62,2.1,2.1,0,0,1,.71-1.69,3.33,3.33,0,0,1,2.14-.59h.85V442a1.46,1.46,0,0,0-.21-.85.69.69,0,0,0-.61-.3.63.63,0,0,0-.54.24,1.12,1.12,0,0,0-.19.68h-1.86v0a2,2,0,0,1,.72-1.63,2.88,2.88,0,0,1,2-.67,2.67,2.67,0,0,1,1.9.67,2.47,2.47,0,0,1,.73,1.91v3a6.24,6.24,0,0,0,.07,1,6.31,6.31,0,0,0,.23.93Zm1.22-8.85v.16h-1.5l-.8-.93-.79.93h-1.48v-.18l1.73-1.62h1.09ZM142,445.63a1.09,1.09,0,0,0,.68-.23,1.19,1.19,0,0,0,.42-.58v-1.16h-.85a.82.82,0,0,0-.71.32,1.39,1.39,0,0,0-.22.79.94.94,0,0,0,.19.62A.58.58,0,0,0,142,445.63Z"/><path class="cls-9" d="M148.09,439.51l.08.95a2.31,2.31,0,0,1,.75-.8,1.94,1.94,0,0,1,1.05-.28,1.67,1.67,0,0,1,1,.3,1.82,1.82,0,0,1,.65.93,2.46,2.46,0,0,1,.76-.91,1.81,1.81,0,0,1,1.08-.32,1.7,1.7,0,0,1,1.47.78,4.22,4.22,0,0,1,.54,2.39v4.37h-1.93v-4.37a3,3,0,0,0-.2-1.3.64.64,0,0,0-.61-.36.83.83,0,0,0-.53.18,1.31,1.31,0,0,0-.38.48c0,.12,0,.22,0,.3a1.93,1.93,0,0,1,0,.24v4.83h-1.92v-4.37a3,3,0,0,0-.2-1.29.67.67,0,0,0-.62-.37,1,1,0,0,0-.5.14,1.33,1.33,0,0,0-.38.4v5.49h-1.93v-7.41Z"/><path class="cls-10" d="M167.05,446.92h-1.92v-4.16h-3.21v4.16H160V437h1.93v4.31h3.21V437h1.92Z"/><path class="cls-11" d="M168.23,443.15a4.37,4.37,0,0,1,.8-2.72,2.91,2.91,0,0,1,4.48,0,4.31,4.31,0,0,1,.81,2.72v.16a4.36,4.36,0,0,1-.8,2.71,2.94,2.94,0,0,1-4.49,0,4.34,4.34,0,0,1-.8-2.71Zm5.34-5.08v.16h-1.51l-.79-.93-.79.93H169v-.18l1.73-1.62h1.09Zm-3.42,5.24a4.36,4.36,0,0,0,.26,1.64.9.9,0,0,0,.87.61.88.88,0,0,0,.85-.61,4.17,4.17,0,0,0,.26-1.64v-.16a4.17,4.17,0,0,0-.26-1.64.91.91,0,0,0-1.72,0,4.4,4.4,0,0,0-.26,1.64Zm2.19,6.07h-2.15v-1.62h2.15Z"/><path class="cls-12" d="M177.39,437.71h-1.93v-1.47h1.93Zm0,9.21h-1.93v-7.41h1.93Z"/><path class="cls-13" d="M189.06,446.92h-1.93L184,440.56h0v6.35H182V437h1.93l3.16,6.37h0V437h1.93Z"/><path class="cls-14" d="M190.22,443.26a5.33,5.33,0,0,1,.65-2.82,2,2,0,0,1,1.84-1.06,1.6,1.6,0,0,1,.9.25,2.26,2.26,0,0,1,.67.73l.13-.85h1.68v7.37a2.91,2.91,0,0,1-.85,2.24,3.27,3.27,0,0,1-2.34.79,4,4,0,0,1-1-.15,5.06,5.06,0,0,1-1-.41l.32-1.47a3.52,3.52,0,0,0,.82.33,3.29,3.29,0,0,0,.91.11,1.23,1.23,0,0,0,1-.35,1.62,1.62,0,0,0,.31-1.1v-.55a1.75,1.75,0,0,1-.64.55,1.68,1.68,0,0,1-.82.19,2,2,0,0,1-1.82-1,4.76,4.76,0,0,1-.65-2.66Zm1.93.14a4.16,4.16,0,0,0,.24,1.58.83.83,0,0,0,.81.57,1.15,1.15,0,0,0,.57-.14,1.09,1.09,0,0,0,.38-.39v-3.51a1.15,1.15,0,0,0-.39-.45.94.94,0,0,0-.55-.17.85.85,0,0,0-.81.65,4.81,4.81,0,0,0-.25,1.72Z"/><path class="cls-15" d="M199.25,440.41a2.24,2.24,0,0,1,.7-.76,1.65,1.65,0,0,1,.92-.27,1.86,1.86,0,0,1,1.57.78,4.08,4.08,0,0,1,.57,2.4v4.36h-1.93v-4.37a3,3,0,0,0-.2-1.29.69.69,0,0,0-.63-.37,1.18,1.18,0,0,0-.58.14,1.09,1.09,0,0,0-.42.38v5.51h-1.93V436.24h1.93Z"/><path class="cls-16" d="M206.4,449.25h-2.15v-1.62h2.15Zm-.11-11.54h-1.93v-1.47h1.93Zm0,9.21h-1.93v-7.41h1.93Z"/><path class="cls-17" d="M77.48,455.29H75.14v8.45H73.21v-8.45H70.93v-1.52h6.55Z"/><path class="cls-18" d="M80.18,457.23a2.27,2.27,0,0,1,.71-.76,1.64,1.64,0,0,1,.91-.27,1.85,1.85,0,0,1,1.57.78,4.08,4.08,0,0,1,.58,2.4v4.36H82v-4.37a2.84,2.84,0,0,0-.21-1.29.66.66,0,0,0-.62-.36,1.22,1.22,0,0,0-.59.13,1.18,1.18,0,0,0-.42.38v5.51H78.26V453.06h1.92Z"/><path class="cls-19" d="M88,463.89a2.71,2.71,0,0,1-2.27-1,4,4,0,0,1-.81-2.61V460a4.5,4.5,0,0,1,.78-2.73,2.54,2.54,0,0,1,2.18-1.05,2.42,2.42,0,0,1,2,.89,3.93,3.93,0,0,1,.7,2.44v1.06H86.89a2.53,2.53,0,0,0,.37,1.3,1.11,1.11,0,0,0,1,.49,3,3,0,0,0,1-.13,4.32,4.32,0,0,0,.83-.42l.5,1.2a3.38,3.38,0,0,1-1.07.61A4.33,4.33,0,0,1,88,463.89Zm-.12-6.18a.77.77,0,0,0-.72.43,2.89,2.89,0,0,0-.3,1.17h1.84v-.17a2.46,2.46,0,0,0-.19-1.05A.66.66,0,0,0,87.92,457.71Z"/><path class="cls-20" d="M99.26,461.59H96.77l-.56,2.15h-2l2.83-10h2l2.82,10h-2Zm-2.09-1.52h1.7L98,456.9h0Z"/><path class="cls-21" d="M102.27,460.08a5.39,5.39,0,0,1,.65-2.81,2,2,0,0,1,1.84-1.07,1.58,1.58,0,0,1,.81.21,2.13,2.13,0,0,1,.64.6v-3.95h1.93v10.68h-1.65l-.15-.83a2.11,2.11,0,0,1-.69.73,1.69,1.69,0,0,1-.9.25,2.06,2.06,0,0,1-1.83-1,4.85,4.85,0,0,1-.65-2.66Zm1.92.14a4.19,4.19,0,0,0,.24,1.58.85.85,0,0,0,.82.57,1.16,1.16,0,0,0,.56-.14,1.22,1.22,0,0,0,.4-.44v-3.4a1.33,1.33,0,0,0-.41-.49.89.89,0,0,0-.55-.18.86.86,0,0,0-.81.65,4.75,4.75,0,0,0-.25,1.71Z"/><path class="cls-22" d="M109.19,460a4.39,4.39,0,0,1,.8-2.72,2.91,2.91,0,0,1,4.48,0,4.33,4.33,0,0,1,.81,2.72v.16a4.34,4.34,0,0,1-.8,2.71,2.93,2.93,0,0,1-4.49,0,4.32,4.32,0,0,1-.8-2.71Zm1.92.16a4.33,4.33,0,0,0,.26,1.64.88.88,0,0,0,.87.61.87.87,0,0,0,.85-.61,4.14,4.14,0,0,0,.26-1.64V460a4.17,4.17,0,0,0-.26-1.64.91.91,0,0,0-1.72,0,4.4,4.4,0,0,0-.26,1.64Z"/><path class="cls-23" d="M119.78,458l-.66,0a.79.79,0,0,0-.53.17,1,1,0,0,0-.34.48v5.1h-1.92v-7.41h1.8l.08,1.05a2.31,2.31,0,0,1,.54-.87,1.07,1.07,0,0,1,.76-.31l.24,0,.23.06Z"/><path class="cls-24" d="M124.39,463.74a2.21,2.21,0,0,1-.18-.53,3.84,3.84,0,0,1-.11-.59,2.68,2.68,0,0,1-.65.91,1.39,1.39,0,0,1-1,.36,2,2,0,0,1-1.56-.6,2.3,2.3,0,0,1-.54-1.62,2.09,2.09,0,0,1,.71-1.68,3.27,3.27,0,0,1,2.14-.6h.84v-.62a1.47,1.47,0,0,0-.2-.85.69.69,0,0,0-.61-.3.63.63,0,0,0-.54.24,1.13,1.13,0,0,0-.19.69h-1.86v0a2,2,0,0,1,.72-1.63,2.88,2.88,0,0,1,2-.67,2.67,2.67,0,0,1,1.9.67,2.5,2.5,0,0,1,.72,1.92v3a6.17,6.17,0,0,0,.08,1,6.31,6.31,0,0,0,.23.93ZM123,462.45a1.06,1.06,0,0,0,.68-.23,1.19,1.19,0,0,0,.41-.57v-1.17h-.84a.82.82,0,0,0-.71.32,1.39,1.39,0,0,0-.22.79,1,1,0,0,0,.19.63A.59.59,0,0,0,123,462.45Z"/><path class="cls-25" d="M137.14,462.43a3.43,3.43,0,0,1-1.23,1,4.37,4.37,0,0,1-2.08.44,3.58,3.58,0,0,1-2.59-.95,3.51,3.51,0,0,1-1-2.67v-3a3.61,3.61,0,0,1,.94-2.67,3.42,3.42,0,0,1,2.51-.95,3.5,3.5,0,0,1,2.46.77,2.77,2.77,0,0,1,.8,2.19v.05h-1.82a1.6,1.6,0,0,0-.34-1.14,1.36,1.36,0,0,0-1-.36,1.44,1.44,0,0,0-1.17.52,2.54,2.54,0,0,0-.41,1.57v3a2.52,2.52,0,0,0,.42,1.59,1.46,1.46,0,0,0,1.21.52,2.39,2.39,0,0,0,.89-.13,1.23,1.23,0,0,0,.49-.36v-2h-1.52v-1.33h3.45Z"/><path class="cls-26" d="M141.86,458l-.66,0a.8.8,0,0,0-.54.17,1.08,1.08,0,0,0-.33.48v5.1h-1.92v-7.41h1.8l.07,1.05a2.21,2.21,0,0,1,.55-.87,1.06,1.06,0,0,1,.76-.31l.24,0,.22.06Z"/><path class="cls-27" d="M146.46,463.74a3.66,3.66,0,0,1-.18-.53,5.59,5.59,0,0,1-.11-.59,2.66,2.66,0,0,1-.64.91,1.43,1.43,0,0,1-1,.36,2,2,0,0,1-1.56-.6,2.3,2.3,0,0,1-.55-1.62,2.07,2.07,0,0,1,.72-1.68,3.27,3.27,0,0,1,2.14-.6h.84v-.62a1.55,1.55,0,0,0-.2-.85.69.69,0,0,0-.61-.3.66.66,0,0,0-.55.24,1.13,1.13,0,0,0-.18.69h-1.86l0,0a2,2,0,0,1,.72-1.63,2.92,2.92,0,0,1,2-.67,2.69,2.69,0,0,1,1.9.67,2.5,2.5,0,0,1,.72,1.92v3a6.17,6.17,0,0,0,.08,1,5.26,5.26,0,0,0,.23.93Zm-1.41-1.29a1.06,1.06,0,0,0,.68-.23,1.19,1.19,0,0,0,.41-.57v-1.17h-.84a.81.81,0,0,0-.71.32,1.32,1.32,0,0,0-.22.79,1,1,0,0,0,.18.63A.63.63,0,0,0,145.05,462.45Z"/><path class="cls-28" d="M151.08,456.33l.08,1a2.42,2.42,0,0,1,.78-.86,1.84,1.84,0,0,1,2.49.42,4,4,0,0,1,.54,2.31v4.5H153v-4.5a2.58,2.58,0,0,0-.2-1.18.66.66,0,0,0-.61-.34,1.11,1.11,0,0,0-.58.15,1.35,1.35,0,0,0-.44.42v5.45h-1.93v-7.41Z"/><path class="cls-29" d="M156,460.08a5.29,5.29,0,0,1,.65-2.81,2,2,0,0,1,1.84-1.07,1.57,1.57,0,0,1,.8.21,2,2,0,0,1,.64.6v-3.95h1.93v10.68h-1.65l-.14-.83a2.32,2.32,0,0,1-.69.73,1.75,1.75,0,0,1-.91.25,2.05,2.05,0,0,1-1.82-1,4.76,4.76,0,0,1-.65-2.66Zm1.91.14a4,4,0,0,0,.25,1.58.83.83,0,0,0,.81.57,1,1,0,0,0,1-.58v-3.4a1.31,1.31,0,0,0-.4-.49.93.93,0,0,0-.55-.18.85.85,0,0,0-.81.65,4.73,4.73,0,0,0-.26,1.71Z"/><path class="cls-30" d="M169.37,461.2l.08.41h0l.08-.39,1.73-7.45h2l-2.85,10h-2l-2.84-10h2Z"/><path class="cls-31" d="M176.05,454.53h-1.93v-1.47h1.93Zm0,9.21h-1.93v-7.41h1.93Z"/><path class="cls-32" d="M180.26,463.89a2.74,2.74,0,0,1-2.27-1,4,4,0,0,1-.81-2.61V460a4.5,4.5,0,0,1,.78-2.73,2.57,2.57,0,0,1,2.19-1.05,2.39,2.39,0,0,1,2,.89,3.87,3.87,0,0,1,.7,2.44v1.06h-3.74a2.63,2.63,0,0,0,.38,1.3,1.1,1.1,0,0,0,1,.49,3,3,0,0,0,1-.13,3.81,3.81,0,0,0,.83-.42l.5,1.2a3.27,3.27,0,0,1-1.07.61A4.29,4.29,0,0,1,180.26,463.89Zm-.11-6.18a.77.77,0,0,0-.73.43,3.07,3.07,0,0,0-.29,1.17H181v-.17a2.32,2.32,0,0,0-.19-1.05A.64.64,0,0,0,180.15,457.71Z"/><path class="cls-33" d="M189.35,460.46h0l.66-4.13h1.86l-1.56,7.41h-1.61l-1.08-3.91h0l-1.07,3.91h-1.62l-1.56-7.41h1.86l.67,4.15h0l1.07-4.15h1.26Z"/><path class="cls-34" d="M203.05,460.16a4.91,4.91,0,0,1-.16,1.25,3.94,3.94,0,0,1-.45,1l1.21,1.38-1.25,1-1.18-1.32a3.48,3.48,0,0,1-.86.29,4.85,4.85,0,0,1-1,.1,3.57,3.57,0,0,1-2.64-1,3.73,3.73,0,0,1-1-2.74v-2.78a3.76,3.76,0,0,1,1-2.75,3.51,3.51,0,0,1,2.63-1,3.57,3.57,0,0,1,2.65,1,3.73,3.73,0,0,1,1,2.75Zm-1.93-2.81a2.63,2.63,0,0,0-.44-1.64,1.53,1.53,0,0,0-1.28-.55,1.48,1.48,0,0,0-1.26.55,2.61,2.61,0,0,0-.43,1.64v2.81a2.68,2.68,0,0,0,.43,1.66,1.51,1.51,0,0,0,1.27.55,1.53,1.53,0,0,0,1.28-.55,2.68,2.68,0,0,0,.43-1.66Z"/><path class="cls-35" d="M208.34,462.69a2.41,2.41,0,0,1-.74.88,1.72,1.72,0,0,1-1,.32,1.81,1.81,0,0,1-1.57-.81,4.21,4.21,0,0,1-.58-2.47v-4.28h1.93v4.29a3.29,3.29,0,0,0,.2,1.37.63.63,0,0,0,.61.38,1.35,1.35,0,0,0,.59-.12,1.2,1.2,0,0,0,.43-.38v-5.54h1.94v7.41h-1.58Z"/><path class="cls-36" d="M215.08,463.74a2.75,2.75,0,0,1-.18-.53,3.84,3.84,0,0,1-.11-.59,2.55,2.55,0,0,1-.65.91,1.39,1.39,0,0,1-1,.36,2,2,0,0,1-1.56-.6,2.3,2.3,0,0,1-.54-1.62,2.07,2.07,0,0,1,.72-1.68,3.24,3.24,0,0,1,2.13-.6h.85v-.62a1.46,1.46,0,0,0-.21-.85.69.69,0,0,0-.61-.3.63.63,0,0,0-.54.24,1.13,1.13,0,0,0-.18.69h-1.87v0a2,2,0,0,1,.72-1.63,2.91,2.91,0,0,1,2-.67,2.65,2.65,0,0,1,1.89.67,2.51,2.51,0,0,1,.73,1.92v3a6.19,6.19,0,0,0,.07,1,5.3,5.3,0,0,0,.24.93Zm1.22-8.84v.15h-1.5l-.8-.93-.79.93h-1.48v-.17l1.73-1.63h1.09ZM214.63,466h-2.15v-1.62h2.15Zm-1-3.59a1.06,1.06,0,0,0,.69-.23,1.26,1.26,0,0,0,.41-.57v-1.17h-.85a.79.79,0,0,0-.7.32,1.32,1.32,0,0,0-.23.79,1,1,0,0,0,.19.63A.61.61,0,0,0,213.66,462.45Z"/><path class="cls-37" d="M219.7,456.33l.08,1a2.49,2.49,0,0,1,.77-.86,1.85,1.85,0,0,1,2.5.42,4,4,0,0,1,.54,2.31v4.5h-1.93v-4.5a2.43,2.43,0,0,0-.21-1.18.64.64,0,0,0-.61-.34,1.14,1.14,0,0,0-.58.15,1.32,1.32,0,0,0-.43.42v5.45H217.9v-7.41Z"/><path class="cls-38" d="M228.14,459.34l.52-5.57h5.11v1.56h-3.52l-.24,2.41a2.11,2.11,0,0,1,.63-.35,2.38,2.38,0,0,1,.81-.16,2.25,2.25,0,0,1,1.94.86,3.87,3.87,0,0,1,.68,2.46,3.74,3.74,0,0,1-.75,2.4,2.8,2.8,0,0,1-2.31.94,3.36,3.36,0,0,1-2.17-.74,2.36,2.36,0,0,1-.87-2l0,0,1.87-.1a1.45,1.45,0,0,0,.32,1,1,1,0,0,0,.83.36.93.93,0,0,0,.86-.47,3.54,3.54,0,0,0,0-2.76,1,1,0,0,0-.88-.51,1,1,0,0,0-1.08.82Z"/><line class="cls-39" x1="65.87" y1="307.58" x2="239.29" y2="307.58"/><line class="cls-40" x1="65.87" y1="481" x2="239.29" y2="481"/></svg>