<svg id="Layer_1" data-name="Layer 1" xmlns="http://www.w3.org/2000/svg" xmlns:xlink="http://www.w3.org/1999/xlink" viewBox="0 0 124.42 54.55"><defs><style>.cls-1,.cls-15,.cls-16,.cls-17,.cls-2{fill:#fff;}.cls-1,.cls-15,.cls-16,.cls-17,.cls-4{stroke:#fff;stroke-miterlimit:10;}.cls-1,.cls-4{stroke-width:0.3px;}.cls-3{clip-path:url(#clip-path);}.cls-4{fill:none;}.cls-5{clip-path:url(#clip-path-2);}.cls-6{clip-path:url(#clip-path-3);}.cls-7{clip-path:url(#clip-path-4);}.cls-8{clip-path:url(#clip-path-5);}.cls-9{clip-path:url(#clip-path-6);}.cls-10{clip-path:url(#clip-path-7);}.cls-11{clip-path:url(#clip-path-8);}.cls-12{clip-path:url(#clip-path-9);}.cls-13{clip-path:url(#clip-path-10);}.cls-14{clip-path:url(#clip-path-11);}.cls-15{font-size:7.67px;letter-spacing:0.3em;}.cls-15,.cls-16,.cls-17{stroke-width:0.3px;}.cls-15,.cls-16{font-family:UTM-Times, UTM Times;}.cls-16{font-size:6.96px;letter-spacing:0.3em;}.cls-17{font-size:14.43px;font-family:UTM-Aquarelle, UTM Aquarelle;}</style><clipPath id="clip-path" transform="translate(-15.61 -150.39)"><path id="_Compound_Clipping_Path_" data-name="&lt;Compound Clipping Path&gt;" class="cls-1" d="M35.62,172.52v-6.58a3.39,3.39,0,0,1,1.92-.51c2.2,0,3.29,1.3,3.29,3.89a4.35,4.35,0,0,1-.76,2.63,2.77,2.77,0,0,1-2.38,1.19,4,4,0,0,1-2.07-.62m-2.21-7.39v.32a1.21,1.21,0,0,1,.8.23,1.24,1.24,0,0,1,.2.81v5.7a1.27,1.27,0,0,1-.2.82,1.11,1.11,0,0,1-.8.23v.32h3.45a5.17,5.17,0,0,0,3.74-1.41,4.93,4.93,0,0,0,1.47-3.69q0-3.33-3.48-3.33Z"/></clipPath><clipPath id="clip-path-2" transform="translate(-15.61 -150.39)"><path id="_Compound_Clipping_Path_2" data-name="&lt;Compound Clipping Path&gt;" class="cls-1" d="M45.14,168.52v-2.75a1.76,1.76,0,0,1,1-.32,1.28,1.28,0,0,1,1.15.7,2.75,2.75,0,0,1,.33,1.37c0,1-.39,1.55-1.17,1.55a2.46,2.46,0,0,1-1.33-.55m-2.21-3.39v.32a1.16,1.16,0,0,1,.79.23,1.18,1.18,0,0,1,.21.81v5.7a1.21,1.21,0,0,1-.21.82,1.06,1.06,0,0,1-.79.23v.32h3.23v-.32a.93.93,0,0,1-1-1v-3.27L47.76,173a1,1,0,0,0,.85.56h1.58v-.32c-.56,0-1.17-.55-1.82-1.57l-1.48-2.27q2.1-1.2,2.1-2.82c0-1-.62-1.45-1.87-1.45Z"/></clipPath><clipPath id="clip-path-3" transform="translate(-15.61 -150.39)"><path id="_Clipping_Path_" data-name="&lt;Clipping Path&gt;" class="cls-1" d="M55.45,164.8q0,.33-.45.33H50.3v.32a1.11,1.11,0,0,1,.79.24,1.16,1.16,0,0,1,.21.81v5.69a1.19,1.19,0,0,1-.21.82,1,1,0,0,1-.79.23v.32h4.8c.17,0,.25.1.25.29h.33l.55-2.71h-.47a2.29,2.29,0,0,1-2.55,2.1h-.7v-3.79l2.42-.06v-.46h-.64q-1.86,0-1.86-2.19a12.7,12.7,0,0,1,.08-1.29H53c1.5,0,2.26.62,2.28,1.87h.47V164.8Z"/></clipPath><clipPath id="clip-path-4" transform="translate(-15.61 -150.39)"><path id="_Clipping_Path_2" data-name="&lt;Clipping Path&gt;" class="cls-1" d="M78.41,165.13c-.2.65-.6,1.7-1.21,3.14l-1.62,3.83-2.83-7H70.59v.32a1.15,1.15,0,0,1,.67.17.8.8,0,0,1,.2.64v.26l-.17,1.76a20.26,20.26,0,0,1-.42,2.64,9.34,9.34,0,0,1-.38,1.36,1.43,1.43,0,0,1-.91,1v.32h3v-.32c-.7,0-1-.75-1-2.14,0-.62,0-1.47.14-2.53l.22-2.37L75,173.87h.3L76.93,170a34.48,34.48,0,0,1,1.61-3.13l.52,5.23a1.93,1.93,0,0,1,0,.23,1,1,0,0,1-.19.7,1.05,1.05,0,0,1-.71.21v.32h3.24v-.32a1,1,0,0,1-1-.43,3.36,3.36,0,0,1-.23-1.11l-.5-5.26v-.14a.77.77,0,0,1,.27-.69,1.51,1.51,0,0,1,.76-.16v-.32Z"/></clipPath><clipPath id="clip-path-5" transform="translate(-15.61 -150.39)"><path id="_Clipping_Path_3" data-name="&lt;Clipping Path&gt;" class="cls-1" d="M90.44,165.13v.32a.84.84,0,0,1,1,1v2.25h-4v-2.25a.83.83,0,0,1,1-1v-.32H85.2v.32a1.14,1.14,0,0,1,.79.23,1.18,1.18,0,0,1,.21.81v5.7A1.21,1.21,0,0,1,86,173a1,1,0,0,1-.79.23v.32h3.22v-.32a.91.91,0,0,1-1-1v-3h4v3a1.24,1.24,0,0,1-.21.82,1.11,1.11,0,0,1-.8.23v.32h3.22v-.32a1.06,1.06,0,0,1-.79-.23,1.19,1.19,0,0,1-.21-.82v-5.7a1.18,1.18,0,0,1,.21-.81,1.16,1.16,0,0,1,.79-.23v-.32Z"/></clipPath><clipPath id="clip-path-6" transform="translate(-15.61 -150.39)"><path id="_Compound_Clipping_Path_3" data-name="&lt;Compound Clipping Path&gt;" class="cls-1" d="M96.72,171.73a4.83,4.83,0,0,1-1-3.07,3.28,3.28,0,0,1,.74-2.19,2.59,2.59,0,0,1,2.08-.91,3.59,3.59,0,0,1,1.76.54,3.78,3.78,0,0,1,1.53,1.73,5.35,5.35,0,0,1,.5,2.28,3.19,3.19,0,0,1-.75,2.13,2.58,2.58,0,0,1-2,.92,3.38,3.38,0,0,1-2.81-1.43M96,166.39a4.68,4.68,0,0,0-1.42,3.38,3.91,3.91,0,0,0,4,4,4.74,4.74,0,0,0,2.23-.54,4.81,4.81,0,0,0,1.9-1.77,4.66,4.66,0,0,0,.74-2.49,3.77,3.77,0,0,0-.64-2.22,4,4,0,0,0-3.45-1.79A4.52,4.52,0,0,0,96,166.39"/></clipPath><clipPath id="clip-path-7" transform="translate(-15.61 -150.39)"><path id="_Clipping_Path_4" data-name="&lt;Clipping Path&gt;" class="cls-1" d="M112.8,165.13c-.2.65-.6,1.7-1.21,3.14L110,172.1l-2.83-7H105v.32a1.07,1.07,0,0,1,.66.17.77.77,0,0,1,.21.64,1.57,1.57,0,0,1,0,.26l-.16,1.76a20.3,20.3,0,0,1-.41,2.64,10.41,10.41,0,0,1-.39,1.36,1.43,1.43,0,0,1-.91,1v.32h3v-.32c-.7,0-1-.75-1-2.14,0-.62,0-1.47.14-2.53l.22-2.37,3.09,7.67h.3l1.65-3.87a34.48,34.48,0,0,1,1.61-3.13l.52,5.23a1.93,1.93,0,0,1,0,.23,1,1,0,0,1-.19.7,1.05,1.05,0,0,1-.71.21v.32h3.24v-.32a1,1,0,0,1-1-.43,3.11,3.11,0,0,1-.23-1.11l-.5-5.26v-.14a.77.77,0,0,1,.27-.69,1.49,1.49,0,0,1,.75-.16v-.32Z"/></clipPath><clipPath id="clip-path-8" transform="translate(-15.61 -150.39)"><path id="_Clipping_Path_5" data-name="&lt;Clipping Path&gt;" class="cls-1" d="M121.46,164.8c0,.22-.16.33-.44.33h-4.71v.32a1.11,1.11,0,0,1,.79.24,1.16,1.16,0,0,1,.21.81v5.69a1.19,1.19,0,0,1-.21.82,1,1,0,0,1-.79.23v.32h4.8c.17,0,.25.1.26.29h.33l.54-2.71h-.47a2.29,2.29,0,0,1-2.55,2.1h-.7v-3.79l2.42-.06v-.46h-.64c-1.24,0-1.85-.73-1.85-2.19a12.46,12.46,0,0,1,.07-1.29H119c1.5,0,2.25.62,2.27,1.87h.47V164.8Z"/></clipPath><clipPath id="clip-path-9" transform="translate(-15.61 -150.39)"><path id="_Compound_Clipping_Path_4" data-name="&lt;Compound Clipping Path&gt;" class="cls-1" d="M59.92,166.6l3.29-3.29,3.23,3.27v5.59H59.92Zm-1.57-.69v7.84H68v-7.81l-4.86-4.86Z"/></clipPath><clipPath id="clip-path-10" transform="translate(-15.61 -150.39)"><polygon id="_Clipping_Path_6" data-name="&lt;Clipping Path&gt;" class="cls-1" points="61.53 167.22 61.53 170.58 64.86 170.58 64.86 167.22 63.19 165.5 61.53 167.22"/></clipPath><clipPath id="clip-path-11" transform="translate(-15.61 -150.39)"><rect id="_Clipping_Path_7" data-name="&lt;Clipping Path&gt;" class="cls-1" x="33.57" y="175.21" width="88.5" height="0.27"/></clipPath></defs><title>dreamhome</title><g id="_Group_" data-name="&lt;Group&gt;"><g id="_Group_2" data-name="&lt;Group&gt;"><g id="_Group_3" data-name="&lt;Group&gt;"><g id="_Clip_Group_" data-name="&lt;Clip Group&gt;"><path id="_Compound_Clipping_Path_5" data-name="&lt;Compound Clipping Path&gt;" class="cls-2" d="M35.62,172.52v-6.58a3.39,3.39,0,0,1,1.92-.51c2.2,0,3.29,1.3,3.29,3.89a4.35,4.35,0,0,1-.76,2.63,2.77,2.77,0,0,1-2.38,1.19,4,4,0,0,1-2.07-.62m-2.21-7.39v.32a1.21,1.21,0,0,1,.8.23,1.24,1.24,0,0,1,.2.81v5.7a1.27,1.27,0,0,1-.2.82,1.11,1.11,0,0,1-.8.23v.32h3.45a5.17,5.17,0,0,0,3.74-1.41,4.93,4.93,0,0,0,1.47-3.69q0-3.33-3.48-3.33Z" transform="translate(-15.61 -150.39)"/><g class="cls-3"><rect id="_Path_" data-name="&lt;Path&gt;" class="cls-1" x="17.79" y="14.74" width="8.66" height="8.44"/></g><path id="_Compound_Clipping_Path_6" data-name="&lt;Compound Clipping Path&gt;" class="cls-4" d="M35.62,172.52v-6.58a3.39,3.39,0,0,1,1.92-.51c2.2,0,3.29,1.3,3.29,3.89a4.35,4.35,0,0,1-.76,2.63,2.77,2.77,0,0,1-2.38,1.19,4,4,0,0,1-2.07-.62m-2.21-7.39v.32a1.21,1.21,0,0,1,.8.23,1.24,1.24,0,0,1,.2.81v5.7a1.27,1.27,0,0,1-.2.82,1.11,1.11,0,0,1-.8.23v.32h3.45a5.17,5.17,0,0,0,3.74-1.41,4.93,4.93,0,0,0,1.47-3.69q0-3.33-3.48-3.33Z" transform="translate(-15.61 -150.39)"/></g><g id="_Clip_Group_2" data-name="&lt;Clip Group&gt;"><path id="_Compound_Clipping_Path_7" data-name="&lt;Compound Clipping Path&gt;" class="cls-2" d="M45.14,168.52v-2.75a1.76,1.76,0,0,1,1-.32,1.28,1.28,0,0,1,1.15.7,2.75,2.75,0,0,1,.33,1.37c0,1-.39,1.55-1.17,1.55a2.46,2.46,0,0,1-1.33-.55m-2.21-3.39v.32a1.16,1.16,0,0,1,.79.23,1.18,1.18,0,0,1,.21.81v5.7a1.21,1.21,0,0,1-.21.82,1.06,1.06,0,0,1-.79.23v.32h3.23v-.32a.93.93,0,0,1-1-1v-3.27L47.76,173a1,1,0,0,0,.85.56h1.58v-.32c-.56,0-1.17-.55-1.82-1.57l-1.48-2.27q2.1-1.2,2.1-2.82c0-1-.62-1.45-1.87-1.45Z" transform="translate(-15.61 -150.39)"/><g class="cls-5"><rect id="_Path_2" data-name="&lt;Path&gt;" class="cls-1" x="27.31" y="14.74" width="7.26" height="8.44"/></g><path id="_Compound_Clipping_Path_8" data-name="&lt;Compound Clipping Path&gt;" class="cls-4" d="M45.14,168.52v-2.75a1.76,1.76,0,0,1,1-.32,1.28,1.28,0,0,1,1.15.7,2.75,2.75,0,0,1,.33,1.37c0,1-.39,1.55-1.17,1.55a2.46,2.46,0,0,1-1.33-.55m-2.21-3.39v.32a1.16,1.16,0,0,1,.79.23,1.18,1.18,0,0,1,.21.81v5.7a1.21,1.21,0,0,1-.21.82,1.06,1.06,0,0,1-.79.23v.32h3.23v-.32a.93.93,0,0,1-1-1v-3.27L47.76,173a1,1,0,0,0,.85.56h1.58v-.32c-.56,0-1.17-.55-1.82-1.57l-1.48-2.27q2.1-1.2,2.1-2.82c0-1-.62-1.45-1.87-1.45Z" transform="translate(-15.61 -150.39)"/></g><g id="_Clip_Group_3" data-name="&lt;Clip Group&gt;"><path id="_Clipping_Path_8" data-name="&lt;Clipping Path&gt;" class="cls-2" d="M55.45,164.8q0,.33-.45.33H50.3v.32a1.11,1.11,0,0,1,.79.24,1.16,1.16,0,0,1,.21.81v5.69a1.19,1.19,0,0,1-.21.82,1,1,0,0,1-.79.23v.32h4.8c.17,0,.25.1.25.29h.33l.55-2.71h-.47a2.29,2.29,0,0,1-2.55,2.1h-.7v-3.79l2.42-.06v-.46h-.64q-1.86,0-1.86-2.19a12.7,12.7,0,0,1,.08-1.29H53c1.5,0,2.26.62,2.28,1.87h.47V164.8Z" transform="translate(-15.61 -150.39)"/><g class="cls-6"><rect id="_Path_3" data-name="&lt;Path&gt;" class="cls-1" x="34.68" y="14.41" width="5.93" height="9.06"/></g><path id="_Clipping_Path_9" data-name="&lt;Clipping Path&gt;" class="cls-4" d="M55.45,164.8q0,.33-.45.33H50.3v.32a1.11,1.11,0,0,1,.79.24,1.16,1.16,0,0,1,.21.81v5.69a1.19,1.19,0,0,1-.21.82,1,1,0,0,1-.79.23v.32h4.8c.17,0,.25.1.25.29h.33l.55-2.71h-.47a2.29,2.29,0,0,1-2.55,2.1h-.7v-3.79l2.42-.06v-.46h-.64q-1.86,0-1.86-2.19a12.7,12.7,0,0,1,.08-1.29H53c1.5,0,2.26.62,2.28,1.87h.47V164.8Z" transform="translate(-15.61 -150.39)"/></g><g id="_Clip_Group_4" data-name="&lt;Clip Group&gt;"><path id="_Clipping_Path_10" data-name="&lt;Clipping Path&gt;" class="cls-2" d="M78.41,165.13c-.2.65-.6,1.7-1.21,3.14l-1.62,3.83-2.83-7H70.59v.32a1.15,1.15,0,0,1,.67.17.8.8,0,0,1,.2.64v.26l-.17,1.76a20.26,20.26,0,0,1-.42,2.64,9.34,9.34,0,0,1-.38,1.36,1.43,1.43,0,0,1-.91,1v.32h3v-.32c-.7,0-1-.75-1-2.14,0-.62,0-1.47.14-2.53l.22-2.37L75,173.87h.3L76.93,170a34.48,34.48,0,0,1,1.61-3.13l.52,5.23a1.93,1.93,0,0,1,0,.23,1,1,0,0,1-.19.7,1.05,1.05,0,0,1-.71.21v.32h3.24v-.32a1,1,0,0,1-1-.43,3.36,3.36,0,0,1-.23-1.11l-.5-5.26v-.14a.77.77,0,0,1,.27-.69,1.51,1.51,0,0,1,.76-.16v-.32Z" transform="translate(-15.61 -150.39)"/><g class="cls-7"><rect id="_Path_4" data-name="&lt;Path&gt;" class="cls-1" x="53.97" y="14.74" width="11.83" height="8.75"/></g><path id="_Clipping_Path_11" data-name="&lt;Clipping Path&gt;" class="cls-4" d="M78.41,165.13c-.2.65-.6,1.7-1.21,3.14l-1.62,3.83-2.83-7H70.59v.32a1.15,1.15,0,0,1,.67.17.8.8,0,0,1,.2.64v.26l-.17,1.76a20.26,20.26,0,0,1-.42,2.64,9.34,9.34,0,0,1-.38,1.36,1.43,1.43,0,0,1-.91,1v.32h3v-.32c-.7,0-1-.75-1-2.14,0-.62,0-1.47.14-2.53l.22-2.37L75,173.87h.3L76.93,170a34.48,34.48,0,0,1,1.61-3.13l.52,5.23a1.93,1.93,0,0,1,0,.23,1,1,0,0,1-.19.7,1.05,1.05,0,0,1-.71.21v.32h3.24v-.32a1,1,0,0,1-1-.43,3.36,3.36,0,0,1-.23-1.11l-.5-5.26v-.14a.77.77,0,0,1,.27-.69,1.51,1.51,0,0,1,.76-.16v-.32Z" transform="translate(-15.61 -150.39)"/></g><g id="_Clip_Group_5" data-name="&lt;Clip Group&gt;"><path id="_Clipping_Path_12" data-name="&lt;Clipping Path&gt;" class="cls-2" d="M90.44,165.13v.32a.84.84,0,0,1,1,1v2.25h-4v-2.25a.83.83,0,0,1,1-1v-.32H85.2v.32a1.14,1.14,0,0,1,.79.23,1.18,1.18,0,0,1,.21.81v5.7A1.21,1.21,0,0,1,86,173a1,1,0,0,1-.79.23v.32h3.22v-.32a.91.91,0,0,1-1-1v-3h4v3a1.24,1.24,0,0,1-.21.82,1.11,1.11,0,0,1-.8.23v.32h3.22v-.32a1.06,1.06,0,0,1-.79-.23,1.19,1.19,0,0,1-.21-.82v-5.7a1.18,1.18,0,0,1,.21-.81,1.16,1.16,0,0,1,.79-.23v-.32Z" transform="translate(-15.61 -150.39)"/><g class="cls-8"><rect id="_Path_5" data-name="&lt;Path&gt;" class="cls-1" x="69.58" y="14.74" width="8.46" height="8.44"/></g><path id="_Clipping_Path_13" data-name="&lt;Clipping Path&gt;" class="cls-4" d="M90.44,165.13v.32a.84.84,0,0,1,1,1v2.25h-4v-2.25a.83.83,0,0,1,1-1v-.32H85.2v.32a1.14,1.14,0,0,1,.79.23,1.18,1.18,0,0,1,.21.81v5.7A1.21,1.21,0,0,1,86,173a1,1,0,0,1-.79.23v.32h3.22v-.32a.91.91,0,0,1-1-1v-3h4v3a1.24,1.24,0,0,1-.21.82,1.11,1.11,0,0,1-.8.23v.32h3.22v-.32a1.06,1.06,0,0,1-.79-.23,1.19,1.19,0,0,1-.21-.82v-5.7a1.18,1.18,0,0,1,.21-.81,1.16,1.16,0,0,1,.79-.23v-.32Z" transform="translate(-15.61 -150.39)"/></g><g id="_Clip_Group_6" data-name="&lt;Clip Group&gt;"><path id="_Compound_Clipping_Path_9" data-name="&lt;Compound Clipping Path&gt;" class="cls-2" d="M96.72,171.73a4.83,4.83,0,0,1-1-3.07,3.28,3.28,0,0,1,.74-2.19,2.59,2.59,0,0,1,2.08-.91,3.59,3.59,0,0,1,1.76.54,3.78,3.78,0,0,1,1.53,1.73,5.35,5.35,0,0,1,.5,2.28,3.19,3.19,0,0,1-.75,2.13,2.58,2.58,0,0,1-2,.92,3.38,3.38,0,0,1-2.81-1.43M96,166.39a4.68,4.68,0,0,0-1.42,3.38,3.91,3.91,0,0,0,4,4,4.74,4.74,0,0,0,2.23-.54,4.81,4.81,0,0,0,1.9-1.77,4.66,4.66,0,0,0,.74-2.49,3.77,3.77,0,0,0-.64-2.22,4,4,0,0,0-3.45-1.79A4.52,4.52,0,0,0,96,166.39" transform="translate(-15.61 -150.39)"/><g class="cls-9"><rect id="_Path_6" data-name="&lt;Path&gt;" class="cls-1" x="78.96" y="14.55" width="8.85" height="8.82"/></g><path id="_Compound_Clipping_Path_10" data-name="&lt;Compound Clipping Path&gt;" class="cls-4" d="M96.72,171.73a4.83,4.83,0,0,1-1-3.07,3.28,3.28,0,0,1,.74-2.19,2.59,2.59,0,0,1,2.08-.91,3.59,3.59,0,0,1,1.76.54,3.78,3.78,0,0,1,1.53,1.73,5.35,5.35,0,0,1,.5,2.28,3.19,3.19,0,0,1-.75,2.13,2.58,2.58,0,0,1-2,.92,3.38,3.38,0,0,1-2.81-1.43M96,166.39a4.68,4.68,0,0,0-1.42,3.38,3.91,3.91,0,0,0,4,4,4.74,4.74,0,0,0,2.23-.54,4.81,4.81,0,0,0,1.9-1.77,4.66,4.66,0,0,0,.74-2.49,3.77,3.77,0,0,0-.64-2.22,4,4,0,0,0-3.45-1.79A4.52,4.52,0,0,0,96,166.39" transform="translate(-15.61 -150.39)"/></g><g id="_Clip_Group_7" data-name="&lt;Clip Group&gt;"><path id="_Clipping_Path_14" data-name="&lt;Clipping Path&gt;" class="cls-2" d="M112.8,165.13c-.2.65-.6,1.7-1.21,3.14L110,172.1l-2.83-7H105v.32a1.07,1.07,0,0,1,.66.17.77.77,0,0,1,.21.64,1.57,1.57,0,0,1,0,.26l-.16,1.76a20.3,20.3,0,0,1-.41,2.64,10.41,10.41,0,0,1-.39,1.36,1.43,1.43,0,0,1-.91,1v.32h3v-.32c-.7,0-1-.75-1-2.14,0-.62,0-1.47.14-2.53l.22-2.37,3.09,7.67h.3l1.65-3.87a34.48,34.48,0,0,1,1.61-3.13l.52,5.23a1.93,1.93,0,0,1,0,.23,1,1,0,0,1-.19.7,1.05,1.05,0,0,1-.71.21v.32h3.24v-.32a1,1,0,0,1-1-.43,3.11,3.11,0,0,1-.23-1.11l-.5-5.26v-.14a.77.77,0,0,1,.27-.69,1.49,1.49,0,0,1,.75-.16v-.32Z" transform="translate(-15.61 -150.39)"/><g class="cls-10"><rect id="_Path_7" data-name="&lt;Path&gt;" class="cls-1" x="88.36" y="14.74" width="11.83" height="8.75"/></g><path id="_Clipping_Path_15" data-name="&lt;Clipping Path&gt;" class="cls-4" d="M112.8,165.13c-.2.65-.6,1.7-1.21,3.14L110,172.1l-2.83-7H105v.32a1.07,1.07,0,0,1,.66.17.77.77,0,0,1,.21.64,1.57,1.57,0,0,1,0,.26l-.16,1.76a20.3,20.3,0,0,1-.41,2.64,10.41,10.41,0,0,1-.39,1.36,1.43,1.43,0,0,1-.91,1v.32h3v-.32c-.7,0-1-.75-1-2.14,0-.62,0-1.47.14-2.53l.22-2.37,3.09,7.67h.3l1.65-3.87a34.48,34.48,0,0,1,1.61-3.13l.52,5.23a1.93,1.93,0,0,1,0,.23,1,1,0,0,1-.19.7,1.05,1.05,0,0,1-.71.21v.32h3.24v-.32a1,1,0,0,1-1-.43,3.11,3.11,0,0,1-.23-1.11l-.5-5.26v-.14a.77.77,0,0,1,.27-.69,1.49,1.49,0,0,1,.75-.16v-.32Z" transform="translate(-15.61 -150.39)"/></g><g id="_Clip_Group_8" data-name="&lt;Clip Group&gt;"><path id="_Clipping_Path_16" data-name="&lt;Clipping Path&gt;" class="cls-2" d="M121.46,164.8c0,.22-.16.33-.44.33h-4.71v.32a1.11,1.11,0,0,1,.79.24,1.16,1.16,0,0,1,.21.81v5.69a1.19,1.19,0,0,1-.21.82,1,1,0,0,1-.79.23v.32h4.8c.17,0,.25.1.26.29h.33l.54-2.71h-.47a2.29,2.29,0,0,1-2.55,2.1h-.7v-3.79l2.42-.06v-.46h-.64c-1.24,0-1.85-.73-1.85-2.19a12.46,12.46,0,0,1,.07-1.29H119c1.5,0,2.25.62,2.27,1.87h.47V164.8Z" transform="translate(-15.61 -150.39)"/><g class="cls-11"><rect id="_Path_8" data-name="&lt;Path&gt;" class="cls-1" x="100.69" y="14.41" width="5.93" height="9.06"/></g><path id="_Clipping_Path_17" data-name="&lt;Clipping Path&gt;" class="cls-4" d="M121.46,164.8c0,.22-.16.33-.44.33h-4.71v.32a1.11,1.11,0,0,1,.79.24,1.16,1.16,0,0,1,.21.81v5.69a1.19,1.19,0,0,1-.21.82,1,1,0,0,1-.79.23v.32h4.8c.17,0,.25.1.26.29h.33l.54-2.71h-.47a2.29,2.29,0,0,1-2.55,2.1h-.7v-3.79l2.42-.06v-.46h-.64c-1.24,0-1.85-.73-1.85-2.19a12.46,12.46,0,0,1,.07-1.29H119c1.5,0,2.25.62,2.27,1.87h.47V164.8Z" transform="translate(-15.61 -150.39)"/></g><g id="_Clip_Group_9" data-name="&lt;Clip Group&gt;"><path id="_Compound_Clipping_Path_11" data-name="&lt;Compound Clipping Path&gt;" class="cls-2" d="M59.92,166.6l3.29-3.29,3.23,3.27v5.59H59.92Zm-1.57-.69v7.84H68v-7.81l-4.86-4.86Z" transform="translate(-15.61 -150.39)"/><g class="cls-12"><rect id="_Path_9" data-name="&lt;Path&gt;" class="cls-1" x="42.74" y="10.7" width="9.68" height="12.67"/></g><path id="_Compound_Clipping_Path_12" data-name="&lt;Compound Clipping Path&gt;" class="cls-4" d="M59.92,166.6l3.29-3.29,3.23,3.27v5.59H59.92Zm-1.57-.69v7.84H68v-7.81l-4.86-4.86Z" transform="translate(-15.61 -150.39)"/></g><g id="_Clip_Group_10" data-name="&lt;Clip Group&gt;"><polygon id="_Clipping_Path_18" data-name="&lt;Clipping Path&gt;" class="cls-2" points="45.91 16.84 45.91 20.19 49.24 20.19 49.24 16.84 47.58 15.11 45.91 16.84"/><g class="cls-13"><rect id="_Path_10" data-name="&lt;Path&gt;" class="cls-1" x="45.91" y="15.11" width="3.33" height="5.08"/></g><polygon id="_Clipping_Path_19" data-name="&lt;Clipping Path&gt;" class="cls-4" points="45.91 16.84 45.91 20.19 49.24 20.19 49.24 16.84 47.58 15.11 45.91 16.84"/></g></g><g id="_Clip_Group_11" data-name="&lt;Clip Group&gt;"><rect id="_Clipping_Path_20" data-name="&lt;Clipping Path&gt;" class="cls-2" x="17.96" y="24.82" width="88.5" height="0.27"/><g class="cls-14"><rect id="_Path_11" data-name="&lt;Path&gt;" class="cls-1" x="17.96" y="24.82" width="88.5" height="0.27"/></g><rect id="_Clipping_Path_21" data-name="&lt;Clipping Path&gt;" class="cls-4" x="17.96" y="24.82" width="88.5" height="0.27"/></g><text class="cls-15" transform="translate(31.84 33.25)">RIVERSIDE</text></g><g id="_Group_4" data-name="&lt;Group&gt;"><text class="cls-16" transform="translate(2.6 7.35)">KHU CAO ỐC VEN SÔNG</text></g></g><text class="cls-17" transform="translate(0.15 46.42)">Nơi cân bằng cuộc sống</text></svg>