<svg id="Layer_1" data-name="Layer 1" xmlns="http://www.w3.org/2000/svg" viewBox="0 0 131.38 96.32"><defs><style>.cls-1,.cls-3{fill:#fff;}.cls-1,.cls-4{stroke:#fff;}.cls-1{stroke-linejoin:round;stroke-width:1.32px;}.cls-2{fill:#eb8023;}.cls-4{fill:none;stroke-miterlimit:10;stroke-width:0.31px;}</style></defs><title>gia tien</title><g id="_Group_" data-name="&lt;Group&gt;"><g id="_Group_2" data-name="&lt;Group&gt;"><path id="_Compound_Path_" data-name="&lt;Compound Path&gt;" class="cls-1" d="M76.2,312A10.14,10.14,0,0,1,75,316.66a18.32,18.32,0,0,1-2.93,4.16,21.88,21.88,0,0,1-4,3.35,24.66,24.66,0,0,1-4.35,2.28l-1.8-2.7a24.28,24.28,0,0,0,3.51-3.22,4.45,4.45,0,0,0,1.19-2.83q0-2.26-3.61-4.9a6.5,6.5,0,0,1,.58-2.77A6.2,6.2,0,0,1,65.22,308a7.44,7.44,0,0,1,2.29-1.28,7.92,7.92,0,0,1,2.64-.45,6.63,6.63,0,0,1,4.31,1.41A5.24,5.24,0,0,1,76.2,312Z" transform="translate(-15.61 -249.05)"/><g id="_Group_3" data-name="&lt;Group&gt;"><path id="_Compound_Path_2" data-name="&lt;Compound Path&gt;" class="cls-1" d="M32.48,266.85a36.32,36.32,0,0,0,12.61-4.15,29.48,29.48,0,0,0,9-7.39H71.25L56,326.45H31.81L42.9,274.36H30.8Z" transform="translate(-15.61 -249.05)"/><path id="_Compound_Path_3" data-name="&lt;Compound Path&gt;" class="cls-1" d="M80.94,315.47a96.37,96.37,0,0,0,15-6.22,57.72,57.72,0,0,0,13-9.07,41.27,41.27,0,0,0,9.13-12.38,36.82,36.82,0,0,0,3.42-16.24,21.38,21.38,0,0,0-.89-6.95,3.23,3.23,0,0,0-3.14-2.47,5,5,0,0,0-3.75,1.91,19.79,19.79,0,0,0-3.14,4.82,53.83,53.83,0,0,0-2.58,6.49c-.78,2.4-1.44,4.71-2,6.95H85.75l3.7-16.8a51.16,51.16,0,0,1,13.22-8.35,39.55,39.55,0,0,1,15.69-3,40.34,40.34,0,0,1,10.13,1.23,23.58,23.58,0,0,1,8.29,3.87,19.2,19.2,0,0,1,5.61,6.61,20.25,20.25,0,0,1,2.07,9.46,24.85,24.85,0,0,1-1.4,8.18,28.13,28.13,0,0,1-4.93,8.35,58.94,58.94,0,0,1-9.52,9,144.33,144.33,0,0,1-15.18,10h25l-2.24,15.57H78.47Z" transform="translate(-15.61 -249.05)"/></g></g><g id="_Group_4" data-name="&lt;Group&gt;"><path id="_Compound_Path_4" data-name="&lt;Compound Path&gt;" class="cls-2" d="M78.73,311a10,10,0,0,1-1.16,4.7,18,18,0,0,1-2.93,4.16,21.43,21.43,0,0,1-4,3.34,24.35,24.35,0,0,1-4.34,2.29l-1.8-2.7A24.12,24.12,0,0,0,68,319.6a4.4,4.4,0,0,0,1.19-2.84q0-2.25-3.6-4.89a6.36,6.36,0,0,1,.58-2.77A6.07,6.07,0,0,1,67.76,307,7.27,7.27,0,0,1,70,305.76a8,8,0,0,1,2.64-.46A6.6,6.6,0,0,1,77,306.72,5.24,5.24,0,0,1,78.73,311Z" transform="translate(-15.61 -249.05)"/><g id="_Group_5" data-name="&lt;Group&gt;"><path id="_Compound_Path_5" data-name="&lt;Compound Path&gt;" class="cls-2" d="M35,265.92a36.34,36.34,0,0,0,12.6-4.15,29.48,29.48,0,0,0,9-7.39H73.78L58.55,325.52H34.35l11.09-52.09H33.34Z" transform="translate(-15.61 -249.05)"/><path id="_Compound_Path_6" data-name="&lt;Compound Path&gt;" class="cls-2" d="M83.47,314.54a96,96,0,0,0,15-6.22,57.56,57.56,0,0,0,13-9.07,41.57,41.57,0,0,0,9.13-12.38A36.84,36.84,0,0,0,124,270.62a21,21,0,0,0-.9-6.94,3.22,3.22,0,0,0-3.14-2.47,5.07,5.07,0,0,0-3.75,1.91,19.89,19.89,0,0,0-3.14,4.82,53.2,53.2,0,0,0-2.57,6.49q-1.19,3.58-2,6.95H88.29L92,264.57a51.22,51.22,0,0,1,13.22-8.34,39.5,39.5,0,0,1,15.68-3A40.48,40.48,0,0,1,131,254.49a23.48,23.48,0,0,1,8.29,3.87,19.17,19.17,0,0,1,5.6,6.61,20.25,20.25,0,0,1,2.07,9.46,24.6,24.6,0,0,1-1.4,8.18,27.7,27.7,0,0,1-4.93,8.35,59,59,0,0,1-9.52,9A144.33,144.33,0,0,1,116,310h25l-2.24,15.57H81Z" transform="translate(-15.61 -249.05)"/></g></g><g id="_Group_6" data-name="&lt;Group&gt;"><path id="_Compound_Path_7" data-name="&lt;Compound Path&gt;" class="cls-3" d="M70.84,288.94V287h13v1.9H78.38v14H76.26v-14Z" transform="translate(-15.61 -249.05)"/><path id="_Compound_Path_8" data-name="&lt;Compound Path&gt;" class="cls-3" d="M93.46,291.34h2.18l-2,5.65q-1,2.81-2.14,5.76a18.78,18.78,0,0,1-2,4.24,3.38,3.38,0,0,1-2.52.72l-.3,0-.51-.15v-1.78l.51.15a2.82,2.82,0,0,0,.65.08,1.19,1.19,0,0,0,1-.43,12.55,12.55,0,0,0,1-2.28L85,291.34h2.22l3.06,9.45Zm-2.22-1.14H89.93A3.12,3.12,0,0,1,90.1,289a2.31,2.31,0,0,1,.81-.85,1.25,1.25,0,0,0,.65-1,1,1,0,0,0-.29-.77,1,1,0,0,0-.67-.23,1,1,0,0,0-.83.33,1.42,1.42,0,0,0-.23.82l-1.43,0a2.21,2.21,0,0,1,.78-1.82,2.57,2.57,0,0,1,1.63-.53,3.19,3.19,0,0,1,1.48.33,1.88,1.88,0,0,1,1.06,1.8,1.71,1.71,0,0,1-.27,1,3.9,3.9,0,0,1-.92.87,1.39,1.39,0,0,0-.49.47A1.51,1.51,0,0,0,91.24,290.2Z" transform="translate(-15.61 -249.05)"/></g><g id="_Group_7" data-name="&lt;Group&gt;"><path id="_Compound_Path_9" data-name="&lt;Compound Path&gt;" class="cls-3" d="M33.17,336.84v-.78a3,3,0,0,1,.68-2.16,2.9,2.9,0,0,1,2.17-.71,2.92,2.92,0,0,1,2,.65,2.58,2.58,0,0,1,.7,2,3.45,3.45,0,0,1-.59,2,3.85,3.85,0,0,1-.47.57c-.21.24-.5.52-.84.84a7,7,0,0,0-1.34,1.58l-.13.28-.1.27h3.4v1.87H33v-.62a5.19,5.19,0,0,1,.92-3.1s.58-.63,1.7-1.77a2.85,2.85,0,0,0,.92-2,1.27,1.27,0,0,0-.15-.75.61.61,0,0,0-.47-.18.52.52,0,0,0-.5.23,1.6,1.6,0,0,0-.12.7v1Z" transform="translate(-15.61 -249.05)"/><path id="_Compound_Path_10" data-name="&lt;Compound Path&gt;" class="cls-3" d="M42.66,343.28V333.19h2.49a5,5,0,0,1,2.75.54,3.06,3.06,0,0,1,.84,2.53c0,.34,0,.58,0,.71s0,.33-.1.58a2.3,2.3,0,0,1-.32.77,2.18,2.18,0,0,1-2,1H45v4ZM45,335v2.51h.58a.8.8,0,0,0,.7-.27,2.26,2.26,0,0,0,.16-1c0-.55-.09-.91-.29-1.07a1.59,1.59,0,0,0-.88-.16Z" transform="translate(-15.61 -249.05)"/><path id="_Compound_Path_11" data-name="&lt;Compound Path&gt;" class="cls-3" d="M49.67,343.28V333.19H52V337h1.33v-3.78h2.33v10.09H53.33V339H52v4.3Z" transform="translate(-15.61 -249.05)"/><path id="_Compound_Path_12" data-name="&lt;Compound Path&gt;" class="cls-3" d="M56.69,335.93a2.85,2.85,0,0,1,.84-2.2,3.6,3.6,0,0,1,4.32,0,2.75,2.75,0,0,1,.84,2.18v4.6a2.84,2.84,0,0,1-.81,2.12,3.43,3.43,0,0,1-4.37,0,2.79,2.79,0,0,1-.82-2.13Zm3.71-5.43.55,1.72H59.78l-1.37-1.72ZM59,340.73a1.31,1.31,0,0,0,.16.71.57.57,0,0,0,.51.21.59.59,0,0,0,.58-.35,1.79,1.79,0,0,0,.09-.57v-5a2.18,2.18,0,0,0-.07-.58.69.69,0,0,0-1.18,0,1.78,1.78,0,0,0-.09.59Z" transform="translate(-15.61 -249.05)"/><path id="_Compound_Path_13" data-name="&lt;Compound Path&gt;" class="cls-3" d="M63.7,343.28V333.19h2.54l1.87,5.95,0-5.95h2.25v10.09H67.86L66,337l0,6.24Z" transform="translate(-15.61 -249.05)"/><path id="_Compound_Path_14" data-name="&lt;Compound Path&gt;" class="cls-3" d="M71.41,340.53V336a2.83,2.83,0,0,1,.85-2.2,3.09,3.09,0,0,1,2.15-.72,3.55,3.55,0,0,1,2.08.52,2.2,2.2,0,0,1,.91,1.95v1.12H75.19v-1c0-.53-.24-.8-.73-.8a.69.69,0,0,0-.59.34,1.33,1.33,0,0,0-.13.58v5a1.41,1.41,0,0,0,.15.71.59.59,0,0,0,.52.21.66.66,0,0,0,.74-.75v-1.31h-.82v-1.86H77.4v5.55h-2v-.82a2,2,0,0,1-1.81,1,1.87,1.87,0,0,1-1.69-.88A3.89,3.89,0,0,1,71.41,340.53Z" transform="translate(-15.61 -249.05)"/><path id="_Compound_Path_15" data-name="&lt;Compound Path&gt;" class="cls-3" d="M81.56,343.28V333.19H84.1L86,339.14l0-5.95h2.25v10.09H85.71L83.83,337l0,6.24Z" transform="translate(-15.61 -249.05)"/><path id="_Compound_Path_16" data-name="&lt;Compound Path&gt;" class="cls-3" d="M89.27,340.53V336a2.79,2.79,0,0,1,.85-2.2,3.07,3.07,0,0,1,2.15-.72,3.58,3.58,0,0,1,2.08.52,2.22,2.22,0,0,1,.91,1.95v1.12H93.05v-1c0-.53-.25-.8-.73-.8a.7.7,0,0,0-.6.34,1.48,1.48,0,0,0-.13.58v5a1.41,1.41,0,0,0,.16.71.59.59,0,0,0,.52.21.66.66,0,0,0,.74-.75v-1.31h-.82v-1.86h3.07v5.55h-2v-.82a2.06,2.06,0,0,1-1.82,1,1.88,1.88,0,0,1-1.69-.88A4,4,0,0,1,89.27,340.53Z" transform="translate(-15.61 -249.05)"/><path id="_Compound_Path_17" data-name="&lt;Compound Path&gt;" class="cls-3" d="M96.29,333.18h2.32v7.37a2.09,2.09,0,0,0,.1.77c.06.17.25.25.57.25a.66.66,0,0,0,.51-.19,1.5,1.5,0,0,0,.16-.83v-7.37h2.33v7.35a2.87,2.87,0,0,1-.8,2.12,3.43,3.43,0,0,1-4.37,0,2.79,2.79,0,0,1-.82-2.13Zm2.57-.53a1.59,1.59,0,0,1,.25-.75l.49-.61a1,1,0,0,0,.26-.62.88.88,0,0,0-.06-.35.27.27,0,0,0-.28-.14.29.29,0,0,0-.26.15,1.19,1.19,0,0,0-.08.4v.35h-.93v-.42a1.12,1.12,0,0,1,.35-.86,1.3,1.3,0,0,1,1-.34,1.57,1.57,0,0,1,1,.28,1.12,1.12,0,0,1,.34.89,1.36,1.36,0,0,1-.32.85l-.6.64a1.66,1.66,0,0,0-.27.53Z" transform="translate(-15.61 -249.05)"/><path id="_Compound_Path_18" data-name="&lt;Compound Path&gt;" class="cls-3" d="M105.4,343.44,108.15,333h1.79l-2.75,10.41Z" transform="translate(-15.61 -249.05)"/><path id="_Compound_Path_19" data-name="&lt;Compound Path&gt;" class="cls-3" d="M113,336.84v-.78a3,3,0,0,1,.68-2.16,3.58,3.58,0,0,1,4.2-.06,2.62,2.62,0,0,1,.7,2,3.53,3.53,0,0,1-.59,2,4.62,4.62,0,0,1-.47.57c-.22.24-.5.52-.85.84a6.9,6.9,0,0,0-1.33,1.58l-.13.28-.1.27h3.39v1.87h-5.7v-.62a5.19,5.19,0,0,1,.91-3.1s.58-.63,1.7-1.77a2.83,2.83,0,0,0,.93-2,1.25,1.25,0,0,0-.16-.75.61.61,0,0,0-.47-.18.5.5,0,0,0-.49.23,1.6,1.6,0,0,0-.12.7v1Z" transform="translate(-15.61 -249.05)"/><path id="_Compound_Path_20" data-name="&lt;Compound Path&gt;" class="cls-3" d="M120.77,343.28l-1.72-10.09h2.39l.82,7.18.77-7.18h2.26l.71,7.18.85-7.18h2.34l-1.77,10.09h-2.59l-.68-6.21-.79,6.21Z" transform="translate(-15.61 -249.05)"/><path id="_Compound_Path_21" data-name="&lt;Compound Path&gt;" class="cls-3" d="M129.9,340.53V336a2.82,2.82,0,0,1,.84-2.2,3.54,3.54,0,0,1,4.32,0,2.75,2.75,0,0,1,.82,2.17v.93h-2.32v-1.14a2.24,2.24,0,0,0-.07-.58.61.61,0,0,0-.6-.34.59.59,0,0,0-.58.33,1.83,1.83,0,0,0-.09.59v5a1.31,1.31,0,0,0,.16.71.57.57,0,0,0,.51.21.59.59,0,0,0,.58-.35,1.79,1.79,0,0,0,.09-.57v-1.48h2.32v1.28a2.86,2.86,0,0,1-.8,2.12,3.42,3.42,0,0,1-4.36,0A2.79,2.79,0,0,1,129.9,340.53Z" transform="translate(-15.61 -249.05)"/></g><g id="_Group_8" data-name="&lt;Group&gt;"><path id="_Compound_Path_22" data-name="&lt;Compound Path&gt;" class="cls-3" d="M23,252.66h-1.1a2,2,0,0,0-1-1.43,2.72,2.72,0,0,0-1.37-.33,2.52,2.52,0,0,0-2,.83,3.68,3.68,0,0,0-.81,2.53,4.34,4.34,0,0,0,.61,2.5,2.49,2.49,0,0,0,2.18,1,2.32,2.32,0,0,0,1.35-.41,3,3,0,0,0,1.08-1.9h1.11a4,4,0,0,1-1.22,2.47,3.61,3.61,0,0,1-2.48.87,3.53,3.53,0,0,1-2.62-1,4.78,4.78,0,0,1-1.19-3.48,4.65,4.65,0,0,1,1.06-3.18,3.64,3.64,0,0,1,2.89-1.22,3.56,3.56,0,0,1,2.48.85A3,3,0,0,1,23,252.66Z" transform="translate(-15.61 -249.05)"/><path id="_Compound_Path_23" data-name="&lt;Compound Path&gt;" class="cls-3" d="M29.88,254.38v4.19h-1v-4a1.7,1.7,0,0,0-.24-1,1.13,1.13,0,0,0-1-.37,1.62,1.62,0,0,0-1.18.43,2.17,2.17,0,0,0-.54,1.61v3.37h-1v-8.45h1v3.11a3,3,0,0,1,.65-.64,2,2,0,0,1,1.16-.35,2.37,2.37,0,0,1,1.45.4A2,2,0,0,1,29.88,254.38Z" transform="translate(-15.61 -249.05)"/><path id="_Compound_Path_24" data-name="&lt;Compound Path&gt;" class="cls-3" d="M32.65,251.8H32a1.56,1.56,0,0,1,.09-.61,1.18,1.18,0,0,1,.43-.45.69.69,0,0,0,.34-.54.47.47,0,0,0-.16-.4.55.55,0,0,0-.35-.12.49.49,0,0,0-.44.17.75.75,0,0,0-.12.43l-.75,0a1.16,1.16,0,0,1,.41-1,1.3,1.3,0,0,1,.85-.28,1.65,1.65,0,0,1,.79.18,1,1,0,0,1,.57,1,.89.89,0,0,1-.15.52,2,2,0,0,1-.49.46.89.89,0,0,0-.26.25A.93.93,0,0,0,32.65,251.8Zm.17.6v6.17h-1V252.4Z" transform="translate(-15.61 -249.05)"/><path id="_Compound_Path_25" data-name="&lt;Compound Path&gt;" class="cls-3" d="M40.28,253.27h-1v4a.41.41,0,0,0,.22.41.82.82,0,0,0,.39.07h.38v.82l-.78.09a1.19,1.19,0,0,1-1-.39,1.52,1.52,0,0,1-.24-.95v-4h-.84v-.87h.84v-1.71h1v1.71h1Z" transform="translate(-15.61 -249.05)"/><path id="_Compound_Path_26" data-name="&lt;Compound Path&gt;" class="cls-3" d="M46.46,252.8a.46.46,0,0,0,.18-.11l.08-.1a.57.57,0,0,0,.2-.3,1.59,1.59,0,0,0,0-.4H46.3v-.73h1.13v1a1,1,0,0,1-.35.69,2,2,0,0,1-.62.39v5.3h-1v-.9l0,0a2.24,2.24,0,0,1-.78.83,2.2,2.2,0,0,1-1.17.28,2.15,2.15,0,0,1-1.33-.41,1.79,1.79,0,0,1-.67-1.52V252.4h1v4.1a1.39,1.39,0,0,0,.34,1,1.15,1.15,0,0,0,.86.3,1.48,1.48,0,0,0,1.33-.69,2.42,2.42,0,0,0,.36-1.36V252.4h1Zm-2.76-1.22-1.55-1.65h1.29l1,1.65Z" transform="translate(-15.61 -249.05)"/></g><line id="_Path_" data-name="&lt;Path&gt;" class="cls-4" x1="17.08" y1="96.17" x2="124.44" y2="96.17"/></g></svg>