<svg id="Layer_1" data-name="Layer 1" xmlns="http://www.w3.org/2000/svg" xmlns:xlink="http://www.w3.org/1999/xlink" viewBox="0 0 141.66 141"><defs><style>.cls-1{fill:#fff;}.cls-2{fill:url(#linear-gradient);}.cls-3{fill:url(#linear-gradient-2);}.cls-4{fill:url(#linear-gradient-3);}.cls-5{fill:url(#linear-gradient-4);}.cls-6{fill:url(#linear-gradient-5);}.cls-7{fill:url(#linear-gradient-6);}.cls-8{fill:url(#linear-gradient-7);}.cls-9{fill:url(#linear-gradient-8);}.cls-10{fill:url(#linear-gradient-9);}.cls-11{fill:url(#linear-gradient-10);}.cls-12{fill:url(#linear-gradient-11);}.cls-13{fill:url(#linear-gradient-12);}.cls-14{fill:url(#linear-gradient-13);}.cls-15{fill:url(#linear-gradient-14);}.cls-16{fill:url(#linear-gradient-15);}.cls-17{fill:url(#linear-gradient-16);}.cls-18{fill:url(#linear-gradient-17);}.cls-19{fill:url(#linear-gradient-18);}.cls-20{fill:url(#linear-gradient-19);}.cls-21{fill:url(#linear-gradient-20);}.cls-22{fill:url(#linear-gradient-21);}.cls-23{fill:url(#linear-gradient-22);}.cls-24{fill:url(#linear-gradient-23);}.cls-25{fill:url(#linear-gradient-24);}.cls-26{fill:url(#linear-gradient-25);}.cls-27{fill:url(#linear-gradient-26);}.cls-28{fill:url(#linear-gradient-27);}.cls-29{fill:url(#linear-gradient-28);}.cls-30{fill:url(#linear-gradient-29);}.cls-31{fill:url(#linear-gradient-30);}.cls-32{fill:url(#linear-gradient-31);}.cls-33{fill:url(#linear-gradient-32);}.cls-34{fill:url(#linear-gradient-33);}.cls-35{fill:url(#linear-gradient-34);}.cls-36{fill:url(#linear-gradient-35);}.cls-37{fill:url(#linear-gradient-36);}.cls-38{fill:url(#linear-gradient-37);}.cls-39{fill:url(#linear-gradient-38);}.cls-40{fill:url(#linear-gradient-39);}.cls-41{fill:url(#linear-gradient-40);}.cls-42{fill:url(#linear-gradient-41);}.cls-43{fill:url(#linear-gradient-42);}.cls-44{fill:url(#linear-gradient-43);}.cls-45{fill:url(#linear-gradient-44);}.cls-46{fill:url(#linear-gradient-45);}.cls-47{fill:url(#linear-gradient-46);}.cls-48{fill:url(#linear-gradient-47);}.cls-49{fill:url(#linear-gradient-48);}.cls-50{fill:url(#linear-gradient-49);}.cls-51{fill:url(#linear-gradient-50);}.cls-52{fill:url(#linear-gradient-51);}.cls-53{fill:url(#linear-gradient-52);}.cls-54{fill:url(#linear-gradient-53);}.cls-55{fill:url(#linear-gradient-54);}.cls-56{fill:url(#linear-gradient-55);}.cls-57{fill:url(#linear-gradient-56);}.cls-58{fill:url(#linear-gradient-57);}.cls-59{fill:url(#linear-gradient-58);}.cls-60{fill:url(#linear-gradient-59);}.cls-61{fill:url(#linear-gradient-60);}.cls-62{fill:url(#linear-gradient-61);}.cls-63{fill:url(#linear-gradient-62);}.cls-64,.cls-65{fill:none;stroke-miterlimit:10;}.cls-64{stroke:url(#linear-gradient-63);}.cls-65{stroke:url(#linear-gradient-64);}</style><linearGradient id="linear-gradient" x1="116.81" y1="217.31" x2="-7.63" y2="282.44" gradientUnits="userSpaceOnUse"><stop offset="0" stop-color="#edc87e"/><stop offset="0.33" stop-color="#e2bb75"/><stop offset="0.46" stop-color="#f2eac3"/><stop offset="0.58" stop-color="#e2bb75"/><stop offset="1" stop-color="#e2bb75"/></linearGradient><linearGradient id="linear-gradient-2" x1="118.56" y1="220.67" x2="-5.87" y2="285.79" xlink:href="#linear-gradient"/><linearGradient id="linear-gradient-3" x1="120.44" y1="224.25" x2="-4" y2="289.37" xlink:href="#linear-gradient"/><linearGradient id="linear-gradient-4" x1="121.81" y1="226.87" x2="-2.63" y2="291.99" xlink:href="#linear-gradient"/><linearGradient id="linear-gradient-5" x1="124.42" y1="231.86" x2="-0.02" y2="296.98" xlink:href="#linear-gradient"/><linearGradient id="linear-gradient-6" x1="126.06" y1="234.98" x2="1.62" y2="300.1" xlink:href="#linear-gradient"/><linearGradient id="linear-gradient-7" x1="127.79" y1="238.29" x2="3.35" y2="303.41" xlink:href="#linear-gradient"/><linearGradient id="linear-gradient-8" x1="129.51" y1="241.59" x2="5.08" y2="306.71" xlink:href="#linear-gradient"/><linearGradient id="linear-gradient-9" x1="131.73" y1="245.82" x2="7.29" y2="310.94" xlink:href="#linear-gradient"/><linearGradient id="linear-gradient-10" x1="133.75" y1="249.69" x2="9.31" y2="314.81" xlink:href="#linear-gradient"/><linearGradient id="linear-gradient-11" x1="135.34" y1="252.72" x2="10.9" y2="317.85" xlink:href="#linear-gradient"/><linearGradient id="linear-gradient-12" x1="138.41" y1="258.59" x2="13.97" y2="323.71" xlink:href="#linear-gradient"/><linearGradient id="linear-gradient-13" x1="140.12" y1="261.85" x2="15.68" y2="326.98" xlink:href="#linear-gradient"/><linearGradient id="linear-gradient-14" x1="141.71" y1="264.9" x2="17.27" y2="330.02" xlink:href="#linear-gradient"/><linearGradient id="linear-gradient-15" x1="143.11" y1="267.57" x2="18.67" y2="332.7" xlink:href="#linear-gradient"/><linearGradient id="linear-gradient-16" x1="144.6" y1="270.42" x2="20.17" y2="335.55" xlink:href="#linear-gradient"/><linearGradient id="linear-gradient-17" x1="146.13" y1="273.34" x2="21.69" y2="338.46" xlink:href="#linear-gradient"/><linearGradient id="linear-gradient-18" x1="90.89" y1="208.85" x2="26.32" y2="253.1" xlink:href="#linear-gradient"/><linearGradient id="linear-gradient-19" x1="92.41" y1="211.06" x2="27.83" y2="255.31" xlink:href="#linear-gradient"/><linearGradient id="linear-gradient-20" x1="99.73" y1="221.75" x2="35.16" y2="266" xlink:href="#linear-gradient"/><linearGradient id="linear-gradient-21" x1="104" y1="227.98" x2="39.43" y2="272.23" xlink:href="#linear-gradient"/><linearGradient id="linear-gradient-22" x1="109.56" y1="236.09" x2="44.98" y2="280.34" xlink:href="#linear-gradient"/><linearGradient id="linear-gradient-23" x1="114.42" y1="243.18" x2="49.84" y2="287.43" xlink:href="#linear-gradient"/><linearGradient id="linear-gradient-24" x1="120.38" y1="251.89" x2="55.81" y2="296.14" xlink:href="#linear-gradient"/><linearGradient id="linear-gradient-25" x1="124.53" y1="257.94" x2="59.96" y2="302.19" xlink:href="#linear-gradient"/><linearGradient id="linear-gradient-26" x1="140.61" y1="232.26" x2="-5.87" y2="386.91" xlink:href="#linear-gradient"/><linearGradient id="linear-gradient-27" x1="143.56" y1="235.05" x2="-2.92" y2="389.71" xlink:href="#linear-gradient"/><linearGradient id="linear-gradient-28" x1="146.2" y1="237.55" x2="-0.28" y2="392.21" xlink:href="#linear-gradient"/><linearGradient id="linear-gradient-29" x1="149.14" y1="240.34" x2="2.66" y2="394.99" xlink:href="#linear-gradient"/><linearGradient id="linear-gradient-30" x1="152.6" y1="243.61" x2="6.12" y2="398.26" xlink:href="#linear-gradient"/><linearGradient id="linear-gradient-31" x1="155.33" y1="246.2" x2="8.85" y2="400.85" xlink:href="#linear-gradient"/><linearGradient id="linear-gradient-32" x1="158.74" y1="249.43" x2="12.26" y2="404.08" xlink:href="#linear-gradient"/><linearGradient id="linear-gradient-33" x1="162.5" y1="252.99" x2="16.02" y2="407.65" xlink:href="#linear-gradient"/><linearGradient id="linear-gradient-34" x1="167.37" y1="257.6" x2="20.88" y2="412.25" xlink:href="#linear-gradient"/><linearGradient id="linear-gradient-35" x1="171.13" y1="261.16" x2="24.64" y2="415.81" xlink:href="#linear-gradient"/><linearGradient id="linear-gradient-36" x1="172.71" y1="262.66" x2="26.23" y2="417.32" xlink:href="#linear-gradient"/><linearGradient id="linear-gradient-37" x1="176.73" y1="266.47" x2="30.25" y2="421.12" xlink:href="#linear-gradient"/><linearGradient id="linear-gradient-38" x1="181.06" y1="270.57" x2="34.58" y2="425.23" xlink:href="#linear-gradient"/><linearGradient id="linear-gradient-39" x1="182.82" y1="272.23" x2="36.34" y2="426.89" xlink:href="#linear-gradient"/><linearGradient id="linear-gradient-40" x1="185.5" y1="274.78" x2="39.02" y2="429.43" xlink:href="#linear-gradient"/><linearGradient id="linear-gradient-41" x1="135.64" y1="227.55" x2="-10.84" y2="382.2" xlink:href="#linear-gradient"/><linearGradient id="linear-gradient-42" x1="138.93" y1="230.67" x2="-7.55" y2="385.32" xlink:href="#linear-gradient"/><linearGradient id="linear-gradient-43" x1="142.62" y1="234.16" x2="-3.86" y2="388.82" xlink:href="#linear-gradient"/><linearGradient id="linear-gradient-44" x1="146.88" y1="238.19" x2="0.39" y2="392.85" xlink:href="#linear-gradient"/><linearGradient id="linear-gradient-45" x1="150.02" y1="241.17" x2="3.54" y2="395.83" xlink:href="#linear-gradient"/><linearGradient id="linear-gradient-46" x1="152.84" y1="243.84" x2="6.36" y2="398.49" xlink:href="#linear-gradient"/><linearGradient id="linear-gradient-47" x1="154.99" y1="245.88" x2="8.51" y2="400.53" xlink:href="#linear-gradient"/><linearGradient id="linear-gradient-48" x1="157.88" y1="248.61" x2="11.4" y2="403.27" xlink:href="#linear-gradient"/><linearGradient id="linear-gradient-49" x1="161.56" y1="252.1" x2="15.08" y2="406.76" xlink:href="#linear-gradient"/><linearGradient id="linear-gradient-50" x1="164.38" y1="254.77" x2="17.9" y2="409.43" xlink:href="#linear-gradient"/><linearGradient id="linear-gradient-51" x1="167.27" y1="257.51" x2="20.79" y2="412.16" xlink:href="#linear-gradient"/><linearGradient id="linear-gradient-52" x1="169.81" y1="259.92" x2="23.33" y2="414.57" xlink:href="#linear-gradient"/><linearGradient id="linear-gradient-53" x1="172.87" y1="262.81" x2="26.39" y2="417.46" xlink:href="#linear-gradient"/><linearGradient id="linear-gradient-54" x1="176.07" y1="265.85" x2="29.59" y2="420.5" xlink:href="#linear-gradient"/><linearGradient id="linear-gradient-55" x1="178.92" y1="268.54" x2="32.44" y2="423.2" xlink:href="#linear-gradient"/><linearGradient id="linear-gradient-56" x1="181.87" y1="271.33" x2="35.39" y2="425.99" xlink:href="#linear-gradient"/><linearGradient id="linear-gradient-57" x1="184.59" y1="273.92" x2="38.11" y2="428.57" xlink:href="#linear-gradient"/><linearGradient id="linear-gradient-58" x1="189.94" y1="278.98" x2="43.46" y2="433.64" xlink:href="#linear-gradient"/><linearGradient id="linear-gradient-59" x1="193.28" y1="282.15" x2="46.8" y2="436.8" xlink:href="#linear-gradient"/><linearGradient id="linear-gradient-60" x1="196" y1="284.72" x2="49.52" y2="439.38" xlink:href="#linear-gradient"/><linearGradient id="linear-gradient-61" x1="199.01" y1="287.57" x2="52.53" y2="442.23" xlink:href="#linear-gradient"/><linearGradient id="linear-gradient-62" x1="202.7" y1="291.07" x2="56.22" y2="445.72" xlink:href="#linear-gradient"/><linearGradient id="linear-gradient-63" x1="0.9" y1="0.5" x2="140.9" y2="0.5" gradientUnits="userSpaceOnUse"><stop offset="0" stop-color="#e2bb75" stop-opacity="0"/><stop offset="0.46" stop-color="#f2eac3"/><stop offset="1" stop-color="#e2bb75" stop-opacity="0"/></linearGradient><linearGradient id="linear-gradient-64" x1="0.9" y1="140.5" x2="140.9" y2="140.5" xlink:href="#linear-gradient-63"/></defs><title>le cong bo</title><path class="cls-1" d="M52.89,300a4.69,4.69,0,0,1-1.12,3.33,3.79,3.79,0,0,1-3,1.21,3.86,3.86,0,0,1-3-1.21A4.73,4.73,0,0,1,44.73,300v-3.32a4.79,4.79,0,0,1,1.11-3.34,4.24,4.24,0,0,1,5.93,0,4.8,4.8,0,0,1,1.12,3.34Zm-2.41-3.57a3.09,3.09,0,0,0-.45-1.8,1.5,1.5,0,0,0-2.46,0,3.17,3.17,0,0,0-.43,1.8v3.8a3.12,3.12,0,0,0,.44,1.82,1.5,1.5,0,0,0,2.46,0,3.2,3.2,0,0,0,.44-1.82Z" transform="translate(-9.27 -231.38)"/><path class="cls-1" d="M62.75,294.17A15.5,15.5,0,0,0,60,298.48a12.22,12.22,0,0,0-.74,4.4v1.49H56.81v-1.49a11.28,11.28,0,0,1,.92-4.6,16.93,16.93,0,0,1,2.69-4.11H54.27V292.3h8.48Z" transform="translate(-9.27 -231.38)"/><path class="cls-1" d="M67,297.11H64.61V295H67Zm0,7.26H64.61v-2.12H67Z" transform="translate(-9.27 -231.38)"/><path class="cls-1" d="M73,297.27a1.71,1.71,0,0,0,1.28-.44,1.78,1.78,0,0,0,.42-1.26,1.55,1.55,0,0,0-.44-1.13,1.65,1.65,0,0,0-1.23-.45,1.6,1.6,0,0,0-1.11.41,1.33,1.33,0,0,0-.46,1H69.17l0-.05a2.74,2.74,0,0,1,1.09-2.33,4.36,4.36,0,0,1,2.83-.92,4.64,4.64,0,0,1,3,.88,3.06,3.06,0,0,1,1.1,2.53,2.61,2.61,0,0,1-.48,1.52,3.24,3.24,0,0,1-1.3,1.09,3.12,3.12,0,0,1,1.46,1.08,3,3,0,0,1,.51,1.76,3.13,3.13,0,0,1-1.2,2.6,4.75,4.75,0,0,1-3.07,1,4.8,4.8,0,0,1-2.88-.89,2.84,2.84,0,0,1-1.2-2.51l0-.05h2.35a1.53,1.53,0,0,0,.48,1.14,1.73,1.73,0,0,0,1.23.46,1.89,1.89,0,0,0,1.34-.49,1.62,1.62,0,0,0,.52-1.24,1.88,1.88,0,0,0-.48-1.41,2,2,0,0,0-1.41-.46H71.7v-1.82Z" transform="translate(-9.27 -231.38)"/><path class="cls-1" d="M86.93,300a4.69,4.69,0,0,1-1.12,3.33,3.79,3.79,0,0,1-3,1.21,3.86,3.86,0,0,1-3-1.21A4.74,4.74,0,0,1,78.76,300v-3.32a4.8,4.8,0,0,1,1.12-3.34,4.24,4.24,0,0,1,5.93,0,4.8,4.8,0,0,1,1.12,3.34Zm-2.41-3.57a3.09,3.09,0,0,0-.45-1.8,1.5,1.5,0,0,0-2.46,0,3.17,3.17,0,0,0-.43,1.8v3.8a3.12,3.12,0,0,0,.44,1.82,1.5,1.5,0,0,0,2.46,0,3.2,3.2,0,0,0,.44-1.82Z" transform="translate(-9.27 -231.38)"/><path class="cls-1" d="M95.12,301.77H91.21l-.82,2.6H87.87l4.06-12.07h2.48l4.06,12.07H95.94Zm-3.32-1.9h2.73l-1.34-4.25h0Z" transform="translate(-9.27 -231.38)"/><path class="cls-1" d="M105.87,301.19h0l3.1-8.89h3.15v12.07h-2.42v-8.24h0l-3,8.25h-1.64l-3-8.27h0v8.26H99.63V292.3h3.17Z" transform="translate(-9.27 -231.38)"/><path class="cls-1" d="M27.85,316.79l0,0a2.52,2.52,0,0,1-.79,2,3.19,3.19,0,0,1-2.23.73,3.07,3.07,0,0,1-2.33-.93,3.31,3.31,0,0,1-.89-2.41v-1.59a3.41,3.41,0,0,1,.87-2.41,2.94,2.94,0,0,1,2.27-.93,3.39,3.39,0,0,1,2.3.71,2.51,2.51,0,0,1,.81,2v0H26.3a1.56,1.56,0,0,0-.38-1.15,1.51,1.51,0,0,0-1.15-.38,1.3,1.3,0,0,0-1.13.58,2.59,2.59,0,0,0-.4,1.51v1.6a2.55,2.55,0,0,0,.42,1.52,1.61,1.61,0,0,0,2.27.21,1.66,1.66,0,0,0,.36-1.17Z" transform="translate(-9.27 -231.38)"/><path class="cls-1" d="M35.52,319.46H33.91v-3.35H30.63v3.35H29v-8h1.61v3.46h3.28v-3.46h1.61Z" transform="translate(-9.27 -231.38)"/><path class="cls-1" d="M43.38,311.41v5.27a2.64,2.64,0,0,1-.9,2.12,3.44,3.44,0,0,1-2.34.77,3.4,3.4,0,0,1-2.32-.77,2.66,2.66,0,0,1-.89-2.12v-5.27h1.62v5.27a1.65,1.65,0,0,0,.43,1.23,1.57,1.57,0,0,0,1.16.42,1.66,1.66,0,0,0,1.19-.42,1.65,1.65,0,0,0,.43-1.23v-5.27Zm-3.83-.72-.09-.75a2.05,2.05,0,0,0,.59-.1.22.22,0,0,0,.14-.25v0a.24.24,0,0,0-.17-.27,1.5,1.5,0,0,0-.58-.09l0-.73a3.42,3.42,0,0,1,1.56.28.87.87,0,0,1,.55.79.7.7,0,0,1-.24.56,1.16,1.16,0,0,1-.59.24v.36Z" transform="translate(-9.27 -231.38)"/><path class="cls-1" d="M54.1,319.46H52.49L49.24,314h0v5.42H47.6v-8h1.61l3.24,5.42h0v-5.42H54.1Z" transform="translate(-9.27 -231.38)"/><path class="cls-1" d="M62.09,319.46H60.47v-3.35H57.2v3.35H55.58v-8H57.2v3.46h3.27v-3.46h1.62Z" transform="translate(-9.27 -231.38)"/><path class="cls-1" d="M67.86,317.72H65.25l-.54,1.74H63l2.72-8h1.65l2.7,8H68.41Zm.73-7.19v.13H67.31l-.78-.74-.77.74H64.51v-.14l1.56-1.33H67Zm-2.94,5.93h1.82l-.89-2.84h0Zm1.81,5H65.65v-1.33h1.81Z" transform="translate(-9.27 -231.38)"/><path class="cls-1" d="M76,312.65h-2.3v6.81H72.07v-6.81H69.8v-1.24H76Z" transform="translate(-9.27 -231.38)"/><path class="cls-1" d="M77,319.38l-.87,1.74H75.05l.38-1.79v-1.26H77Z" transform="translate(-9.27 -231.38)"/><path class="cls-1" d="M84.83,319.46h-1.6v-6.65H81.56v-1.23l3.27-.28Z" transform="translate(-9.27 -231.38)"/><path class="cls-1" d="M91.33,319.46H89.72v-6.65H88.05v-1.23l3.28-.28Z" transform="translate(-9.27 -231.38)"/><path class="cls-1" d="M95.83,319.46H94.22V318h1.61Z" transform="translate(-9.27 -231.38)"/><path class="cls-1" d="M101.11,319.46H99.5v-6.65H97.84v-1.23l3.27-.28Z" transform="translate(-9.27 -231.38)"/><path class="cls-1" d="M107.6,319.46H106v-6.65h-1.67v-1.23l3.27-.28Z" transform="translate(-9.27 -231.38)"/><path class="cls-1" d="M112.11,319.46h-1.62V318h1.62Z" transform="translate(-9.27 -231.38)"/><path class="cls-1" d="M119,319.46h-5.4V318.4l2.49-2.82a6.22,6.22,0,0,0,.79-1.11,1.8,1.8,0,0,0,.24-.84,1.22,1.22,0,0,0-.25-.79.93.93,0,0,0-.75-.3,1,1,0,0,0-.81.38,1.57,1.57,0,0,0-.29,1h-1.57v0a2.37,2.37,0,0,1,.71-1.81,2.63,2.63,0,0,1,2-.74,2.75,2.75,0,0,1,1.93.63,2.22,2.22,0,0,1,.68,1.7,2.45,2.45,0,0,1-.38,1.32,14.61,14.61,0,0,1-1.33,1.65l-1.32,1.59v0H119Z" transform="translate(-9.27 -231.38)"/><path class="cls-1" d="M125.45,316.54a3.19,3.19,0,0,1-.74,2.23,2.58,2.58,0,0,1-2,.8,2.61,2.61,0,0,1-2-.8,3.19,3.19,0,0,1-.74-2.23v-2.21a3.18,3.18,0,0,1,.74-2.22,2.81,2.81,0,0,1,4,0,3.14,3.14,0,0,1,.75,2.22Zm-1.61-2.38a2.17,2.17,0,0,0-.29-1.2,1,1,0,0,0-.82-.42.93.93,0,0,0-.82.42,2.09,2.09,0,0,0-.29,1.2v2.54a2.06,2.06,0,0,0,.29,1.21.94.94,0,0,0,.83.42.92.92,0,0,0,.81-.42,2.06,2.06,0,0,0,.29-1.21Z" transform="translate(-9.27 -231.38)"/><path class="cls-1" d="M130.37,319.46h-1.6v-6.65H127.1v-1.23l3.27-.28Z" transform="translate(-9.27 -231.38)"/><path class="cls-1" d="M138.3,313.5a1.83,1.83,0,0,1-.31,1.06,2,2,0,0,1-.85.72,2.46,2.46,0,0,1,1.05.78,1.87,1.87,0,0,1,.38,1.15,2.11,2.11,0,0,1-.77,1.74,3.06,3.06,0,0,1-2,.62,3.3,3.3,0,0,1-2.08-.62,2.06,2.06,0,0,1-.81-1.74,1.77,1.77,0,0,1,.4-1.15,2.53,2.53,0,0,1,1.09-.78,2.15,2.15,0,0,1-.9-.72,1.84,1.84,0,0,1-.32-1.06,1.93,1.93,0,0,1,.73-1.63,3,3,0,0,1,1.88-.57,2.78,2.78,0,0,1,1.81.57A2,2,0,0,1,138.3,313.5ZM137,317.14a1.24,1.24,0,0,0-.33-.89,1.12,1.12,0,0,0-.83-.34,1.25,1.25,0,0,0-.9.34,1.18,1.18,0,0,0-.36.89,1.12,1.12,0,0,0,.36.87,1.27,1.27,0,0,0,.91.32,1.08,1.08,0,0,0,.82-.32A1.18,1.18,0,0,0,137,317.14Zm-.27-3.57a1.09,1.09,0,0,0-.24-.75.83.83,0,0,0-.65-.28,1,1,0,0,0-.72.27,1,1,0,0,0-.27.76,1.13,1.13,0,0,0,.27.79.93.93,0,0,0,.73.31.77.77,0,0,0,.64-.3A1.25,1.25,0,0,0,136.69,313.57Z" transform="translate(-9.27 -231.38)"/><path class="cls-2" d="M13.18,270.18v6.71H11v-6.71H9.27v-1.94h5.61v1.94Z" transform="translate(-9.27 -231.38)"/><path class="cls-3" d="M20.8,276.89v-3.45H18v3.45H15.76v-8.65H18v3.26H20.8v-3.26H23v8.65Z" transform="translate(-9.27 -231.38)"/><path class="cls-4" d="M30.15,276.89l-.42-1.25h-3l-.45,1.25H23.89l3.47-8.65H29.1l3.44,8.65Zm-2.86-9.06-.54-1.15,2.8-1.51.62,1.38Zm1,3.11h0l-.89,2.95h1.81Z" transform="translate(-9.27 -231.38)"/><path class="cls-5" d="M39.71,272.4a2.69,2.69,0,0,1-.68,1,2.82,2.82,0,0,1-1.19.61,5.34,5.34,0,0,1-1.34.13h-1v2.71H33.43v-8.65h2.83l.69,0a7,7,0,0,1,.71.08,2.6,2.6,0,0,1,1.26.54,2.82,2.82,0,0,1,1,2.28A3.49,3.49,0,0,1,39.71,272.4Zm-2.34-2a2.39,2.39,0,0,0-1-.17h-.81v2.06h.89a1.94,1.94,0,0,0,1-.19.92.92,0,0,0,.41-.85A.89.89,0,0,0,37.37,270.35Z" transform="translate(-9.27 -231.38)"/><path class="cls-6" d="M47.37,276.89h-3v-8.65h2.87a7.46,7.46,0,0,1,1.12.07,3.83,3.83,0,0,1,1,.24A3.57,3.57,0,0,1,51,269.86a4.48,4.48,0,0,1,.79,2.69Q51.82,276.89,47.37,276.89Zm1.74-6a1.92,1.92,0,0,0-1.6-.69h-1V275h1a2,2,0,0,0,1.62-.66,3.15,3.15,0,0,0,0-3.42Z" transform="translate(-9.27 -231.38)"/><path class="cls-7" d="M53.13,276.89v-8.65h2.21v8.65Z" transform="translate(-9.27 -231.38)"/><path class="cls-8" d="M62.48,276.89l-.42-1.25h-3l-.45,1.25H56.22l3.47-8.65h1.74l3.44,8.65Zm-1.9-5.95h0l-.89,2.95h1.81Z" transform="translate(-9.27 -231.38)"/><path class="cls-9" d="M72.85,276.89l.07-6.47,0,0-1.85,6.5H69.59l-1.85-6.5,0,0,.07,6.47h-2v-8.65H68.6l1.72,5.7h0l1.7-5.7h2.84v8.65Z" transform="translate(-9.27 -231.38)"/><path class="cls-10" d="M83.86,275.77a4.69,4.69,0,0,1-6.43,0,4.12,4.12,0,0,1-1.36-3.12,4.94,4.94,0,0,1,.34-1.85,3.64,3.64,0,0,1,.56-1,4.34,4.34,0,0,1,3.66-1.78,4.45,4.45,0,0,1,3.23,1.29,4.51,4.51,0,0,1,0,6.4Zm-1.51-5a2.28,2.28,0,0,0-3.42,0,2.51,2.51,0,0,0-.65,1.77,2.64,2.64,0,0,0,.65,1.8,2.23,2.23,0,0,0,1.73.77,2.14,2.14,0,0,0,1.69-.78,2.77,2.77,0,0,0,0-3.54Z" transform="translate(-9.27 -231.38)"/><path class="cls-11" d="M91.76,276.89l-3.29-5.26h0l.06,5.25H86.39v-8.65h1.9l3.35,5.44,0,0-.1-5.42h2.12v8.65Z" transform="translate(-9.27 -231.38)"/><path class="cls-12" d="M98.16,276.89h-3v-8.65H98a7.46,7.46,0,0,1,1.12.07,3.83,3.83,0,0,1,1,.24,3.5,3.5,0,0,1,1.68,1.31,4.42,4.42,0,0,1,.8,2.69Q102.61,276.89,98.16,276.89Zm1.74-6a1.92,1.92,0,0,0-1.6-.69h-1V275h1a2,2,0,0,0,1.62-.66,3.15,3.15,0,0,0,0-3.42Z" transform="translate(-9.27 -231.38)"/><path class="cls-13" d="M116.1,273.66a4.45,4.45,0,0,1-4.37,3.4,4.45,4.45,0,0,1-3.22-1.3,4.31,4.31,0,0,1-1.34-3.2,4.26,4.26,0,0,1,1.33-3.19,4.42,4.42,0,0,1,3.21-1.29,4.32,4.32,0,0,1,3.81,2,3.65,3.65,0,0,1,.58,1.42h-2.31A2.11,2.11,0,0,0,111.7,270a2.18,2.18,0,0,0-1.69.76,2.82,2.82,0,0,0,0,3.55,2.12,2.12,0,0,0,1.7.79,2.2,2.2,0,0,0,2.08-1.46Z" transform="translate(-9.27 -231.38)"/><path class="cls-14" d="M117.24,276.89v-8.65h4.81v1.94h-2.69v1.35H122v1.94h-2.6V275h2.69v1.94Z" transform="translate(-9.27 -231.38)"/><path class="cls-15" d="M128.79,276.89l-3.3-5.26h0l.06,5.25h-2.12v-8.65h1.91l3.34,5.44,0,0-.09-5.42h2.11v8.65Z" transform="translate(-9.27 -231.38)"/><path class="cls-16" d="M135.53,270.18v6.71h-2.21v-6.71h-1.71v-1.94h5.61v1.94Z" transform="translate(-9.27 -231.38)"/><path class="cls-17" d="M138.11,276.89v-8.65h4.8v1.94h-2.69v1.35h2.6v1.94h-2.6V275h2.69v1.94Z" transform="translate(-9.27 -231.38)"/><path class="cls-18" d="M148.41,276.89l-2-2.79h0v2.79h-2.12v-8.65H147l.69,0a6.62,6.62,0,0,1,.7.07,2.78,2.78,0,0,1,1.27.53,2.89,2.89,0,0,1,1.07,2.37,2.8,2.8,0,0,1-.57,1.77,2.36,2.36,0,0,1-1.58.95l2.34,2.94Zm-.22-6.44a1.65,1.65,0,0,0-1-.27h-.8v2.41h.78c1,0,1.45-.41,1.45-1.24A1,1,0,0,0,148.19,270.45Z" transform="translate(-9.27 -231.38)"/><path class="cls-19" d="M20.46,261.44V247.53H24v10.79h4.12v3.12Z" transform="translate(-9.27 -231.38)"/><path class="cls-20" d="M34.2,246.31l-.87-1.08-.86,1.08h-3l2.93-3.12h2l2.82,3.12Zm-4.68,15.13V247.53h7.72v3.12H32.92v2.17h4.2v3.12h-4.2v2.38h4.32v3.12ZM38,242.08a4.09,4.09,0,0,1-2.13.7,4.36,4.36,0,0,1-.74-.08l-1.55-.34a4.11,4.11,0,0,0-.71-.07,2.49,2.49,0,0,0-.7.11l-.66.25L30.39,241a6.13,6.13,0,0,1,1-.46,3.35,3.35,0,0,1,1.08-.2,4.37,4.37,0,0,1,.76.08l.38.07.76.18.38.07a4.29,4.29,0,0,0,.76.07,3.47,3.47,0,0,0,1.38-.32Z" transform="translate(-9.27 -231.38)"/><path class="cls-21" d="M59,256.24a7.16,7.16,0,0,1-7,5.47,7.14,7.14,0,0,1-5.18-2.09,7.24,7.24,0,0,1,0-10.28A7.1,7.1,0,0,1,52,247.27a6.89,6.89,0,0,1,6.12,3.27,5.73,5.73,0,0,1,1,2.28H55.3A3.35,3.35,0,0,0,52,250.39a3.44,3.44,0,0,0-2.71,1.22,4.2,4.2,0,0,0-1,2.84,4.26,4.26,0,0,0,1,2.87A3.39,3.39,0,0,0,52,258.59a3.51,3.51,0,0,0,3.34-2.35Z" transform="translate(-9.27 -231.38)"/><path class="cls-22" d="M72.79,259.64a7.56,7.56,0,0,1-10.35,0,6.64,6.64,0,0,1-2.18-5,8.15,8.15,0,0,1,.54-3,6.1,6.1,0,0,1,.91-1.56,7,7,0,0,1,5.88-2.86,7.14,7.14,0,0,1,5.2,2.08,7.25,7.25,0,0,1,0,10.29Zm-4.32-13.33-.86-1.08-.86,1.08h-3l2.93-3.12h2l2.82,3.12Zm1.88,5.33a3.48,3.48,0,0,0-2.74-1.25,3.55,3.55,0,0,0-2.75,1.21,4.11,4.11,0,0,0-1,2.85,4.18,4.18,0,0,0,1.06,2.9,3.54,3.54,0,0,0,2.78,1.24,3.43,3.43,0,0,0,2.7-1.25,4.46,4.46,0,0,0,0-5.7Z" transform="translate(-9.27 -231.38)"/><path class="cls-23" d="M85.5,261.44,80.2,253l0,0,.1,8.44H76.85V247.53h3.07l5.37,8.75,0,0-.15-8.71h3.4v13.91Z" transform="translate(-9.27 -231.38)"/><path class="cls-24" d="M105.32,254.27a7.46,7.46,0,0,1-12.66,5.35,7,7,0,0,1-2.15-5.19,6.79,6.79,0,0,1,2.19-5.15,7.69,7.69,0,0,1,9.54-.66,6.42,6.42,0,0,1,2.67,3.57h-4a3.28,3.28,0,0,0-3.06-1.8,3.53,3.53,0,0,0-2.75,1.2,4.06,4.06,0,0,0-1,2.84,4.35,4.35,0,0,0,1,2.94,3.54,3.54,0,0,0,2.8,1.24,3.76,3.76,0,0,0,2.07-.55,2.84,2.84,0,0,0,1.25-1.69H97.05v-2.84h8.25c0,.11,0,.23,0,.37Z" transform="translate(-9.27 -231.38)"/><path class="cls-25" d="M121.92,260.24a4.53,4.53,0,0,1-2.14,1.05,6,6,0,0,1-1.14.13l-.61,0H113V247.53h4.29q.81,0,1.23,0a6.19,6.19,0,0,1,1.17.15,3.75,3.75,0,0,1,2,1.18,3.27,3.27,0,0,1,.83,2.29,3,3,0,0,1-1.62,2.8,3.13,3.13,0,0,1,2.3,3.23A3.76,3.76,0,0,1,121.92,260.24Zm-3.22-9.39a2,2,0,0,0-1-.2h-1.37v2.17h1.35c.94,0,1.41-.37,1.41-1.12A.91.91,0,0,0,118.7,250.85Zm.58,5.16a2.38,2.38,0,0,0-1.14-.22h-1.78v2.53h1.76a2.16,2.16,0,0,0,1.17-.27,1.2,1.2,0,0,0,.5-1.06A1,1,0,0,0,119.28,256Z" transform="translate(-9.27 -231.38)"/><path class="cls-26" d="M137,259.64a7.56,7.56,0,0,1-10.35,0,6.64,6.64,0,0,1-2.18-5,8.15,8.15,0,0,1,.54-3,6.1,6.1,0,0,1,.91-1.56,7,7,0,0,1,5.88-2.86,7.16,7.16,0,0,1,5.2,2.08,7.25,7.25,0,0,1,0,10.29Zm-4.32-13.33-.86-1.08-.86,1.08h-3l2.93-3.12h2l2.82,3.12Zm1.88,5.33a3.48,3.48,0,0,0-2.74-1.25,3.55,3.55,0,0,0-2.75,1.21,4.11,4.11,0,0,0-1.05,2.85,4.18,4.18,0,0,0,1.06,2.9,3.54,3.54,0,0,0,2.78,1.24,3.43,3.43,0,0,0,2.7-1.25,4.46,4.46,0,0,0,0-5.7Zm.52-6.91-.88-1.84,4.5-2.43,1,2.22Z" transform="translate(-9.27 -231.38)"/><path class="cls-27" d="M41.84,337.54H40v6.82H38.38v-6.82H36.54v-1.22h5.3Z" transform="translate(-9.27 -231.38)"/><path class="cls-28" d="M44.87,339.73h-.53a.67.67,0,0,0-.43.13.86.86,0,0,0-.27.39v4.12H42.09v-6h1.45l.06.85a2,2,0,0,1,.44-.71.92.92,0,0,1,.62-.25l.19,0,.18,0Z" transform="translate(-9.27 -231.38)"/><path class="cls-29" d="M48.72,343.51a2,2,0,0,1-.6.72,1.42,1.42,0,0,1-.82.25,1.48,1.48,0,0,1-1.27-.65,3.46,3.46,0,0,1-.46-2v-3.45h1.56v3.46a2.79,2.79,0,0,0,.15,1.11.54.54,0,0,0,.5.31,1,1,0,0,0,.47-.11.78.78,0,0,0,.35-.3v-4.47h1.57v6H48.89Z" transform="translate(-9.27 -231.38)"/><path class="cls-30" d="M52.6,338.38l.07.84a2.13,2.13,0,0,1,.62-.7,1.42,1.42,0,0,1,.82-.25,1.4,1.4,0,0,1,1.2.6,3.15,3.15,0,0,1,.43,1.86v3.63H54.18v-3.63a2,2,0,0,0-.16-1,.52.52,0,0,0-.49-.28.91.91,0,0,0-.47.12,1,1,0,0,0-.35.34v4.4H51.15v-6Z" transform="translate(-9.27 -231.38)"/><path class="cls-31" d="M56.54,341.41a4.37,4.37,0,0,1,.53-2.28,1.65,1.65,0,0,1,1.48-.86,1.28,1.28,0,0,1,.73.21,1.85,1.85,0,0,1,.55.59l.1-.69h1.35v5.95a2.35,2.35,0,0,1-.68,1.81,2.67,2.67,0,0,1-1.89.64,3.15,3.15,0,0,1-.84-.12,4.28,4.28,0,0,1-.82-.34l.26-1.18a3.06,3.06,0,0,0,.66.27,2.77,2.77,0,0,0,.73.08,1,1,0,0,0,.77-.28,1.31,1.31,0,0,0,.25-.89v-.44a1.58,1.58,0,0,1-.52.45,1.4,1.4,0,0,1-.66.15,1.66,1.66,0,0,1-1.47-.81,3.91,3.91,0,0,1-.53-2.15Zm1.56.11a3.6,3.6,0,0,0,.19,1.28.68.68,0,0,0,.66.46,1,1,0,0,0,.46-.11.87.87,0,0,0,.31-.32V340a1,1,0,0,0-.32-.37.72.72,0,0,0-.44-.13.7.7,0,0,0-.66.52,4.05,4.05,0,0,0-.2,1.39Z" transform="translate(-9.27 -231.38)"/><path class="cls-32" d="M69.76,337.54H67.87v6.82H66.31v-6.82H64.47v-1.22h5.29Z" transform="translate(-9.27 -231.38)"/><path class="cls-33" d="M72.78,344.36a3.62,3.62,0,0,1-.14-.43,3.55,3.55,0,0,1-.09-.47,2.06,2.06,0,0,1-.52.73,1.17,1.17,0,0,1-.79.29A1.61,1.61,0,0,1,70,344a1.89,1.89,0,0,1-.44-1.31,1.67,1.67,0,0,1,.58-1.36,2.63,2.63,0,0,1,1.72-.48h.68v-.5a1.21,1.21,0,0,0-.16-.69.56.56,0,0,0-.49-.24.55.55,0,0,0-.44.19.91.91,0,0,0-.15.56h-1.5v0a1.58,1.58,0,0,1,.58-1.32,2.37,2.37,0,0,1,1.62-.54,2.17,2.17,0,0,1,1.53.54,2,2,0,0,1,.58,1.55v2.45a5.1,5.1,0,0,0,.06.8,5.15,5.15,0,0,0,.19.75Zm1-7.14v.12H72.56l-.64-.74-.64.74h-1.2v-.13l1.4-1.31h.88Zm-2.13,6.1a.95.95,0,0,0,.88-.65v-.94h-.68a.65.65,0,0,0-.57.26,1.08,1.08,0,0,0-.18.64.8.8,0,0,0,.15.5A.47.47,0,0,0,71.64,343.32Z" transform="translate(-9.27 -231.38)"/><path class="cls-34" d="M76.54,338.38l.06.77a1.82,1.82,0,0,1,.61-.65,1.61,1.61,0,0,1,.85-.23,1.32,1.32,0,0,1,.81.25,1.47,1.47,0,0,1,.52.75,2.06,2.06,0,0,1,.61-.74,1.51,1.51,0,0,1,.87-.26,1.38,1.38,0,0,1,1.19.63,3.44,3.44,0,0,1,.44,1.93v3.53H80.94v-3.53a2.3,2.3,0,0,0-.16-1,.53.53,0,0,0-.49-.29.71.71,0,0,0-.43.14,1,1,0,0,0-.31.39c0,.09,0,.17,0,.24a1.27,1.27,0,0,1,0,.2v3.89H78v-3.53a2.48,2.48,0,0,0-.16-1,.55.55,0,0,0-.5-.29.81.81,0,0,0-.41.11.93.93,0,0,0-.3.32v4.43H75.09v-6Z" transform="translate(-9.27 -231.38)"/><path class="cls-35" d="M91.85,344.36H90.3V341H87.7v3.35H86.15v-8H87.7v3.47h2.6v-3.47h1.55Z" transform="translate(-9.27 -231.38)"/><path class="cls-36" d="M92.8,341.32a3.55,3.55,0,0,1,.64-2.2,2.36,2.36,0,0,1,3.63,0,3.55,3.55,0,0,1,.65,2.2v.12a3.55,3.55,0,0,1-.65,2.2,2.37,2.37,0,0,1-3.62,0,3.45,3.45,0,0,1-.65-2.2Zm4.31-4.1v.12H95.89l-.64-.74-.64.74H93.42v-.13l1.4-1.31h.88Zm-2.76,4.22a3.46,3.46,0,0,0,.21,1.33.74.74,0,0,0,1.39,0,3.46,3.46,0,0,0,.21-1.33v-.12A3.53,3.53,0,0,0,96,340a.73.73,0,0,0-1.39,0,3.44,3.44,0,0,0-.21,1.32Zm1.76,4.91H94.38V345h1.73Z" transform="translate(-9.27 -231.38)"/><path class="cls-37" d="M100.19,336.93H98.63v-1.19h1.56Zm0,7.43H98.63v-6h1.56Z" transform="translate(-9.27 -231.38)"/><path class="cls-38" d="M109.61,344.36h-1.55l-2.56-5.13h0v5.13h-1.56v-8h1.56l2.55,5.14h0v-5.13h1.55Z" transform="translate(-9.27 -231.38)"/><path class="cls-39" d="M110.55,341.41a4.37,4.37,0,0,1,.52-2.28,1.66,1.66,0,0,1,1.49-.86,1.28,1.28,0,0,1,.73.21,1.83,1.83,0,0,1,.54.59l.11-.69h1.35v5.95a2.38,2.38,0,0,1-.68,1.81,2.71,2.71,0,0,1-1.9.64,3.14,3.14,0,0,1-.83-.12,4.38,4.38,0,0,1-.83-.34l.26-1.18a3.06,3.06,0,0,0,.66.27,2.82,2.82,0,0,0,.73.08,1,1,0,0,0,.77-.28,1.31,1.31,0,0,0,.26-.89v-.44a1.81,1.81,0,0,1-.52.45,1.4,1.4,0,0,1-.66.15,1.66,1.66,0,0,1-1.48-.81,3.91,3.91,0,0,1-.52-2.15Zm1.56.11a3.38,3.38,0,0,0,.19,1.28.68.68,0,0,0,.66.46.91.91,0,0,0,.45-.11,1,1,0,0,0,.32-.32V340a1.06,1.06,0,0,0-.32-.37.77.77,0,0,0-.45-.13.68.68,0,0,0-.65.52,3.82,3.82,0,0,0-.2,1.39Z" transform="translate(-9.27 -231.38)"/><path class="cls-40" d="M117.84,339.11a1.91,1.91,0,0,1,.57-.62,1.29,1.29,0,0,1,.74-.22,1.48,1.48,0,0,1,1.26.63,3.28,3.28,0,0,1,.47,1.94v3.52h-1.56v-3.53a2.43,2.43,0,0,0-.16-1,.54.54,0,0,0-.51-.3,1,1,0,0,0-.81.41v4.45h-1.56v-8.62h1.56Z" transform="translate(-9.27 -231.38)"/><path class="cls-41" d="M123.61,346.25h-1.73v-1.31h1.73Zm-.09-9.32H122v-1.19h1.55Zm0,7.43H122v-6h1.55Z" transform="translate(-9.27 -231.38)"/><path class="cls-42" d="M19.54,351.12H17.65v6.82H16.09v-6.82H14.25V349.9h5.29Z" transform="translate(-9.27 -231.38)"/><path class="cls-43" d="M21.72,352.69a1.91,1.91,0,0,1,.57-.62,1.37,1.37,0,0,1,.74-.22,1.48,1.48,0,0,1,1.26.63,3.28,3.28,0,0,1,.47,1.94v3.52H23.2v-3.53a2.28,2.28,0,0,0-.16-1,.54.54,0,0,0-.51-.3,1,1,0,0,0-.47.11.89.89,0,0,0-.34.3v4.45H20.17v-8.62h1.55Z" transform="translate(-9.27 -231.38)"/><path class="cls-44" d="M28.06,358.06a2.18,2.18,0,0,1-1.83-.82,3.23,3.23,0,0,1-.65-2.1v-.23a3.64,3.64,0,0,1,.62-2.21,2.09,2.09,0,0,1,1.77-.85,1.93,1.93,0,0,1,1.62.73,3.15,3.15,0,0,1,.56,2v.86h-3a2.18,2.18,0,0,0,.3,1.05.92.92,0,0,0,.81.39,2.51,2.51,0,0,0,.78-.1,3.85,3.85,0,0,0,.67-.34l.41,1a2.76,2.76,0,0,1-.87.49A3.42,3.42,0,0,1,28.06,358.06Zm-.09-5a.62.62,0,0,0-.58.35,2.46,2.46,0,0,0-.25.95h1.49v-.14a1.79,1.79,0,0,0-.16-.85A.53.53,0,0,0,28,353.07Z" transform="translate(-9.27 -231.38)"/><path class="cls-45" d="M37.13,356.2h-2l-.45,1.74H33l2.28-8h1.61l2.28,8H37.58ZM35.43,355H36.8l-.66-2.56h0Z" transform="translate(-9.27 -231.38)"/><path class="cls-46" d="M39.55,355a4.37,4.37,0,0,1,.53-2.28,1.65,1.65,0,0,1,1.48-.86,1.29,1.29,0,0,1,.65.17,1.72,1.72,0,0,1,.52.49v-3.19h1.56v8.62H43l-.11-.67a1.87,1.87,0,0,1-.56.59,1.38,1.38,0,0,1-.73.2,1.66,1.66,0,0,1-1.47-.81,3.91,3.91,0,0,1-.53-2.15Zm1.55.11a3.21,3.21,0,0,0,.2,1.28.68.68,0,0,0,.65.46.9.9,0,0,0,.46-.12,1,1,0,0,0,.32-.35v-2.75a1.2,1.2,0,0,0-.33-.4.77.77,0,0,0-.44-.14.71.71,0,0,0-.66.53,4,4,0,0,0-.2,1.38Z" transform="translate(-9.27 -231.38)"/><path class="cls-47" d="M45.14,354.9a3.55,3.55,0,0,1,.64-2.2,2.35,2.35,0,0,1,3.62,0,3.49,3.49,0,0,1,.66,2.2V355a3.54,3.54,0,0,1-.65,2.19,2.38,2.38,0,0,1-3.63,0,3.5,3.5,0,0,1-.64-2.19Zm1.55.13a3.44,3.44,0,0,0,.21,1.32.74.74,0,0,0,1.39,0A3.44,3.44,0,0,0,48.5,355v-.13a3.53,3.53,0,0,0-.21-1.33.73.73,0,0,0-1.39,0,3.44,3.44,0,0,0-.21,1.32Z" transform="translate(-9.27 -231.38)"/><path class="cls-48" d="M53.69,353.31h-.53a.7.7,0,0,0-.44.13,1,1,0,0,0-.27.39v4.12H50.9v-6h1.45l.07.85a1.83,1.83,0,0,1,.44-.71.88.88,0,0,1,.61-.25l.19,0,.19.05Z" transform="translate(-9.27 -231.38)"/><path class="cls-49" d="M57.41,357.94a2.41,2.41,0,0,1-.15-.43,3.55,3.55,0,0,1-.09-.47,2.06,2.06,0,0,1-.52.73,1.15,1.15,0,0,1-.79.29,1.61,1.61,0,0,1-1.26-.48,1.89,1.89,0,0,1-.44-1.31,1.67,1.67,0,0,1,.58-1.36,2.65,2.65,0,0,1,1.73-.48h.68v-.5a1.21,1.21,0,0,0-.17-.69.55.55,0,0,0-.49-.24.53.53,0,0,0-.44.2.88.88,0,0,0-.15.55H54.4v0a1.61,1.61,0,0,1,.58-1.32,2.37,2.37,0,0,1,1.62-.54,2.17,2.17,0,0,1,1.53.54,2,2,0,0,1,.58,1.55v2.46a5,5,0,0,0,.06.79,5.15,5.15,0,0,0,.19.75Zm-1.15-1a.84.84,0,0,0,.55-.19.9.9,0,0,0,.34-.46v-.94h-.68a.66.66,0,0,0-.58.26,1.08,1.08,0,0,0-.18.64.8.8,0,0,0,.15.5A.48.48,0,0,0,56.26,356.9Z" transform="translate(-9.27 -231.38)"/><path class="cls-50" d="M67.7,356.88a2.85,2.85,0,0,1-1,.83,3.55,3.55,0,0,1-1.68.35,2.68,2.68,0,0,1-2.88-2.92V352.7a2.92,2.92,0,0,1,.77-2.16,2.72,2.72,0,0,1,2-.76,2.86,2.86,0,0,1,2,.62,2.25,2.25,0,0,1,.64,1.77v0H66.1a1.27,1.27,0,0,0-.28-.92A1.1,1.1,0,0,0,65,351a1.13,1.13,0,0,0-.94.42,2,2,0,0,0-.34,1.27v2.45a2,2,0,0,0,.34,1.28,1.2,1.2,0,0,0,1,.42,2,2,0,0,0,.71-.1,1,1,0,0,0,.4-.29v-1.62H64.92v-1.08H67.7Z" transform="translate(-9.27 -231.38)"/><path class="cls-51" d="M71.51,353.31H71a.7.7,0,0,0-.44.13,1,1,0,0,0-.27.39v4.12H68.72v-6h1.46l.06.85a1.83,1.83,0,0,1,.44-.71.88.88,0,0,1,.61-.25l.2,0,.18.05Z" transform="translate(-9.27 -231.38)"/><path class="cls-52" d="M75.23,357.94a2.41,2.41,0,0,1-.15-.43A3.55,3.55,0,0,1,75,357a2.06,2.06,0,0,1-.52.73,1.15,1.15,0,0,1-.79.29,1.61,1.61,0,0,1-1.26-.48,1.89,1.89,0,0,1-.44-1.31,1.7,1.7,0,0,1,.58-1.36,2.66,2.66,0,0,1,1.73-.48H75v-.5a1.21,1.21,0,0,0-.17-.69.55.55,0,0,0-.49-.24.53.53,0,0,0-.44.2.88.88,0,0,0-.15.55h-1.5v0a1.61,1.61,0,0,1,.58-1.32,2.37,2.37,0,0,1,1.62-.54,2.17,2.17,0,0,1,1.53.54,2,2,0,0,1,.59,1.55v2.46a5,5,0,0,0,.06.79,5.11,5.11,0,0,0,.18.75Zm-1.15-1a.88.88,0,0,0,.56-.19.94.94,0,0,0,.33-.46v-.94h-.68a.67.67,0,0,0-.58.26,1.15,1.15,0,0,0-.17.64.87.87,0,0,0,.14.5A.48.48,0,0,0,74.08,356.9Z" transform="translate(-9.27 -231.38)"/><path class="cls-53" d="M79,352l.06.84a2.13,2.13,0,0,1,.62-.7,1.5,1.5,0,0,1,.83-.25,1.4,1.4,0,0,1,1.19.6,3.16,3.16,0,0,1,.44,1.86v3.63H80.54v-3.63a2,2,0,0,0-.17-.95.51.51,0,0,0-.49-.28.94.94,0,0,0-.47.12,1.13,1.13,0,0,0-.35.34v4.4H77.5v-6Z" transform="translate(-9.27 -231.38)"/><path class="cls-54" d="M82.89,355a4.37,4.37,0,0,1,.53-2.28,1.65,1.65,0,0,1,1.48-.86,1.29,1.29,0,0,1,.65.17,1.72,1.72,0,0,1,.52.49v-3.19h1.56v8.62H86.29l-.11-.67a1.87,1.87,0,0,1-.56.59,1.38,1.38,0,0,1-.73.2,1.66,1.66,0,0,1-1.47-.81,3.91,3.91,0,0,1-.53-2.15Zm1.55.11a3.21,3.21,0,0,0,.2,1.28.68.68,0,0,0,.65.46.9.9,0,0,0,.46-.12,1,1,0,0,0,.32-.35v-2.75a1.2,1.2,0,0,0-.33-.4.77.77,0,0,0-.44-.14.71.71,0,0,0-.66.53,4,4,0,0,0-.2,1.38Z" transform="translate(-9.27 -231.38)"/><path class="cls-55" d="M93.72,355.89l.06.33h0l.06-.32,1.39-6h1.65l-2.31,8H93l-2.29-8h1.64Z" transform="translate(-9.27 -231.38)"/><path class="cls-56" d="M99.11,350.51H97.55v-1.19h1.56Zm0,7.43H97.55v-6h1.56Z" transform="translate(-9.27 -231.38)"/><path class="cls-57" d="M102.51,358.06a2.2,2.2,0,0,1-1.83-.82,3.23,3.23,0,0,1-.65-2.1v-.23a3.7,3.7,0,0,1,.62-2.21,2.09,2.09,0,0,1,1.77-.85,1.93,1.93,0,0,1,1.62.73,3.15,3.15,0,0,1,.56,2v.86h-3a2,2,0,0,0,.3,1.05.9.9,0,0,0,.81.39,2.44,2.44,0,0,0,.77-.1,3.85,3.85,0,0,0,.67-.34l.41,1a2.65,2.65,0,0,1-.87.49A3.42,3.42,0,0,1,102.51,358.06Zm-.09-5a.62.62,0,0,0-.58.35,2.31,2.31,0,0,0-.24.95h1.48v-.14a1.93,1.93,0,0,0-.15-.85A.54.54,0,0,0,102.42,353.07Z" transform="translate(-9.27 -231.38)"/><path class="cls-58" d="M109.85,355.3h0l.53-3.34h1.5l-1.26,6h-1.3l-.86-3.15h0l-.86,3.15h-1.31L105,352h1.5l.54,3.35h0L108,352h1Z" transform="translate(-9.27 -231.38)"/><path class="cls-59" d="M120.91,355.05a4,4,0,0,1-.13,1,2.93,2.93,0,0,1-.37.82l1,1.12-1,.82-1-1.08a2.69,2.69,0,0,1-.69.24,3.79,3.79,0,0,1-.77.08,2.88,2.88,0,0,1-2.13-.8,3,3,0,0,1-.79-2.21V352.8a3,3,0,0,1,.79-2.22,2.87,2.87,0,0,1,2.12-.8,2.92,2.92,0,0,1,2.14.8,3,3,0,0,1,.81,2.22Zm-1.56-2.26a2.15,2.15,0,0,0-.35-1.33,1.26,1.26,0,0,0-1-.45,1.21,1.21,0,0,0-1,.45,2.14,2.14,0,0,0-.34,1.33v2.26a2.19,2.19,0,0,0,.34,1.34,1.24,1.24,0,0,0,1,.45,1.23,1.23,0,0,0,1-.45,2.19,2.19,0,0,0,.35-1.34Z" transform="translate(-9.27 -231.38)"/><path class="cls-60" d="M125.18,357.09a2,2,0,0,1-.6.72,1.44,1.44,0,0,1-.82.25,1.47,1.47,0,0,1-1.27-.65,3.46,3.46,0,0,1-.46-2V352h1.55v3.46a2.74,2.74,0,0,0,.16,1.11.52.52,0,0,0,.5.31,1.12,1.12,0,0,0,.47-.1.94.94,0,0,0,.35-.31V352h1.56v6h-1.27Z" transform="translate(-9.27 -231.38)"/><path class="cls-61" d="M130.62,357.94a2.41,2.41,0,0,1-.15-.43,3.55,3.55,0,0,1-.08-.47,2.22,2.22,0,0,1-.53.73,1.15,1.15,0,0,1-.79.29,1.64,1.64,0,0,1-1.26-.48,1.88,1.88,0,0,1-.43-1.31,1.69,1.69,0,0,1,.57-1.36,2.66,2.66,0,0,1,1.73-.48h.68v-.5a1.21,1.21,0,0,0-.17-.69.55.55,0,0,0-.49-.24.5.5,0,0,0-.43.2.88.88,0,0,0-.15.55h-1.51v0a1.61,1.61,0,0,1,.58-1.32,2.37,2.37,0,0,1,1.62-.54,2.17,2.17,0,0,1,1.53.54,2,2,0,0,1,.59,1.55v2.46a5,5,0,0,0,.06.79,4.13,4.13,0,0,0,.19.75Zm1-7.14v.12h-1.22l-.64-.74-.64.74h-1.19v-.13l1.39-1.31h.88Zm-1.35,9h-1.74v-1.31h1.74Zm-.78-2.9a.86.86,0,0,0,.55-.19.94.94,0,0,0,.33-.46v-.94h-.68a.65.65,0,0,0-.57.26,1.08,1.08,0,0,0-.18.64.8.8,0,0,0,.15.5A.47.47,0,0,0,129.48,356.9Z" transform="translate(-9.27 -231.38)"/><path class="cls-62" d="M134.35,352l.06.84a2,2,0,0,1,.63-.7,1.47,1.47,0,0,1,.82-.25,1.38,1.38,0,0,1,1.19.6,3.16,3.16,0,0,1,.44,1.86v3.63h-1.56v-3.63a2.13,2.13,0,0,0-.16-.95.54.54,0,0,0-.5-.28.94.94,0,0,0-.47.12,1.25,1.25,0,0,0-.35.34v4.4H132.9v-6Z" transform="translate(-9.27 -231.38)"/><path class="cls-63" d="M141.16,354.39l.42-4.49h4.13v1.25h-2.85l-.19,2a2.06,2.06,0,0,1,.51-.29,2.34,2.34,0,0,1,.66-.12,1.82,1.82,0,0,1,1.56.69,3.13,3.13,0,0,1,.55,2,3,3,0,0,1-.6,1.94,2.25,2.25,0,0,1-1.87.76,2.72,2.72,0,0,1-1.75-.59,1.91,1.91,0,0,1-.7-1.62v0l1.51-.08a1.19,1.19,0,0,0,.26.81.85.85,0,0,0,.67.28.73.73,0,0,0,.69-.37,2.31,2.31,0,0,0,.21-1.1,2.38,2.38,0,0,0-.23-1.13.78.78,0,0,0-.72-.42.87.87,0,0,0-.59.18,1,1,0,0,0-.28.48Z" transform="translate(-9.27 -231.38)"/><line class="cls-64" x1="0.9" y1="0.5" x2="140.9" y2="0.5"/><line class="cls-65" x1="0.9" y1="140.5" x2="140.9" y2="140.5"/></svg>