<svg id="Layer_1" data-name="Layer 1" xmlns="http://www.w3.org/2000/svg" viewBox="0 0 63.63 77.6"><defs><style>.cls-1{font-size:11px;fill:#fff;font-family:Roboto-BoldCondensed, Roboto;font-weight:700;}.cls-2{fill:#eb8023;stroke:#fff;stroke-linejoin:round;stroke-width:0.52px;}</style></defs><title>logo</title><text class="cls-1" transform="translate(4.13 10.84)">CHỦ ĐẦU TƯ</text><g id="_Group_" data-name="&lt;Group&gt;"><g id="_Group_2" data-name="&lt;Group&gt;"><g id="_Group_3" data-name="&lt;Group&gt;"><g id="_Group_4" data-name="&lt;Group&gt;"><polygon id="_Path_" data-name="&lt;Path&gt;" class="cls-2" points="46.13 61.25 46.13 56.31 47.23 56.26 47.23 24.48 15.66 24.48 15.66 55.39 39.72 55.39 39.72 40.71 31.11 32.98 23.17 41.64 23.17 48.45 28.41 48.45 28.41 54.41 17.21 54.41 17.21 39.32 30.7 24.62 45.68 38.05 45.68 61.35 9.7 61.35 9.7 18.52 53.18 18.52 53.18 61.18 46.13 61.25"/></g><polyline id="_Path_2" data-name="&lt;Path&gt;" class="cls-2" points="0.26 66.73 0.26 76.75 2.47 76.75 2.47 69.81 9.46 76.8 11.85 76.8 11.85 66.73 9.51 66.73 9.51 73.75 2.86 66.73 0.57 66.73"/><polygon id="_Path_3" data-name="&lt;Path&gt;" class="cls-2" points="12.25 66.73 14.65 66.73 14.65 70.71 21.75 70.71 21.75 66.93 24.07 66.93 24.07 76.8 21.79 76.8 21.79 72.89 14.57 72.89 14.57 76.8 12.25 76.8 12.25 66.73"/><polygon id="_Path_4" data-name="&lt;Path&gt;" class="cls-2" points="32.94 66.84 35.3 66.84 35.3 70.99 32.94 66.84"/><path id="_Compound_Path_" data-name="&lt;Compound Path&gt;" class="cls-2" d="M80.51,463H77.86L72.46,473H75l1.06-1.9,6.24-.05L83.46,473H86Zm-3.28,5.91,2-3.51,1.91,3.51Z" transform="translate(-47.99 -396.23)"/><polygon id="_Path_5" data-name="&lt;Path&gt;" class="cls-2" points="39.7 76.8 39.7 66.84 42.45 66.84 45.61 71.22 48.77 66.84 51.53 66.84 51.53 76.8 49.12 76.8 49.12 69.76 45.61 74.81 42.03 69.81 42.03 76.8 39.7 76.8"/><g id="_Group_5" data-name="&lt;Group&gt;"><g id="_Group_6" data-name="&lt;Group&gt;"><path id="_Path_6" data-name="&lt;Path&gt;" class="cls-2" d="M110.37,465.08a5.76,5.76,0,0,0-1.69-1.75Z" transform="translate(-47.99 -396.23)"/><path id="_Compound_Path_2" data-name="&lt;Compound Path&gt;" class="cls-2" d="M110.65,465.62l-2.23.18v-2.61a5.51,5.51,0,0,0-2.79-.77A5.58,5.58,0,1,0,111.2,468,5.41,5.41,0,0,0,110.65,465.62Zm-5,5.73A3.36,3.36,0,1,1,109,468,3.37,3.37,0,0,1,105.63,471.35Z" transform="translate(-47.99 -396.23)"/></g><path id="_Path_7" data-name="&lt;Path&gt;" class="cls-2" d="M111.35,464.07a1.36,1.36,0,0,1-2.71,0,1.36,1.36,0,1,1,2.71,0Z" transform="translate(-47.99 -396.23)"/></g></g></g></g></svg>