<svg id="Layer_1" data-name="Layer 1" xmlns="http://www.w3.org/2000/svg" xmlns:xlink="http://www.w3.org/1999/xlink" viewBox="0 0 140 80.68"><defs><style>.cls-1,.cls-2{fill:none;stroke-miterlimit:10;}.cls-1{stroke:url(#linear-gradient);}.cls-2{stroke:url(#linear-gradient-2);}.cls-3{fill:url(#linear-gradient-3);}.cls-4{fill:url(#linear-gradient-4);}.cls-5{fill:url(#linear-gradient-5);}.cls-6{fill:url(#linear-gradient-6);}.cls-7{fill:url(#linear-gradient-7);}.cls-8{fill:url(#linear-gradient-8);}.cls-9{fill:url(#linear-gradient-9);}.cls-10{fill:url(#linear-gradient-10);}.cls-11{fill:url(#linear-gradient-11);}.cls-12{fill:url(#linear-gradient-12);}.cls-13{fill:url(#linear-gradient-13);}.cls-14{fill:url(#linear-gradient-14);}.cls-15{fill:url(#linear-gradient-15);}.cls-16{fill:url(#linear-gradient-16);}.cls-17{fill:url(#linear-gradient-17);}.cls-18{fill:url(#linear-gradient-18);}.cls-19{fill:url(#linear-gradient-19);}.cls-20{fill:url(#linear-gradient-20);}.cls-21{fill:url(#linear-gradient-21);}.cls-22{fill:url(#linear-gradient-22);}.cls-23{fill:url(#linear-gradient-23);}.cls-24{fill:url(#linear-gradient-24);}.cls-25{fill:url(#linear-gradient-25);}.cls-26{fill:url(#linear-gradient-26);}.cls-27{fill:url(#linear-gradient-27);}.cls-28{fill:url(#linear-gradient-28);}.cls-29{fill:url(#linear-gradient-29);}.cls-30{fill:url(#linear-gradient-30);}.cls-31{fill:url(#linear-gradient-31);}.cls-32{fill:url(#linear-gradient-32);}.cls-33{fill:url(#linear-gradient-33);}.cls-34{fill:url(#linear-gradient-34);}.cls-35{fill:url(#linear-gradient-35);}.cls-36{fill:url(#linear-gradient-36);}.cls-37{fill:url(#linear-gradient-37);}.cls-38{fill:url(#linear-gradient-38);}.cls-39{fill:url(#linear-gradient-39);}.cls-40{fill:url(#linear-gradient-40);}.cls-41{fill:url(#linear-gradient-41);}.cls-42{fill:url(#linear-gradient-42);}.cls-43{fill:url(#linear-gradient-43);}.cls-44{fill:url(#linear-gradient-44);}.cls-45{fill:url(#linear-gradient-45);}.cls-46{fill:url(#linear-gradient-46);}.cls-47{fill:url(#linear-gradient-47);}.cls-48{fill:url(#linear-gradient-48);}.cls-49{fill:url(#linear-gradient-49);}.cls-50{fill:url(#linear-gradient-50);}.cls-51{fill:url(#linear-gradient-51);}.cls-52{fill:url(#linear-gradient-52);}.cls-53{fill:url(#linear-gradient-53);}.cls-54{fill:url(#linear-gradient-54);}.cls-55{fill:url(#linear-gradient-55);}.cls-56{fill:url(#linear-gradient-56);}.cls-57{fill:url(#linear-gradient-57);}.cls-58{fill:url(#linear-gradient-58);}.cls-59{fill:url(#linear-gradient-59);}.cls-60{fill:url(#linear-gradient-60);}.cls-61{fill:url(#linear-gradient-61);}.cls-62{fill:url(#linear-gradient-62);}.cls-63{fill:url(#linear-gradient-63);}.cls-64{fill:url(#linear-gradient-64);}.cls-65{fill:url(#linear-gradient-65);}.cls-66{fill:url(#linear-gradient-66);}.cls-67{fill:url(#linear-gradient-67);}.cls-68{fill:url(#linear-gradient-68);}.cls-69{fill:url(#linear-gradient-69);}</style><linearGradient id="linear-gradient" y1="0.5" x2="140" y2="0.5" gradientUnits="userSpaceOnUse"><stop offset="0" stop-color="#e2bb75" stop-opacity="0"/><stop offset="0.46" stop-color="#f2eac3"/><stop offset="1" stop-color="#e2bb75" stop-opacity="0"/></linearGradient><linearGradient id="linear-gradient-2" y1="80.18" y2="80.18" xlink:href="#linear-gradient"/><linearGradient id="linear-gradient-3" x1="229.53" y1="80.07" x2="-89.98" y2="343.03" gradientUnits="userSpaceOnUse"><stop offset="0" stop-color="#edc87e"/><stop offset="0.33" stop-color="#e2bb75"/><stop offset="0.46" stop-color="#f2eac3"/><stop offset="0.58" stop-color="#e2bb75"/><stop offset="1" stop-color="#e2bb75"/></linearGradient><linearGradient id="linear-gradient-4" x1="231.82" y1="82.85" x2="-87.69" y2="345.81" xlink:href="#linear-gradient-3"/><linearGradient id="linear-gradient-5" x1="234.43" y1="86.04" x2="-85.07" y2="348.99" xlink:href="#linear-gradient-3"/><linearGradient id="linear-gradient-6" x1="236.58" y1="88.65" x2="-82.92" y2="351.61" xlink:href="#linear-gradient-3"/><linearGradient id="linear-gradient-7" x1="238.92" y1="91.49" x2="-80.58" y2="354.45" xlink:href="#linear-gradient-3"/><linearGradient id="linear-gradient-8" x1="242.35" y1="95.65" x2="-77.16" y2="358.61" xlink:href="#linear-gradient-3"/><linearGradient id="linear-gradient-9" x1="244.58" y1="98.37" x2="-74.92" y2="361.33" xlink:href="#linear-gradient-3"/><linearGradient id="linear-gradient-10" x1="247.19" y1="101.54" x2="-72.31" y2="364.5" xlink:href="#linear-gradient-3"/><linearGradient id="linear-gradient-11" x1="249.74" y1="104.63" x2="-69.77" y2="367.59" xlink:href="#linear-gradient-3"/><linearGradient id="linear-gradient-12" x1="252.41" y1="107.88" x2="-67.09" y2="370.84" xlink:href="#linear-gradient-3"/><linearGradient id="linear-gradient-13" x1="255.07" y1="111.11" x2="-64.44" y2="374.06" xlink:href="#linear-gradient-3"/><linearGradient id="linear-gradient-14" x1="257.95" y1="114.61" x2="-61.56" y2="377.56" xlink:href="#linear-gradient-3"/><linearGradient id="linear-gradient-15" x1="260.21" y1="117.35" x2="-59.3" y2="380.31" xlink:href="#linear-gradient-3"/><linearGradient id="linear-gradient-16" x1="263.55" y1="121.41" x2="-55.96" y2="384.37" xlink:href="#linear-gradient-3"/><linearGradient id="linear-gradient-17" x1="266.3" y1="124.75" x2="-53.21" y2="387.71" xlink:href="#linear-gradient-3"/><linearGradient id="linear-gradient-18" x1="269.97" y1="129.22" x2="-49.53" y2="392.17" xlink:href="#linear-gradient-3"/><linearGradient id="linear-gradient-19" x1="255.17" y1="73.27" x2="-64.34" y2="336.22" xlink:href="#linear-gradient-3"/><linearGradient id="linear-gradient-20" x1="257.46" y1="76.05" x2="-62.05" y2="339.01" xlink:href="#linear-gradient-3"/><linearGradient id="linear-gradient-21" x1="260.07" y1="79.23" x2="-59.43" y2="342.19" xlink:href="#linear-gradient-3"/><linearGradient id="linear-gradient-22" x1="262.23" y1="81.84" x2="-57.28" y2="344.8" xlink:href="#linear-gradient-3"/><linearGradient id="linear-gradient-23" x1="264.56" y1="84.69" x2="-54.94" y2="347.64" xlink:href="#linear-gradient-3"/><linearGradient id="linear-gradient-24" x1="267.99" y1="88.85" x2="-51.52" y2="351.8" xlink:href="#linear-gradient-3"/><linearGradient id="linear-gradient-25" x1="270.22" y1="91.56" x2="-49.28" y2="354.52" xlink:href="#linear-gradient-3"/><linearGradient id="linear-gradient-26" x1="272.84" y1="94.74" x2="-46.67" y2="357.69" xlink:href="#linear-gradient-3"/><linearGradient id="linear-gradient-27" x1="275.38" y1="97.83" x2="-44.13" y2="360.78" xlink:href="#linear-gradient-3"/><linearGradient id="linear-gradient-28" x1="278.66" y1="101.81" x2="-40.85" y2="364.77" xlink:href="#linear-gradient-3"/><linearGradient id="linear-gradient-29" x1="280.3" y1="103.81" x2="-39.21" y2="366.76" xlink:href="#linear-gradient-3"/><linearGradient id="linear-gradient-30" x1="282.44" y1="106.41" x2="-37.07" y2="369.36" xlink:href="#linear-gradient-3"/><linearGradient id="linear-gradient-31" x1="284.35" y1="108.73" x2="-35.15" y2="371.69" xlink:href="#linear-gradient-3"/><linearGradient id="linear-gradient-32" x1="287.37" y1="112.4" x2="-32.14" y2="375.35" xlink:href="#linear-gradient-3"/><linearGradient id="linear-gradient-33" x1="289.76" y1="115.31" x2="-29.74" y2="378.26" xlink:href="#linear-gradient-3"/><linearGradient id="linear-gradient-34" x1="291.12" y1="116.95" x2="-28.39" y2="379.91" xlink:href="#linear-gradient-3"/><linearGradient id="linear-gradient-35" x1="293.46" y1="119.79" x2="-26.05" y2="382.75" xlink:href="#linear-gradient-3"/><linearGradient id="linear-gradient-36" x1="217.14" y1="134.66" x2="-102.37" y2="397.62" xlink:href="#linear-gradient-3"/><linearGradient id="linear-gradient-37" x1="219.79" y1="137.89" x2="-99.72" y2="400.85" xlink:href="#linear-gradient-3"/><linearGradient id="linear-gradient-38" x1="222.03" y1="140.61" x2="-97.48" y2="403.56" xlink:href="#linear-gradient-3"/><linearGradient id="linear-gradient-39" x1="224.64" y1="143.78" x2="-94.87" y2="406.73" xlink:href="#linear-gradient-3"/><linearGradient id="linear-gradient-40" x1="227.17" y1="146.85" x2="-92.34" y2="409.81" xlink:href="#linear-gradient-3"/><linearGradient id="linear-gradient-41" x1="230.54" y1="150.95" x2="-88.97" y2="413.9" xlink:href="#linear-gradient-3"/><linearGradient id="linear-gradient-42" x1="232.55" y1="153.39" x2="-86.96" y2="416.35" xlink:href="#linear-gradient-3"/><linearGradient id="linear-gradient-43" x1="235.34" y1="156.79" x2="-84.16" y2="419.74" xlink:href="#linear-gradient-3"/><linearGradient id="linear-gradient-44" x1="237.89" y1="159.88" x2="-81.62" y2="422.83" xlink:href="#linear-gradient-3"/><linearGradient id="linear-gradient-45" x1="297.39" y1="-7.86" x2="-98.69" y2="318.11" xlink:href="#linear-gradient-3"/><linearGradient id="linear-gradient-46" x1="300.87" y1="-3.62" x2="-95.2" y2="322.35" xlink:href="#linear-gradient-3"/><linearGradient id="linear-gradient-47" x1="303.36" y1="-0.61" x2="-92.72" y2="325.36" xlink:href="#linear-gradient-3"/><linearGradient id="linear-gradient-48" x1="304.32" y1="0.57" x2="-91.75" y2="326.54" xlink:href="#linear-gradient-3"/><linearGradient id="linear-gradient-49" x1="308.18" y1="5.25" x2="-87.89" y2="331.23" xlink:href="#linear-gradient-3"/><linearGradient id="linear-gradient-50" x1="312.19" y1="10.12" x2="-83.89" y2="336.09" xlink:href="#linear-gradient-3"/><linearGradient id="linear-gradient-51" x1="316.39" y1="15.23" x2="-79.68" y2="341.21" xlink:href="#linear-gradient-3"/><linearGradient id="linear-gradient-52" x1="318.79" y1="18.14" x2="-77.29" y2="344.12" xlink:href="#linear-gradient-3"/><linearGradient id="linear-gradient-53" x1="323.08" y1="23.36" x2="-73" y2="349.33" xlink:href="#linear-gradient-3"/><linearGradient id="linear-gradient-54" x1="328.31" y1="29.71" x2="-67.76" y2="355.69" xlink:href="#linear-gradient-3"/><linearGradient id="linear-gradient-55" x1="330.88" y1="32.83" x2="-65.2" y2="358.8" xlink:href="#linear-gradient-3"/><linearGradient id="linear-gradient-56" x1="334.2" y1="36.87" x2="-61.88" y2="362.84" xlink:href="#linear-gradient-3"/><linearGradient id="linear-gradient-57" x1="226.15" y1="61.3" x2="-169.93" y2="387.27" xlink:href="#linear-gradient-3"/><linearGradient id="linear-gradient-58" x1="230.51" y1="66.6" x2="-165.56" y2="392.57" xlink:href="#linear-gradient-3"/><linearGradient id="linear-gradient-59" x1="232.01" y1="68.42" x2="-164.07" y2="394.39" xlink:href="#linear-gradient-3"/><linearGradient id="linear-gradient-60" x1="237.56" y1="75.16" x2="-158.52" y2="401.14" xlink:href="#linear-gradient-3"/><linearGradient id="linear-gradient-61" x1="241.21" y1="79.6" x2="-154.86" y2="405.58" xlink:href="#linear-gradient-3"/><linearGradient id="linear-gradient-62" x1="244.65" y1="83.78" x2="-151.42" y2="409.75" xlink:href="#linear-gradient-3"/><linearGradient id="linear-gradient-63" x1="248.83" y1="88.85" x2="-147.25" y2="414.83" xlink:href="#linear-gradient-3"/><linearGradient id="linear-gradient-64" x1="252.09" y1="92.82" x2="-143.98" y2="418.79" xlink:href="#linear-gradient-3"/><linearGradient id="linear-gradient-65" x1="255.7" y1="97.21" x2="-140.37" y2="423.18" xlink:href="#linear-gradient-3"/><linearGradient id="linear-gradient-66" x1="259.19" y1="101.44" x2="-136.89" y2="427.42" xlink:href="#linear-gradient-3"/><linearGradient id="linear-gradient-67" x1="263.83" y1="107.08" x2="-132.24" y2="433.06" xlink:href="#linear-gradient-3"/><linearGradient id="linear-gradient-68" x1="267.06" y1="111.01" x2="-129.01" y2="436.98" xlink:href="#linear-gradient-3"/><linearGradient id="linear-gradient-69" x1="270.51" y1="115.21" x2="-125.56" y2="441.18" xlink:href="#linear-gradient-3"/></defs><title>nhieu phan qua</title><line class="cls-1" y1="0.5" x2="140" y2="0.5"/><line class="cls-2" y1="80.18" x2="140" y2="80.18"/><path class="cls-3" d="M35,240.05H34.5v2.63H33.23v-6.31H34.5V239h.36l1.73-2.58h1.56L36,239.31l2.35,3.37H36.71Z" transform="translate(-8.89 -191)"/><path class="cls-4" d="M44,242.68H42.73v-2.62H40.16v2.62H38.9v-6.31h1.26v2.71h2.57v-2.71H44Z" transform="translate(-8.89 -191)"/><path class="cls-5" d="M48.53,241.32h-2l-.43,1.36H44.74l2.13-6.31h1.3l2.12,6.31H49Zm-1.73-1h1.43l-.7-2.23h0Zm1-5.74h1.4v0L48,235.74H46.88Z" transform="translate(-8.89 -191)"/><path class="cls-6" d="M55.58,240.59v0A2,2,0,0,1,55,242.2a2.8,2.8,0,0,1-3.59-.15,2.65,2.65,0,0,1-.69-1.89V238.9a2.64,2.64,0,0,1,.68-1.89,2.31,2.31,0,0,1,1.78-.73,2.72,2.72,0,0,1,1.81.56,2,2,0,0,1,.63,1.59v0H54.36a1.26,1.26,0,0,0-.29-.9,1.23,1.23,0,0,0-.91-.3,1,1,0,0,0-.88.46,2,2,0,0,0-.32,1.18v1.27a2,2,0,0,0,.33,1.18,1.1,1.1,0,0,0,.94.46,1.15,1.15,0,0,0,.85-.29,1.35,1.35,0,0,0,.28-.92Z" transform="translate(-8.89 -191)"/><path class="cls-7" d="M61.61,242.68H60.34v-2.62H57.77v2.62H56.5v-6.31h1.27v2.71h2.57v-2.71h1.27Z" transform="translate(-8.89 -191)"/><path class="cls-8" d="M70.09,242.68H68.82v-2.62H66.25v2.62H65v-6.31h1.27v2.71h2.57v-2.71h1.27Z" transform="translate(-8.89 -191)"/><path class="cls-9" d="M74.62,241.32H72.57l-.42,1.36H70.83L73,236.37h1.29l2.12,6.31H75.05Zm-.43-5.58H73.1l-1.18-1.12v0h1.41Zm-1.3,4.59h1.42l-.69-2.23h0Z" transform="translate(-8.89 -191)"/><path class="cls-10" d="M82.09,242.68H80.82l-2.55-4.26h0v4.25H77v-6.31h1.27l2.54,4.25h0v-4.25h1.27Z" transform="translate(-8.89 -191)"/><path class="cls-11" d="M88.09,241.82a2.41,2.41,0,0,1-.88.67,3.44,3.44,0,0,1-1.51.29,2.54,2.54,0,0,1-1.87-.72,2.51,2.51,0,0,1-.73-1.87v-1.32a2.52,2.52,0,0,1,.71-1.87,2.42,2.42,0,0,1,1.81-.72,2.56,2.56,0,0,1,1.78.55,1.77,1.77,0,0,1,.59,1.46v0H86.79a1.07,1.07,0,0,0-.29-.79,1.21,1.21,0,0,0-.85-.28,1.12,1.12,0,0,0-.93.45,1.81,1.81,0,0,0-.36,1.16v1.33a1.81,1.81,0,0,0,.36,1.16,1.21,1.21,0,0,0,1,.45,2.23,2.23,0,0,0,.71-.09.94.94,0,0,0,.41-.23v-1.22H85.61v-.88h2.48Z" transform="translate(-8.89 -191)"/><path class="cls-12" d="M95.78,237.34H94v5.34H92.71v-5.34H90.93v-1h4.85Z" transform="translate(-8.89 -191)"/><path class="cls-13" d="M101.58,242.68h-1.26v-2.62H97.75v2.62H96.48v-6.31h1.27v2.71h2.57v-2.71h1.26Z" transform="translate(-8.89 -191)"/><path class="cls-14" d="M106.12,241.32h-2.05l-.43,1.36h-1.32l2.13-6.31h1.3l2.12,6.31h-1.32Zm-1.74-1h1.43l-.7-2.23h0Z" transform="translate(-8.89 -191)"/><path class="cls-15" d="M111.74,241h0l1.62-4.65h1.66v6.31h-1.27v-4.31h0l-1.56,4.31h-.86l-1.56-4.32h0v4.32h-1.26v-6.31h1.66Z" transform="translate(-8.89 -191)"/><path class="cls-16" d="M118.42,242.68v-6.31h2.2a2.57,2.57,0,0,1,2.67,2.64v1a2.55,2.55,0,0,1-.76,1.9,2.6,2.6,0,0,1-1.91.73Zm1.27-5.34v4.37h.93a1.23,1.23,0,0,0,1-.46,1.8,1.8,0,0,0,.38-1.2V239a1.77,1.77,0,0,0-.38-1.19,1.24,1.24,0,0,0-1-.47Z" transform="translate(-8.89 -191)"/><path class="cls-17" d="M129.3,236.37v.78h0a.75.75,0,0,0,.52-.45,2.73,2.73,0,0,0,.15-1h.94a2.77,2.77,0,0,1-.4,1.58,1.69,1.69,0,0,1-1.24.7v2.51a2.08,2.08,0,0,1-.7,1.67,2.74,2.74,0,0,1-1.84.61,2.7,2.7,0,0,1-1.82-.61,2.08,2.08,0,0,1-.7-1.67v-4.13h1.27v4.13a1.29,1.29,0,0,0,.34,1,1.24,1.24,0,0,0,.91.33,1.17,1.17,0,0,0,1.27-1.3v-4.13Zm-1.76,7.89h-1.42v-1h1.42Z" transform="translate(-8.89 -191)"/><path class="cls-18" d="M133.65,239.3a4.12,4.12,0,0,1-.43-.72,1.65,1.65,0,0,1-.14-.65,1.6,1.6,0,0,1,.46-1.22,1.78,1.78,0,0,1,1.27-.43,1.54,1.54,0,0,1,1.12.42,1.4,1.4,0,0,1,.43,1,1.61,1.61,0,0,1-.18.78,2.22,2.22,0,0,1-.55.61l-.44.31,1.17,1.37a2.56,2.56,0,0,0,.24-.56,2.25,2.25,0,0,0,.09-.64h1a4,4,0,0,1-.15,1.13,2.78,2.78,0,0,1-.48.9l.87,1v0h-1.4l-.34-.38a2.93,2.93,0,0,1-.76.36,2.84,2.84,0,0,1-.84.12,2.17,2.17,0,0,1-1.5-.5,1.66,1.66,0,0,1-.56-1.3,1.47,1.47,0,0,1,.27-.89A4.16,4.16,0,0,1,133.65,239.3Zm1,2.5a2.4,2.4,0,0,0,.46-.05,1.85,1.85,0,0,0,.44-.18l-1.28-1.48,0,0a1.14,1.14,0,0,0-.35.4,1,1,0,0,0-.09.4.89.89,0,0,0,.23.63A.82.82,0,0,0,134.66,241.8Zm-.44-3.89a1.08,1.08,0,0,0,.08.38,2.38,2.38,0,0,0,.27.41l.33-.21a.92.92,0,0,0,.33-.32.86.86,0,0,0,.08-.36.6.6,0,0,0-.14-.39.55.55,0,0,0-.81,0A.82.82,0,0,0,134.22,237.91Z" transform="translate(-8.89 -191)"/><path class="cls-19" d="M39.38,250.71h-.46v2.64H37.65V247h1.27v2.58h.35L41,247h1.57L40.38,250l2.36,3.38H41.13Z" transform="translate(-8.89 -191)"/><path class="cls-20" d="M48.42,253.35H47.15v-2.63H44.58v2.63H43.31V247h1.27v2.72h2.57V247h1.27Z" transform="translate(-8.89 -191)"/><path class="cls-21" d="M53,252H50.9l-.42,1.37H49.16L51.29,247h1.29l2.12,6.32H53.38Zm-1.73-1h1.42L52,248.77h0Zm.94-5.74h1.41v0l-1.2,1.13H51.3Z" transform="translate(-8.89 -191)"/><path class="cls-22" d="M60,251.26v0a2,2,0,0,1-.62,1.59,2.5,2.5,0,0,1-1.74.57,2.43,2.43,0,0,1-1.84-.73,2.66,2.66,0,0,1-.7-1.89v-1.26a2.71,2.71,0,0,1,.68-1.89,2.33,2.33,0,0,1,1.79-.73,2.72,2.72,0,0,1,1.81.56,2,2,0,0,1,.63,1.59v0H58.78a1,1,0,0,0-1.2-1.2,1,1,0,0,0-.89.45,2.06,2.06,0,0,0-.31,1.19v1.26a2,2,0,0,0,.33,1.19,1.11,1.11,0,0,0,.94.46,1.08,1.08,0,0,0,.84-.3,1.27,1.27,0,0,0,.28-.91Z" transform="translate(-8.89 -191)"/><path class="cls-23" d="M66,253.35H64.76v-2.63H62.18v2.63H60.92V247h1.26v2.72h2.58V247H66Z" transform="translate(-8.89 -191)"/><path class="cls-24" d="M74.5,253.35H73.24v-2.63H70.66v2.63H69.4V247h1.26v2.72h2.58V247H74.5Z" transform="translate(-8.89 -191)"/><path class="cls-25" d="M79,252H77l-.42,1.37H75.24L77.37,247h1.3l2.12,6.32H79.47Zm-.44-5.57H77.52l-1.19-1.13v0h1.41ZM77.3,251h1.43l-.7-2.22h0Z" transform="translate(-8.89 -191)"/><path class="cls-26" d="M86.5,253.35H85.24l-2.55-4.26h0v4.26H81.4V247h1.27l2.54,4.26h0V247H86.5Z" transform="translate(-8.89 -191)"/><path class="cls-27" d="M92.51,252.48a2.41,2.41,0,0,1-.88.67,3.47,3.47,0,0,1-1.51.29,2.47,2.47,0,0,1-2.6-2.59v-1.32a2.57,2.57,0,0,1,.7-1.87,2.44,2.44,0,0,1,1.82-.72,2.55,2.55,0,0,1,1.77.55,1.78,1.78,0,0,1,.6,1.46v0H91.21a1.07,1.07,0,0,0-.29-.79,1.22,1.22,0,0,0-.85-.27,1.16,1.16,0,0,0-.94.44,1.86,1.86,0,0,0-.35,1.16v1.33a1.83,1.83,0,0,0,.36,1.17,1.19,1.19,0,0,0,1,.45,2.23,2.23,0,0,0,.71-.09,1.3,1.3,0,0,0,.41-.23v-1.23H90v-.87h2.49Z" transform="translate(-8.89 -191)"/><path class="cls-28" d="M100.64,252.48a2.41,2.41,0,0,1-.88.67,3.47,3.47,0,0,1-1.51.29,2.48,2.48,0,0,1-2.61-2.59v-1.32a2.57,2.57,0,0,1,.71-1.87,2.44,2.44,0,0,1,1.82-.72,2.55,2.55,0,0,1,1.77.55,1.81,1.81,0,0,1,.6,1.46v0H99.34a1.07,1.07,0,0,0-.29-.79,1.22,1.22,0,0,0-.85-.27,1.16,1.16,0,0,0-.94.44,1.8,1.8,0,0,0-.35,1.16v1.33a1.83,1.83,0,0,0,.36,1.17,1.19,1.19,0,0,0,1,.45,2.23,2.23,0,0,0,.71-.09,1.3,1.3,0,0,0,.41-.23v-1.23H98.15v-.87h2.49Z" transform="translate(-8.89 -191)"/><path class="cls-29" d="M103.07,253.35H101.8V247h1.27Z" transform="translate(-8.89 -191)"/><path class="cls-30" d="M107.69,252h-2l-.43,1.37H103.9L106,247h1.29l2.13,6.32h-1.33ZM106,251h1.42l-.69-2.22h0Z" transform="translate(-8.89 -191)"/><path class="cls-31" d="M115.12,250.76a2.63,2.63,0,0,1-.74,1.92,2.77,2.77,0,0,1-3.81,0,2.69,2.69,0,0,1-.72-1.92v-1.14a2.69,2.69,0,0,1,.72-1.92,2.77,2.77,0,0,1,3.81,0,2.66,2.66,0,0,1,.74,1.92Zm-1.27-1.15a1.9,1.9,0,0,0-.37-1.21,1.32,1.32,0,0,0-2,0,2,2,0,0,0-.35,1.21v1.15a1.94,1.94,0,0,0,.36,1.22,1.17,1.17,0,0,0,1,.47,1.19,1.19,0,0,0,1-.47,1.94,1.94,0,0,0,.36-1.22Z" transform="translate(-8.89 -191)"/><path class="cls-32" d="M118.33,253.35V247h2.2a2.61,2.61,0,0,1,1.91.74,2.55,2.55,0,0,1,.75,1.9v1a2.54,2.54,0,0,1-.75,1.9,2.61,2.61,0,0,1-1.91.74ZM119.6,248v4.37h.93a1.24,1.24,0,0,0,1-.47,1.8,1.8,0,0,0,.38-1.2v-1.05a1.79,1.79,0,0,0-.38-1.19,1.23,1.23,0,0,0-1-.46Z" transform="translate(-8.89 -191)"/><path class="cls-33" d="M125.64,254.84h-1.42v-1.05h1.42Zm-.08-1.49H124.3V247h1.26Z" transform="translate(-8.89 -191)"/><path class="cls-34" d="M131.55,251.26v0a2,2,0,0,1-.61,1.59,2.54,2.54,0,0,1-1.75.57,2.43,2.43,0,0,1-1.84-.73,2.66,2.66,0,0,1-.7-1.89v-1.26a2.71,2.71,0,0,1,.68-1.89,2.34,2.34,0,0,1,1.79-.73,2.72,2.72,0,0,1,1.81.56,2,2,0,0,1,.63,1.59v0h-1.23a1,1,0,0,0-1.2-1.2,1,1,0,0,0-.89.45,2.06,2.06,0,0,0-.31,1.19v1.26a2,2,0,0,0,.33,1.19,1.26,1.26,0,0,0,1.79.16,1.32,1.32,0,0,0,.28-.91Z" transform="translate(-8.89 -191)"/><path class="cls-35" d="M137.57,253.35h-1.26v-2.63h-2.57v2.63h-1.27V247h1.27v2.72h2.57V247h1.26Z" transform="translate(-8.89 -191)"/><path class="cls-36" d="M66.2,259.44H64.4v5.34H63.13v-5.34H61.35v-1H66.2Z" transform="translate(-8.89 -191)"/><path class="cls-37" d="M72,264.78H70.74v-2.62H68.16v2.62H66.9v-6.32h1.26v2.72h2.58v-2.72H72Z" transform="translate(-8.89 -191)"/><path class="cls-38" d="M76.54,263.42H74.49l-.43,1.36H72.74l2.13-6.32h1.3l2.12,6.32H77Zm-.44-5.58H75l-1.18-1.13v0h1.41Zm-1.3,4.59h1.43l-.7-2.23h0Z" transform="translate(-8.89 -191)"/><path class="cls-39" d="M84,264.78H82.74l-2.55-4.26h0v4.26H78.9v-6.32h1.26l2.55,4.26h0v-4.25H84Z" transform="translate(-8.89 -191)"/><path class="cls-40" d="M90.27,264.78H89v-2.62H86.43v2.62H85.16v-6.32h1.27v2.72H89v-2.72h1.27Z" transform="translate(-8.89 -191)"/><path class="cls-41" d="M98.38,262.69v0a2,2,0,0,1-.61,1.59,2.54,2.54,0,0,1-1.75.57,2.43,2.43,0,0,1-1.84-.73,2.66,2.66,0,0,1-.7-1.89V261a2.69,2.69,0,0,1,.68-1.89,2.34,2.34,0,0,1,1.79-.74,2.67,2.67,0,0,1,1.81.57,1.94,1.94,0,0,1,.63,1.58v0H97.16a1.25,1.25,0,0,0-.29-.9,1.23,1.23,0,0,0-.91-.3,1,1,0,0,0-.89.46,2,2,0,0,0-.31,1.18v1.26a2,2,0,0,0,.33,1.19,1.1,1.1,0,0,0,.94.46,1.11,1.11,0,0,0,.85-.3,1.32,1.32,0,0,0,.28-.91Z" transform="translate(-8.89 -191)"/><path class="cls-42" d="M104.41,262.19a2.62,2.62,0,0,1-.73,1.92,2.53,2.53,0,0,1-1.91.76,2.49,2.49,0,0,1-1.9-.76,2.64,2.64,0,0,1-.73-1.92v-1.14a2.66,2.66,0,0,1,.73-1.92,2.51,2.51,0,0,1,1.89-.76,2.57,2.57,0,0,1,1.91.76,2.66,2.66,0,0,1,.74,1.92Zm-1-4.51v.1h-1l-.6-.58-.61.58h-1v-.11l1.22-1h.73Zm-.24,3.36a2,2,0,0,0-.37-1.21,1.24,1.24,0,0,0-1-.47,1.19,1.19,0,0,0-1,.47,2,2,0,0,0-.36,1.21v1.15a1.94,1.94,0,0,0,.36,1.22,1.3,1.3,0,0,0,2,0,1.89,1.89,0,0,0,.37-1.22Z" transform="translate(-8.89 -191)"/><path class="cls-43" d="M110.52,264.78h-1.27l-2.55-4.26h0v4.26h-1.27v-6.32h1.27l2.54,4.26h0v-4.25h1.27Z" transform="translate(-8.89 -191)"/><path class="cls-44" d="M116.52,263.92a2.52,2.52,0,0,1-.88.67,3.45,3.45,0,0,1-1.51.28,2.54,2.54,0,0,1-1.87-.72,2.49,2.49,0,0,1-.73-1.87V261a2.55,2.55,0,0,1,.71-1.87,2.42,2.42,0,0,1,1.81-.72,2.61,2.61,0,0,1,1.78.55,1.8,1.8,0,0,1,.59,1.47v0h-1.19a1.06,1.06,0,0,0-.29-.78,1.16,1.16,0,0,0-.85-.28,1.12,1.12,0,0,0-.93.45,1.78,1.78,0,0,0-.36,1.15v1.33a1.82,1.82,0,0,0,.36,1.17,1.21,1.21,0,0,0,1,.45,2.23,2.23,0,0,0,.71-.09,1.05,1.05,0,0,0,.41-.23v-1.23H114v-.87h2.48Z" transform="translate(-8.89 -191)"/><path class="cls-45" d="M43,208.82H41l-3.19-5.48,0,0v5.46h-2v-8.7h2L41,205.58h0v-5.45h2Z" transform="translate(-8.89 -191)"/><path class="cls-46" d="M51.66,208.82h-2v-3.51H46.43v3.51h-2v-8.7h2v3.64h3.21v-3.64h2Z" transform="translate(-8.89 -191)"/><path class="cls-47" d="M55.18,208.82h-2v-8.7h2Z" transform="translate(-8.89 -191)"/><path class="cls-48" d="M57.5,198.42H56.12l-1.3-1.65h1.77Zm4.28,6.67H58.71v2.17h3.68v1.56h-5.7v-8.7h5.7v1.55H58.71v1.87h3.07Zm.39-5.7v0H60.4l-.86-.82-.87.82H56.92v0l1.79-1.49h1.67Z" transform="translate(-8.89 -191)"/><path class="cls-49" d="M70.65,200.12v5.64a2.93,2.93,0,0,1-1,2.34,4.43,4.43,0,0,1-5.19,0,2.91,2.91,0,0,1-1-2.34v-5.64h2v5.64a1.64,1.64,0,0,0,.42,1.22,1.61,1.61,0,0,0,1.16.41,1.58,1.58,0,0,0,1.15-.41,1.66,1.66,0,0,0,.4-1.22v-5.64Z" transform="translate(-8.89 -191)"/><path class="cls-50" d="M77.06,205.84v3H75v-8.7h3.32a3.57,3.57,0,0,1,2.45.79,2.81,2.81,0,0,1,0,4.14,3.62,3.62,0,0,1-2.45.79Zm0-1.56h1.3a1.32,1.32,0,0,0,1-.36,1.29,1.29,0,0,0,.35-.93,1.36,1.36,0,0,0-.35-1,1.27,1.27,0,0,0-1-.37h-1.3Z" transform="translate(-8.89 -191)"/><path class="cls-51" d="M90.09,208.82h-2v-3.51H84.86v3.51h-2v-8.7h2v3.64h3.22v-3.64h2Z" transform="translate(-8.89 -191)"/><path class="cls-52" d="M92.76,198.42H91.38l-1.3-1.65h1.77Zm3.38,8.71H93.55l-.5,1.69H90.92l2.84-8.7h2.17l2.84,8.7H96.65Zm1.29-7.74v0H95.66l-.86-.82-.87.82H92.18v0L94,197.9h1.68ZM94,205.57h1.65l-.81-2.7h0Z" transform="translate(-8.89 -191)"/><path class="cls-53" d="M106.65,208.82h-2l-3.18-5.48,0,0v5.46h-2v-8.7h2l3.19,5.46h0v-5.45h2Z" transform="translate(-8.89 -191)"/><path class="cls-54" d="M118.31,205.25a4.19,4.19,0,0,1-.17,1.2,3.94,3.94,0,0,1-.5,1l1.3,1.32-1.3,1-1.25-1.25a3.41,3.41,0,0,1-.83.29,4,4,0,0,1-.93.1,3.55,3.55,0,0,1-3.71-3.69v-1.57a3.54,3.54,0,0,1,3.7-3.69,3.55,3.55,0,0,1,2.66,1,3.59,3.59,0,0,1,1,2.64Zm-2-1.58a2.54,2.54,0,0,0-.43-1.53,1.62,1.62,0,0,0-2.5,0,2.61,2.61,0,0,0-.43,1.53v1.58a2.55,2.55,0,0,0,.44,1.54,1.46,1.46,0,0,0,1.26.6,1.43,1.43,0,0,0,1.23-.6,2.55,2.55,0,0,0,.43-1.54Z" transform="translate(-8.89 -191)"/><path class="cls-55" d="M126.85,200.12v5.64a2.93,2.93,0,0,1-1,2.34,4.43,4.43,0,0,1-5.19,0,2.91,2.91,0,0,1-1-2.34v-5.64h2v5.64a1.64,1.64,0,0,0,.41,1.22,1.61,1.61,0,0,0,1.16.41,1.58,1.58,0,0,0,1.15-.41,1.66,1.66,0,0,0,.41-1.22v-5.64Z" transform="translate(-8.89 -191)"/><path class="cls-56" d="M132.61,207.13H130l-.5,1.69h-2.13l2.84-8.7h2.17l2.84,8.7h-2.12Zm-.32-7.87h-1.78l-1.69-1.55v0H131Zm-1.8,6.31h1.65l-.81-2.7h0Z" transform="translate(-8.89 -191)"/><path class="cls-57" d="M30.21,224.26h0l2-6.09h2.67v8.7h-2v-5.6h0l-1.92,5.61H29.55l-1.88-5.53h0v5.52h-2v-8.7h2.65Z" transform="translate(-8.89 -191)"/><path class="cls-58" d="M40.93,225.18H38.34l-.5,1.69H35.71l2.84-8.7h2.17l2.84,8.7H41.44Zm-2.12-1.55h1.65l-.81-2.7h0Z" transform="translate(-8.89 -191)"/><path class="cls-59" d="M46.21,222h0l1.73-3.8h2.19l-3,5.64v3.06h-2v-3.15l-2.9-5.55h2.19Z" transform="translate(-8.89 -191)"/><path class="cls-60" d="M58.47,224.26h0l2-6.09h2.67v8.7h-2v-5.6h0l-1.92,5.61H57.82l-1.88-5.53h0v5.52h-2v-8.7h2.65Z" transform="translate(-8.89 -191)"/><path class="cls-61" d="M69.19,225.18H66.6l-.5,1.69H64l2.84-8.7H69l2.85,8.7H69.7Zm.71-8.91v0a1.2,1.2,0,0,1-.55,1.1,2.66,2.66,0,0,1-1.6.43,2.69,2.69,0,0,1-1.61-.43,1.2,1.2,0,0,1-.55-1.1v0h1.45a.48.48,0,0,0,.17.39.78.78,0,0,0,.53.16.77.77,0,0,0,.52-.16.51.51,0,0,0,.17-.39Zm-2.83,7.36h1.66l-.82-2.7h0ZM68,214.9h1.36l0,0-1,1.07H67.21Z" transform="translate(-8.89 -191)"/><path class="cls-62" d="M79.7,226.87h-2L74.5,221.4h0v5.46h-2v-8.7h2l3.18,5.47h0v-5.46h2Z" transform="translate(-8.89 -191)"/><path class="cls-63" d="M84.13,226.87v-8.7h3.19a3.59,3.59,0,0,1,2.57,1,3.43,3.43,0,0,1,1,2.57v1.56a3.4,3.4,0,0,1-1,2.57,3.55,3.55,0,0,1-2.57,1Zm2-7.14v5.59h1.17a1.39,1.39,0,0,0,1.13-.56,2.27,2.27,0,0,0,.44-1.46v-1.57a2.21,2.21,0,0,0-.44-1.44,1.37,1.37,0,0,0-1.13-.56Z" transform="translate(-8.89 -191)"/><path class="cls-64" d="M96.55,225.18H94l-.51,1.69H91.34l2.84-8.7h2.16l2.85,8.7H97.06Zm-.32-7.86H94.46l-1.69-1.55v0H95Zm-1.8,6.31h1.66l-.81-2.7h0Z" transform="translate(-8.89 -191)"/><path class="cls-65" d="M107.06,226.87h-2l-3.18-5.47h0v5.46h-2v-8.7h2l3.18,5.47h0v-5.46h2Z" transform="translate(-8.89 -191)"/><path class="cls-66" d="M115.7,226.87h-2v-3.5h-3.22v3.5h-2v-8.7h2v3.65h3.22v-3.65h2Z" transform="translate(-8.89 -191)"/><path class="cls-67" d="M126.81,223.94l0,0a2.84,2.84,0,0,1-.84,2.26,3.6,3.6,0,0,1-2.45.77,3.47,3.47,0,0,1-2.59-1,3.52,3.52,0,0,1-1-2.58v-1.82a3.58,3.58,0,0,1,.94-2.57,3.28,3.28,0,0,1,2.49-1,3.78,3.78,0,0,1,2.56.77,2.68,2.68,0,0,1,.88,2.24v0h-2a1.57,1.57,0,0,0-.34-1.14,1.53,1.53,0,0,0-1.12-.35,1.16,1.16,0,0,0-1,.55,2.51,2.51,0,0,0-.37,1.45v1.83a2.45,2.45,0,0,0,.4,1.46,1.33,1.33,0,0,0,1.15.55,1.29,1.29,0,0,0,1-.34,1.77,1.77,0,0,0,.31-1.16Z" transform="translate(-8.89 -191)"/><path class="cls-68" d="M135.2,226.87h-2v-3.5H130v3.5h-2v-8.7h2v3.65h3.22v-3.65h2Z" transform="translate(-8.89 -191)"/><path class="cls-69" d="M143.81,223.3a3.61,3.61,0,0,1-1,2.65,3.7,3.7,0,0,1-6.37-2.65v-1.56a3.53,3.53,0,0,1,3.7-3.69,3.54,3.54,0,0,1,3.69,3.69Zm-2-1.57a2.52,2.52,0,0,0-.44-1.53,1.6,1.6,0,0,0-2.49,0,2.55,2.55,0,0,0-.44,1.54v1.57a2.59,2.59,0,0,0,.44,1.55,1.5,1.5,0,0,0,1.26.59,1.45,1.45,0,0,0,1.23-.59,2.59,2.59,0,0,0,.44-1.55Z" transform="translate(-8.89 -191)"/></svg>