<svg id="Layer_1" data-name="Layer 1" xmlns="http://www.w3.org/2000/svg" viewBox="0 0 117 63.3"><defs><style>.cls-1{fill:#fff;}.cls-2{fill:#ffad00;}.cls-3{opacity:0.43;}.cls-4{fill:#303030;}.cls-5{fill:#404040;}</style></defs><title>logo</title><path id="N" class="cls-1" d="M162.76,108.27v-34h6.91l3.08,16.28V74.25h6.47v34h-6.55l-3.36-17v17Z" transform="translate(-154 -66.09)"/><path id="H" class="cls-1" d="M181.89,108.27v-34h6.67V86.41h3.16V74.25h6.67v34h-6.67V92.82h-3.16v15.45Z" transform="translate(-154 -66.09)"/><path id="A" class="cls-1" d="M201,108.27l3.46-34h12.13l3.42,34h-6.8l-.5-5.51h-4.33l-.42,5.51Zm7.92-10.93h3.25L210.56,80h-.34Z" transform="translate(-154 -66.09)"/><path id="X" class="cls-1" d="M232.15,108.27l3.59-18.06-2.85-16h6.56l1.75,11.72,1.52-11.72h6.59l-2.88,16L250,108.27h-6.79L241.12,95,239,108.27Z" transform="translate(-154 -66.09)"/><path id="E" class="cls-1" d="M251.74,108.27v-34h13.41v6.58h-6.59v6.61h6.32v6.41h-6.32v7.8h7v6.62Z" transform="translate(-154 -66.09)"/><path class="cls-1" d="M213.37,71.88l-6.22-1.23V66.09L213.37,69Z" transform="translate(-154 -66.09)"/><polygon class="cls-2" points="111.75 44.4 0 44.4 5.19 53.78 0 63.3 111.75 63.3 117 53.97 111.75 44.4"/><g class="cls-3"><polyline points="102.37 44.4 101.13 44.4 106.32 53.86 101.13 63.28 102.37 63.28 107.56 53.86 107.56 53.86 107.56 53.86 107.56 53.86"/></g><g class="cls-3"><polyline points="109.23 44.4 107.99 44.4 113.18 53.86 107.99 63.28 109.23 63.28 114.42 53.86 114.42 53.86 114.42 53.86 114.42 53.86"/></g><g class="cls-3"><path d="M194.92,120" transform="translate(-154 -66.09)"/><polyline points="35.73 63.28 34.49 63.28 39.68 53.86 34.49 44.4 35.73 44.4 40.92 53.86"/></g><g class="cls-3"><polyline points="24.91 44.4 23.68 44.4 28.87 53.86 23.68 63.28 24.92 63.28 30.11 53.86 30.11 53.86 30.11 53.86"/></g><g class="cls-3"><polyline points="18.36 44.4 17.12 44.4 22.31 53.86 17.12 63.28 18.36 63.28 23.55 53.86 23.55 53.86 23.55 53.86 23.55 53.86"/></g><g class="cls-3"><polyline points="12.08 44.4 10.84 44.4 16.03 53.86 10.84 63.28 12.08 63.28 17.27 53.86 17.27 53.86 17.27 53.86 17.27 53.86"/></g><path class="cls-4" d="M204.83,125.05v-8.11h1.6v3.25l.76-3.25h1.63l-.9,3.71,1.09,4.4h-1.68l-.89-3.93v3.93Z" transform="translate(-154 -66.09)"/><path class="cls-4" d="M208.93,116.51l1.1-1.86h1.88l1.11,1.86h-1.65l-.4-1.31-.39,1.31Zm.35,8.54v-8.11h3.25v1.56h-1.59v1.58h1.53v1.53h-1.53v1.86h1.7v1.58Z" transform="translate(-154 -66.09)"/><path class="cls-4" d="M213.18,125.05v-8.11h1.67l.74,3.88v-3.88h1.57v8.11h-1.59l-.81-4.06v4.06Z" transform="translate(-154 -66.09)"/><path class="cls-4" d="M217.88,125.05v-8.11h1.61v2.9h.77v-2.9h1.61v8.11h-1.61v-3.68h-.77v3.68Z" transform="translate(-154 -66.09)"/><path class="cls-4" d="M225.5,125.05V118.5h-1v-1.56h3.55v1.56h-1v6.55Z" transform="translate(-154 -66.09)"/><path class="cls-4" d="M228.46,125.05v-8.11H230v8.11Z" transform="translate(-154 -66.09)"/><path class="cls-4" d="M230.68,125.05v-8.11h1.68l.74,3.88v-3.88h1.57v8.11h-1.59l-.81-4.06v4.06Z" transform="translate(-154 -66.09)"/><path class="cls-4" d="M238.3,125.05V118.5h-1v-1.56h3.55v1.56h-1v6.55Z" transform="translate(-154 -66.09)"/><path class="cls-4" d="M246.25,116.25v.07a1.66,1.66,0,0,1-.29,1,1.24,1.24,0,0,1-.77.49v5a2.5,2.5,0,0,1-.49,1.68,2.22,2.22,0,0,1-3,0,2.5,2.5,0,0,1-.49-1.68v-5.94h1.58v5.87a1.7,1.7,0,0,0,.08.61.3.3,0,0,0,.32.21.31.31,0,0,0,.32-.21,1.92,1.92,0,0,0,.07-.61v-5.87h.82c.36,0,.53-.19.53-.58v-.1Zm-4.13.12v-.9l2.19-.77V116Z" transform="translate(-154 -66.09)"/><path class="cls-4" d="M247.18,124.57a2.1,2.1,0,0,1-.54-1.53V119.3a2.82,2.82,0,0,1,.49-1.82,1.79,1.79,0,0,1,1.51-.62,2.09,2.09,0,0,1,1.44.49,1.8,1.8,0,0,1,.55,1.42v1.4H249V119a.89.89,0,0,0-.08-.48.32.32,0,0,0-.29-.14.3.3,0,0,0-.3.15,1.07,1.07,0,0,0-.08.45V123a1,1,0,0,0,.09.47.34.34,0,0,0,.29.14c.25,0,.37-.2.37-.61v-1.46h1.64v1.53a1.81,1.81,0,0,1-2.05,2A1.87,1.87,0,0,1,247.18,124.57Z" transform="translate(-154 -66.09)"/><polygon class="cls-2" points="76.78 29.89 76.78 20.9 72.25 24.38 67.73 20.91 67.73 29.89 72.25 33.37 76.78 29.89"/><polygon class="cls-5" points="72.25 31.23 72.25 31.23 72.25 31.23 72.25 31.23 72.25 31.23 76.78 27.75 76.78 26.91 72.25 30.4 67.73 26.91 67.73 27.75 72.25 31.23"/><polygon class="cls-5" points="72.25 29.17 72.25 29.17 72.25 29.17 72.25 29.17 72.25 29.17 76.78 25.68 76.78 24.85 72.25 28.34 67.73 24.85 67.73 25.68 72.25 29.17"/></svg>