<svg id="Layer_1" data-name="Layer 1" xmlns="http://www.w3.org/2000/svg" viewBox="0 0 150.39 81.36"><defs><style>.cls-1{fill:#303030;}.cls-2{fill:#ffad00;}.cls-3,.cls-4{fill:#fff;}.cls-4{stroke:#303030;stroke-miterlimit:10;stroke-width:0.25px;}</style></defs><title>LOGO</title><g id="LOGO"><path id="N" class="cls-1" d="M83,96.64V52.92h8.87l4,20.92V52.92h8.32V96.64H95.68L91.37,74.76V96.64Z" transform="translate(-71.68 -42.43)"/><path id="H" class="cls-1" d="M107.54,96.64V52.92h8.57V68.55h4.06V52.92h8.57V96.64h-8.57V76.79h-4.06V96.64Z" transform="translate(-71.68 -42.43)"/><path id="A" class="cls-1" d="M132.05,96.64l4.45-43.72h15.6l4.4,43.72h-8.74l-.65-7.07h-5.57L141,96.64Zm10.19-14h4.18l-2-22.25H144Z" transform="translate(-71.68 -42.43)"/><path id="X" class="cls-1" d="M172.14,96.64l4.61-23.21-3.66-20.56h8.43l2.25,15.07,2-15.07h8.46l-3.7,20.56,4.61,23.21h-8.72l-2.71-17.1-2.76,17.1Z" transform="translate(-71.68 -42.43)"/><path id="E" class="cls-1" d="M197.31,96.64V52.92h17.25v8.45h-8.48v8.5h8.13v8.25h-8.13v10h9v8.5Z" transform="translate(-71.68 -42.43)"/><path class="cls-1" d="M148,49.87l-8-1.58V42.43l8,3.69Z" transform="translate(-71.68 -42.43)"/><polygon class="cls-2" points="143.65 57.07 0 57.07 6.67 69.13 0 81.36 143.65 81.36 150.39 69.37 143.65 57.07"/><polygon class="cls-3" points="138.26 69.23 138.26 69.23 138.26 69.23 138.26 69.23 131.59 81.34 130 81.34 136.67 69.23 129.99 57.07 131.58 57.07 138.26 69.23"/><polygon class="cls-3" points="140.4 57.07 138.81 57.07 145.49 69.23 138.81 81.34 140.41 81.34 147.08 69.23 147.08 69.23 147.08 69.23 147.08 69.23 140.4 57.07"/><path class="cls-3" d="M124.28,111.66" transform="translate(-71.68 -42.43)"/><polygon class="cls-3" points="52.59 69.23 45.92 57.07 44.33 57.07 51.01 69.23 44.33 81.34 45.92 81.34 52.59 69.23"/><polygon class="cls-3" points="38.7 69.23 38.7 69.23 38.7 69.23 32.03 81.34 30.44 81.34 37.11 69.23 30.44 57.07 32.03 57.07 38.7 69.23"/><polygon class="cls-3" points="30.27 69.23 30.27 69.23 30.27 69.23 30.27 69.23 23.6 81.34 22.01 81.34 28.68 69.23 22 57.07 23.59 57.07 30.27 69.23"/><polygon class="cls-3" points="22.2 69.23 22.2 69.23 22.2 69.23 15.52 81.34 13.94 81.34 20.61 69.23 13.93 57.07 15.52 57.07 22.2 69.23"/><path class="cls-1" d="M137,118.22V107.79h2.06V112l1-4.17h2.1L141,112.56l1.4,5.66h-2.16l-1.14-5v5Z" transform="translate(-71.68 -42.43)"/><path class="cls-1" d="M142.28,107.24l1.42-2.39h2.42l1.43,2.39h-2.12l-.51-1.69-.51,1.69Zm.47,11V107.79h4.17v2h-2v2h2v2h-2v2.39h2.18v2Z" transform="translate(-71.68 -42.43)"/><path class="cls-1" d="M147.75,118.22V107.79h2.15l.95,5v-5h2v10.43h-2l-1-5.22v5.22Z" transform="translate(-71.68 -42.43)"/><path class="cls-1" d="M153.79,118.22V107.79h2.08v3.72h1v-3.72h2.08v10.43h-2.08v-4.74h-1v4.74Z" transform="translate(-71.68 -42.43)"/><path class="cls-1" d="M163.59,118.22v-8.43h-1.24v-2h4.56v2h-1.23v8.43Z" transform="translate(-71.68 -42.43)"/><path class="cls-1" d="M167.4,118.22V107.79h2v10.43Z" transform="translate(-71.68 -42.43)"/><path class="cls-1" d="M170.25,118.22V107.79h2.15l1,5v-5h2v10.43h-2L172.29,113v5.22Z" transform="translate(-71.68 -42.43)"/><path class="cls-1" d="M180,118.22v-8.43H178.8v-2h4.56v2h-1.23v8.43Z" transform="translate(-71.68 -42.43)"/><path class="cls-1" d="M190.26,106.9v.1a2.09,2.09,0,0,1-.37,1.32,1.59,1.59,0,0,1-1,.63v6.47a3.2,3.2,0,0,1-.63,2.16,2.86,2.86,0,0,1-3.82,0,3.2,3.2,0,0,1-.63-2.16v-7.63h2v7.55a2.34,2.34,0,0,0,.1.78.45.45,0,0,0,.82,0,2.27,2.27,0,0,0,.1-.78v-7.55h1.06c.45,0,.68-.25.68-.74v-.14Zm-5.31.16v-1.15l2.82-1v1.7Z" transform="translate(-71.68 -42.43)"/><path class="cls-1" d="M191.45,117.6a2.77,2.77,0,0,1-.68-2v-4.81a3.71,3.71,0,0,1,.62-2.34,2.3,2.3,0,0,1,1.94-.79,2.69,2.69,0,0,1,1.86.63,2.32,2.32,0,0,1,.7,1.82v1.8h-2.08V110.4a1.28,1.28,0,0,0-.1-.62.43.43,0,0,0-.38-.17.38.38,0,0,0-.38.19,1.22,1.22,0,0,0-.11.57v5.24a1.07,1.07,0,0,0,.13.6.4.4,0,0,0,.36.18q.48,0,.48-.78v-1.89h2.1v2a2.32,2.32,0,0,1-2.63,2.62A2.45,2.45,0,0,1,191.45,117.6Z" transform="translate(-71.68 -42.43)"/><polygon class="cls-2" points="98.69 38.42 98.69 26.87 92.86 31.34 87.06 26.87 87.06 38.42 92.86 42.89 98.69 38.42"/><polygon class="cls-3" points="92.86 40.15 92.86 40.15 92.86 40.15 92.86 40.15 92.86 40.15 98.69 35.66 98.69 34.59 92.86 39.08 87.06 34.6 87.06 35.66 92.86 40.15"/><polygon class="cls-3" points="92.86 37.49 92.86 37.49 92.86 37.49 92.86 37.49 92.86 37.49 98.69 33.01 98.69 31.94 92.86 36.43 87.06 31.94 87.06 33.01 92.86 37.49"/></g><path class="cls-4" d="M93.88,111.66" transform="translate(-71.68 -42.43)"/></svg>